SplineFontDB: 1.0
FontName: CenturySchL-Roma
FullName: Century Schoolbook L Roman
FamilyName: Century Schoolbook L
Weight: Regular
Copyright: Copyright (URW)++,Copyright 1999 by (URW)++ Design & Development; Cyrillic glyphs added by Valek Filippov (C) 2001
Version: 1.06
ItalicAngle: 0
UnderlinePosition: -104
UnderlineWidth: 61
Ascent: 800
Descent: 200
NeedsXUIDChange: 1
UniqueID: 4032379
FSType: 0
OS2WinAscent: 0
OS2WinAOffset: 1
OS2WinDescent: 0
OS2WinDOffset: 1
HheadAscent: 0
HheadAOffset: 1
HheadDescent: 0
HheadDOffset: 1
ScriptLang: 2
 1 latn 1 dflt 
 1 DFLT 1 dflt 
Encoding: adobestandard
UnicodeInterp: none
DisplaySize: -36
AntiAlias: 1
FitToEm: 1
WinInfo: 360 30 14
BeginPrivate: 7
BlueValues 31 [-20 0 466 486 722 742 689 709]
BlueScale 8 0.039625
StdHW 4 [45]
StdVW 4 [95]
StemSnapH 201 [41 45 54 61 83 139] 
systemdict /internaldict known
{1183615869 systemdict /internaldict get exec
/StemSnapLength 2 copy known { get 6 lt } { pop pop true } ifelse }
{ true } ifelse { pop [45 61] } if
StemSnapV 204 [46 61 95 106 113 133] 
systemdict /internaldict known
{1183615869 systemdict /internaldict get exec
/StemSnapLength 2 copy known { get 6 lt } { pop pop true } ifelse }
{ true } ifelse { pop [95 106] } if
ForceBold 5 false
EndPrivate
BeginChars: 767 661
StartChar: exclam
Encoding: 33 33 2
Width: 296
Flags: W
HStem: -14 125<147 152> 716 20G<129.5 170.5>
VStem: 130 39<191 262.836>
Fore
169 191 m 1
 130 191 l 1
 128 370 125 417 106 511 c 0
 92 581 88 612 88 642 c 0
 88 704 109 736 150 736 c 0
 191 736 211 705 211 641 c 0
 211 612 207 581 193 511 c 0
 174 417 170 367 169 191 c 1
150 111 m 0
 184 111 212 83 212 49 c 0
 212 14 184 -14 149 -14 c 0
 115 -14 87 14 87 49 c 0
 87 83 115 111 150 111 c 0
EndSplineSet
EndChar
StartChar: quotedbl
Encoding: 34 34 3
Width: 389
Flags: W
HStem: 716 20G<92 116.5 273 297.5>
VStem: 61 86<677 696> 242 86<693 697>
Fore
93 498 m 1
 62 677 l 2
 61 683 61 688 61 694 c 0
 61 718 80 736 104 736 c 0
 129 736 147 718 147 693 c 0
 147 687 147 682 146 677 c 2
 115 498 l 1
 93 498 l 1
274 498 m 1
 243 677 l 2
 242 683 242 687 242 693 c 0
 242 718 261 736 285 736 c 0
 310 736 328 718 328 693 c 0
 328 688 328 682 327 677 c 2
 296 498 l 1
 274 498 l 1
EndSplineSet
EndChar
StartChar: numbersign
Encoding: 35 35 4
Width: 556
Flags: W
HStem: 0 21G<102 167 290 355> 228 56<33 135 208 323 396 497> 416 56<60 162 235 350 423 524> 416 270<201 350 389 524>
DStem: 135 228 200 228 102 0 167 0 162 416 227 416 143 284 208 284 201 686 266 686 170 472 235 472 323 228 388 228 290 0 355 0 350 416 415 416 331 284 396 284 389 686 454 686 358 472 423 472
Fore
135 228 m 1xd0
 33 228 l 1
 33 284 l 1
 143 284 l 1
 162 416 l 1
 60 416 l 1
 60 472 l 1
 170 472 l 1xe0
 201 686 l 1
 266 686 l 1xd0
 235 472 l 1
 358 472 l 1xe0
 389 686 l 1
 454 686 l 1xd0
 423 472 l 1
 524 472 l 1
 524 416 l 1xe0
 415 416 l 1
 396 284 l 1
 497 284 l 1
 497 228 l 1
 388 228 l 1
 355 0 l 1
 290 0 l 1
 323 228 l 1
 200 228 l 1
 167 0 l 1
 102 0 l 1
 135 228 l 1xd0
227 416 m 1xd0
 208 284 l 1
 331 284 l 1
 350 416 l 1xe0
 227 416 l 1xd0
EndSplineSet
EndChar
StartChar: dollar
Encoding: 36 36 5
Width: 556
Flags: W
HStem: 480 21G<400 437>
VStem: 45 132<148 172> 58 72<507 539> 251 47<-130 -10 32 298 420 652 696 801> 358 122<536 550> 436 74<166 202>
Fore
298 801 m 1xb0
 298 697 l 1
 407 689 480 630 480 550 c 0
 480 506 456 480 418 480 c 0
 382 480 358 503 358 538 c 0xb8
 358 561 365 572 394 593 c 0
 397 596 400 600 400 603 c 0
 400 624 352 647 298 652 c 1
 298 405 l 1
 304 403 307 402 321 398 c 0
 395 376 432 358 463 328 c 0
 494 297 510 255 510 202 c 0
 510 76 430 -3 298 -10 c 1
 298 -130 l 1
 251 -130 l 1
 251 -11 l 1
 210 -9 191 -6 163 3 c 0
 90 27 45 82 45 148 c 0
 45 198 75 234 116 234 c 0
 150 234 177 207 177 172 c 0xd4
 177 143 165 127 131 107 c 0
 125 104 123 101 123 96 c 0
 123 65 179 37 251 32 c 1
 251 311 l 1
 198 327 168 339 142 354 c 0
 88 387 58 442 58 507 c 0
 58 611 129 681 251 696 c 1
 251 801 l 1
 298 801 l 1xb0
251 420 m 1
 251 650 l 1
 180 644 130 598 130 539 c 0
 130 481 163 449 251 420 c 1
298 298 m 1
 298 33 l 1
 324 36 336 39 353 46 c 0
 403 67 436 115 436 166 c 0x94
 436 220 403 261 340 285 c 0
 327 290 327 290 298 298 c 1
EndSplineSet
EndChar
StartChar: percent
Encoding: 37 37 6
Width: 833
Flags: W
HStem: 15 39<575 590> 321 38<173 190> 361 40<675 692> 602 37<440 462> 702 20G<604 650>
VStem: 45 87<418 445> 353 37<574 593> 445 85<111 136> 754 38<271 290>
DStem: 546 631 650 722 186 0 236 0
Fore
650 722 m 1
 236 0 l 1
 186 0 l 1
 546 631 l 1
 509 609 484 602 450 602 c 0
 429 602 412 605 387 614 c 1
 389 599 390 591 390 582 c 0
 390 521 362 448 319 397 c 0
 275 345 229 321 173 321 c 0
 99 321 45 373 45 445 c 0
 45 512 92 605 151 656 c 0
 190 689 235 708 278 708 c 0
 318 708 343 695 369 661 c 1
 399 644 417 639 442 639 c 0
 506 639 564 668 604 722 c 1
 650 722 l 1
286 669 m 1
 245 655 232 643 194 576 c 0
 147 494 132 455 132 418 c 0
 132 383 155 359 188 359 c 0
 268 359 353 477 353 587 c 0
 353 602 352 612 347 628 c 1
 319 638 304 648 286 669 c 1
675 401 m 0
 743 401 792 351 792 282 c 0
 792 223 762 146 716 89 c 0
 679 42 627 15 575 15 c 0
 500 15 445 66 445 136 c 0
 445 192 472 261 514 314 c 0
 560 370 616 401 675 401 c 0
692 361 m 0
 661 361 635 339 604 288 c 0
 551 202 530 151 530 111 c 0
 530 79 555 54 586 54 c 0
 666 54 754 171 754 280 c 0
 754 325 726 361 692 361 c 0
EndSplineSet
EndChar
StartChar: ampersand
Encoding: 38 38 7
Width: 815
Flags: W
HStem: -15 68<266 326> -11 79<600 642> 361 43<471 504 471 753> 694 43<346 359>
VStem: 51 107<189 243> 182 94<560 595> 433 80<592 610>
Fore
731 169 m 1x7e
 775 163 l 1
 770 124 761 95 741 65 c 0
 706 12 664 -11 600 -11 c 0x7e
 545 -11 506 7 458 56 c 1
 393 6 338 -15 266 -15 c 0xbe
 199 -15 145 6 108 46 c 0
 73 84 51 140 51 189 c 0
 51 279 112 357 224 411 c 1
 193 477 182 516 182 560 c 0
 182 666 252 737 357 737 c 0
 450 737 513 682 513 602 c 0
 513 549 483 494 437 462 c 0
 411 444 394 435 340 411 c 1
 400 301 452 221 501 163 c 1
 544 213 571 271 571 314 c 0
 571 345 540 361 481 361 c 2
 471 361 l 1
 471 404 l 1
 753 404 l 1
 753 361 l 1
 742 361 l 2
 710 361 682 351 664 334 c 1
 647 316 647 316 598 225 c 0
 576 185 574 181 532 129 c 1
 572 86 605 68 642 68 c 0
 686 68 719 106 731 169 c 1x7e
319 453 m 1
 339 463 340 463 348 468 c 0
 405 499 433 543 433 600 c 0
 433 655 400 694 354 694 c 0
 309 694 276 653 276 595 c 0
 276 558 290 513 319 453 c 1
243 370 m 1
 183 335 158 298 158 243 c 0
 158 143 238 53 326 53 c 0xbe
 359 53 383 62 427 90 c 1
 342 189 309 240 243 370 c 1
EndSplineSet
EndChar
StartChar: quoteright
Encoding: 39 8217 8
Width: 204
Flags: W
HStem: 721 20G<77.5 120>
VStem: 125 53<614 646>
Fore
47 450 m 1
 24 478 l 1
 90 520 125 567 125 614 c 0
 125 620 122 623 118 623 c 2
 115 623 l 2
 111 622 107 622 102 622 c 0
 58 622 31 644 31 681 c 0
 31 715 59 741 96 741 c 0
 144 741 178 702 178 646 c 0
 178 604 163 561 136 525 c 0
 122 506 106 493 63 461 c 0
 59 459 52 453 47 450 c 1
EndSplineSet
KernsSLIF: 121 5 1 0 119 4 1 0 118 8 1 0 116 4 1 0 115 -4 1 0 46 -31 1 0 111 -7 1 0 100 -9 1 0 44 -30 1 0 262 -68 1 0 256 -68 1 0 257 -68 1 0 225 -81 1 0 65 -68 1 0
EndChar
StartChar: parenleft
Encoding: 40 40 9
Width: 333
Flags: W
Fore
279 736 m 1
 279 699 l 1
 179 611 139 499 139 307 c 0
 139 115 179 2 279 -86 c 1
 279 -123 l 1
 211 -81 177 -51 139 -3 c 1
 72 86 36 193 36 307 c 0
 36 428 77 543 153 633 c 0
 187 673 219 699 279 736 c 1
EndSplineSet
EndChar
StartChar: parenright
Encoding: 41 41 10
Width: 333
Flags: W
Fore
54 -123 m 1
 54 -86 l 1
 154 2 194 114 194 307 c 0
 194 499 154 611 54 699 c 1
 54 736 l 1
 122 695 156 665 194 616 c 0
 261 528 297 421 297 307 c 0
 297 186 256 70 180 -19 c 0
 146 -60 114 -86 54 -123 c 1
EndSplineSet
EndChar
StartChar: asterisk
Encoding: 42 42 11
Width: 500
Flags: W
HStem: 716 20G<238.5 259.5>
VStem: 239 21<464 500 537 589>
Fore
239 537 m 1
 239 573 l 2
 239 605 237 613 216 662 c 0
 211 674 208 685 208 692 c 0
 208 714 228 736 249 736 c 0
 270 736 291 715 291 692 c 0
 291 682 290 678 274 640 c 0
 264 618 260 597 260 573 c 2
 260 537 l 1
 291 555 l 2
 318 571 330 583 357 620 c 0
 372 641 383 648 401 648 c 0
 424 648 443 631 443 609 c 0
 443 581 425 565 391 561 c 0
 345 556 330 552 302 536 c 2
 271 518 l 1
 302 500 l 2
 330 485 343 481 391 476 c 0
 425 472 443 456 443 428 c 0
 443 406 424 389 401 389 c 0
 383 389 372 396 357 417 c 0
 330 454 318 466 291 482 c 2
 260 500 l 1
 260 464 l 2
 260 432 263 422 283 374 c 0
 288 362 291 351 291 343 c 0
 291 322 270 300 249 300 c 0
 228 300 207 322 207 344 c 0
 207 351 210 362 215 374 c 0
 237 423 239 432 239 464 c 2
 239 500 l 1
 208 482 l 2
 180 465 169 454 142 416 c 0
 127 396 116 389 98 389 c 0
 75 389 56 406 56 428 c 0
 56 456 74 472 108 476 c 0
 155 481 169 485 197 501 c 2
 228 518 l 1
 197 536 l 2
 170 552 154 556 108 561 c 0
 74 564 56 581 56 609 c 0
 56 630 75 648 98 648 c 0
 116 648 127 641 142 620 c 0
 169 583 182 570 208 555 c 2
 239 537 l 1
EndSplineSet
EndChar
StartChar: plus
Encoding: 43 43 12
Width: 606
Flags: W
HStem: 0 21G<263 343> 213 80<51 263 343 555>
VStem: 263 80<0 213 293 505>
Fore
263 293 m 1
 263 505 l 1
 343 505 l 1
 343 293 l 1
 555 293 l 1
 555 213 l 1
 343 213 l 1
 343 0 l 1
 263 0 l 1
 263 213 l 1
 51 213 l 1
 51 293 l 1
 263 293 l 1
EndSplineSet
EndChar
StartChar: comma
Encoding: 44 44 13
Width: 278
Flags: W
HStem: -30 20G<155 158>
VStem: 165 53<-19 9>
Fore
87 -183 m 1
 64 -155 l 1
 131 -108 165 -61 165 -19 c 0
 165 -13 163 -10 158 -10 c 2
 155 -10 l 2
 153 -11 143 -11 139 -11 c 0
 98 -11 71 12 71 48 c 0
 71 82 99 108 136 108 c 0
 185 108 218 69 218 9 c 0
 218 -61 176 -122 87 -183 c 1
EndSplineSet
KernsSLIF: 39 -12 1 0 186 -13 1 0 49 -35 1 0
EndChar
StartChar: hyphen
Encoding: 45 45 14
Width: 333
Flags: W
HStem: 195 83<42 291>
Fore
42 278 m 1
 291 278 l 1
 291 195 l 1
 42 195 l 1
 42 278 l 1
EndSplineSet
KernsSLIF: 89 -87 1 0 87 -44 1 0 86 -56 1 0 84 -74 1 0 262 -5 1 0 256 -5 1 0 257 -5 1 0 225 -9 1 0 65 -5 1 0
EndChar
StartChar: period
Encoding: 46 46 15
Width: 278
Flags: W
HStem: -14 21G<119 153.5>
Fore
137 111 m 0
 171 111 199 83 199 49 c 0
 199 14 171 -14 136 -14 c 0
 102 -14 74 14 74 49 c 0
 74 83 102 111 137 111 c 0
EndSplineSet
KernsSLIF: 39 -19 1 0 186 -20 1 0 49 -44 1 0
EndChar
StartChar: slash
Encoding: 47 47 16
Width: 278
Flags: W
HStem: -14 21G<-23 35> 716 20G<244 302>
DStem: 244 736 302 736 -23 -14 35 -14
Fore
244 736 m 1
 302 736 l 1
 35 -14 l 1
 -23 -14 l 1
 244 736 l 1
EndSplineSet
EndChar
StartChar: zero
Encoding: 48 48 17
Width: 556
Flags: W
HStem: -15 43<265 287> 661 43<265 286>
VStem: 42 111<320 370> 402 112<304 370>
Fore
284 704 m 0
 347 704 411 665 450 602 c 0
 492 533 514 445 514 339 c 0
 514 131 416 -15 276 -15 c 0
 141 -15 42 136 42 342 c 0
 42 551 144 704 284 704 c 0
277 661 m 0
 239 661 203 632 180 581 c 0
 160 538 153 479 153 363 c 0
 153 200 161 137 189 90 c 0
 213 50 245 28 278 28 c 0
 316 28 352 58 375 107 c 0
 395 151 402 217 402 357 c 0
 402 494 393 553 366 599 c 0
 342 639 310 661 277 661 c 0
EndSplineSet
KernsSLIF: 55 -11 1 0 49 -52 1 0 52 4 1 0
EndChar
StartChar: one
Encoding: 49 49 18
Width: 556
Flags: W
HStem: 0 47<100 496> 587 43<104 125.918> 684 20G<322 358>
VStem: 254 97<79 545>
Fore
322 704 m 1
 358 704 l 1
 353 633 351 585 351 536 c 2
 351 123 l 2
 351 68 351 68 358 61 c 0
 366 51 388 47 441 47 c 2
 496 47 l 1
 496 0 l 1
 100 0 l 1
 100 47 l 1
 165 47 l 2
 245 47 254 52 254 94 c 2
 254 123 l 1
 254 524 l 2
 254 583 250 587 192 587 c 2
 104 587 l 1
 104 630 l 1
 196 632 288 663 322 704 c 1
EndSplineSet
KernsSLIF: 48 -50 1 0 50 -2 1 0 51 -27 1 0 54 -50 1 0 55 -83 1 0 46 -22 1 0 49 -35 1 0 57 -23 1 0 52 -56 1 0 53 -29 1 0 56 -31 1 0 44 -20 1 0
EndChar
StartChar: two
Encoding: 50 50 19
Width: 556
Flags: W
HStem: 0 94<144 486> 661 43<254 276>
VStem: 51 67<516 558> 388 113<507 528>
Fore
505 216 m 1
 486 0 l 1
 35 0 l 1
 35 28 l 1
 79 86 97 109 133 151 c 1
 211 235 l 1
 270 297 l 2
 353 385 388 452 388 526 c 0
 388 610 338 661 256 661 c 0
 209 661 167 643 142 613 c 0
 128 596 118 573 118 558 c 0
 118 545 120 544 157 528 c 0
 179 519 193 496 193 471 c 0
 193 435 168 410 131 410 c 0
 83 410 51 453 51 516 c 0
 51 622 149 704 276 704 c 0
 406 704 501 622 501 509 c 0
 501 461 485 416 453 372 c 0
 430 342 391 307 300 237 c 0
 236 187 213 166 144 94 c 1
 368 94 l 2
 430 94 438 101 451 165 c 1
 461 216 l 1
 505 216 l 1
EndSplineSet
KernsSLIF: 55 -13 1 0 49 -37 1 0 52 5 1 0
EndChar
StartChar: three
Encoding: 51 51 20
Width: 556
Flags: W
HStem: -15 43<233 267> 340 49<202 265> 342 47<245 283> 474 21G<116 152.5> 661 43<257 283>
VStem: 42 135<149 174> 69 125<530 546> 375 104<512 546> 387 111<172 210>
Fore
346 368 m 1xdb
 449 339 498 282 498 188 c 0
 498 65 403 -15 259 -15 c 0
 131 -15 42 52 42 149 c 0
 42 201 71 237 113 237 c 0
 150 237 177 210 177 174 c 0
 177 149 166 132 138 115 c 0
 118 104 116 102 116 93 c 0
 116 62 184 28 247 28 c 0
 336 28 387 87 387 190 c 0
 387 289 347 342 273 342 c 0xbc80
 265 342 264 342 226 341 c 0
 213 340 205 340 202 340 c 0
 182 340 171 348 171 365 c 0
 171 383 182 392 203 392 c 0
 209 392 217 392 225 391 c 0
 240 390 256 389 265 389 c 0
 337 389 375 438 375 531 c 0
 375 616 337 661 265 661 c 0
 209 661 150 631 150 603 c 0
 150 597 153 592 163 585 c 0
 186 569 194 555 194 534 c 0
 194 498 170 474 135 474 c 0
 97 474 69 503 69 544 c 0
 69 635 158 704 275 704 c 0
 399 704 479 636 479 532 c 0
 479 461 439 405 369 376 c 0
 362 373 360 373 346 368 c 1xdb
EndSplineSet
KernsSLIF: 55 -26 1 0 49 -47 1 0 52 2 1 0
EndChar
StartChar: four
Encoding: 52 52 21
Width: 556
Flags: W
HStem: 0 47<208 500> 175 56<89 309 406 527> 684 20G<368 411>
VStem: 309 97<94 175 231 534>
DStem: 368 704 309 534 28 231 89 231
Fore
368 704 m 1
 411 704 l 1
 406 629 406 629 406 504 c 2
 406 231 l 1
 527 231 l 1
 527 175 l 1
 406 175 l 1
 406 123 l 1
 406 94 l 2
 406 52 415 47 496 47 c 2
 500 47 l 1
 500 0 l 1
 208 0 l 1
 208 47 l 1
 219 47 l 2
 300 47 309 52 309 94 c 2
 309 123 l 1
 309 175 l 1
 28 175 l 1
 28 231 l 1
 368 704 l 1
309 231 m 1
 309 534 l 1
 89 231 l 1
 309 231 l 1
EndSplineSet
KernsSLIF: 55 -45 1 0 49 -33 1 0 52 16 1 0
EndChar
StartChar: five
Encoding: 53 53 22
Width: 556
Flags: W
HStem: -15 43<236 254> 401 50<250 276> 574 100<284 326> 684 20G<470.5 474.5>
VStem: 45 135<149 171> 393 109<208 242>
Fore
164 591 m 1
 147 421 l 1
 202 444 234 451 276 451 c 0
 411 451 502 360 502 224 c 0
 502 77 403 -15 246 -15 c 0
 194 -15 153 -4 119 18 c 0
 74 49 45 99 45 149 c 0
 45 196 77 233 117 233 c 0
 153 233 180 206 180 171 c 0
 180 144 171 131 140 112 c 0
 128 105 122 97 122 90 c 0
 122 59 184 28 244 28 c 0
 285 28 326 42 346 63 c 0
 376 94 393 151 393 218 c 0
 393 332 339 401 250 401 c 0
 210 401 177 390 142 365 c 1
 138 325 122 304 97 304 c 0
 78 304 65 318 65 338 c 0
 65 354 72 367 93 389 c 1
 107 513 116 620 120 704 c 1
 225 679 262 674 326 674 c 0
 383 674 410 679 459 700 c 0
 464 703 469 704 472 704 c 0
 477 704 480 701 480 695 c 0
 480 687 476 678 465 659 c 0
 432 604 370 574 285 574 c 0
 246 574 218 578 164 591 c 1
EndSplineSet
KernsSLIF: 55 -36 1 0 49 -63 1 0 52 4 1 0
EndChar
StartChar: six
Encoding: 54 54 23
Width: 556
Flags: W
HStem: -15 43<281 299> 369 61<291 318> 661 43<318 347>
VStem: 42 118<203 308> 371 127<570 584> 407 109<202 242>
Fore
153 340 m 1xf8
 200 403 250 430 318 430 c 0
 431 430 516 342 516 224 c 0xf4
 516 161 490 95 447 51 c 0
 405 7 351 -15 286 -15 c 0
 138 -15 42 113 42 308 c 0
 42 417 73 521 127 598 c 0
 175 665 252 704 334 704 c 0
 428 704 498 653 498 584 c 0
 498 542 470 512 432 512 c 0
 397 512 371 537 371 571 c 0
 371 585 376 599 386 618 c 0
 390 625 391 628 391 632 c 0
 391 650 370 661 335 661 c 0
 272 661 219 620 190 549 c 0
 168 498 163 465 153 340 c 1xf8
291 369 m 0
 210 369 160 306 160 203 c 0
 160 166 168 132 184 101 c 0
 208 53 243 28 288 28 c 0
 361 28 407 102 407 217 c 0
 407 312 363 369 291 369 c 0
EndSplineSet
KernsSLIF: 55 -20 1 0 49 -36 1 0 52 11 1 0
EndChar
StartChar: seven
Encoding: 55 55 24
Width: 556
Flags: W
HStem: -14 21G<247.5 291> 603 91<314 427>
VStem: 204 129<60 105>
DStem: 90 704 121 534 59 462 103 455
Fore
59 462 m 5
 90 704 l 5
 199 697 267 694 352 694 c 4
 413 694 446 695 508 700 c 5
 508 671 l 5
 502 658 499 649 498 647 c 6
 453 553 l 5
 347 319 328 248 333 105 c 1
 334 19 315 -14 267 -14 c 0
 228 -14 204 15 204 60 c 0
 204 102 221 165 251 240 c 0
 276 301 284 318 359 467 c 5
 427 604 l 5
 400 603 379 603 365 603 c 4
 324 603 252 606 194 609 c 4
 186 610 177 610 172 610 c 4
 143 610 136 600 121 534 c 6
 103 455 l 5
 59 462 l 5
EndSplineSet
KernsSLIF: 50 -31 1 0 51 -31 1 0 54 -39 1 0 55 -21 1 0 46 -70 1 0 49 -39 1 0 52 -77 1 0 53 -38 1 0 56 -39 1 0 44 -68 1 0 58 -76 1 0
EndChar
StartChar: eight
Encoding: 56 56 25
Width: 556
Flags: W
HStem: -15 43<264 288> 661 43<264 298>
VStem: 41 83<168 178> 74 77<513 555> 410 74<528 557> 433 80<159 201>
Fore
374 390 m 1xd8
 412 373 430 362 450 345 c 0
 491 309 513 258 513 201 c 0
 513 140 487 79 444 42 c 0
 403 5 341 -15 267 -15 c 0
 203 -15 149 0 110 28 c 0
 68 60 41 114 41 168 c 0xe4
 41 219 63 267 102 299 c 0
 124 317 143 327 187 344 c 1
 151 363 135 374 118 394 c 0
 90 425 74 470 74 513 c 0
 74 623 163 704 285 704 c 0
 400 704 484 637 484 545 c 0
 484 480 449 431 374 390 c 1xd8
267 429 m 2
 333 405 l 1
 390 453 410 487 410 539 c 0
 410 612 359 661 282 661 c 0
 203 661 151 618 151 555 c 0xd8
 151 497 186 459 267 429 c 2
325 291 m 2
 233 324 l 1
 155 288 124 243 124 168 c 0
 124 80 179 28 272 28 c 0
 370 28 433 79 433 159 c 0xe4
 433 225 401 264 325 291 c 2
EndSplineSet
KernsSLIF: 55 -24 1 0 49 -44 1 0 52 9 1 0
EndChar
StartChar: nine
Encoding: 57 57 26
Width: 556
Flags: W
HStem: -15 43<214 237> 256 60<237 267> 661 43<262 280>
VStem: 39 109<461 483> 57 127<101 114> 395 118<374 475>
Fore
404 347 m 1xec
 350 279 308 256 237 256 c 0
 123 256 39 344 39 463 c 0xf4
 39 598 140 704 268 704 c 0
 417 704 513 575 513 374 c 0
 513 271 486 174 437 100 c 0
 388 26 310 -15 219 -15 c 0
 127 -15 57 35 57 101 c 0
 57 141 87 173 125 173 c 0
 158 173 184 147 184 114 c 0
 184 100 182 94 170 70 c 0
 166 62 164 57 164 53 c 0
 164 38 187 28 220 28 c 0
 287 28 342 71 368 145 c 0
 386 196 391 226 404 347 c 1xec
272 661 m 0
 228 661 201 645 178 606 c 0
 159 576 148 529 148 481 c 0
 148 375 191 316 267 316 c 0
 310 316 349 338 372 374 c 0
 387 397 395 434 395 475 c 0
 395 587 346 661 272 661 c 0
EndSplineSet
KernsSLIF: 55 -9 1 0 49 -49 1 0
EndChar
StartChar: colon
Encoding: 58 58 27
Width: 278
Flags: W
HStem: -14 125<146 151> 348 125<146 151>
Fore
149 111 m 0
 183 111 211 83 211 49 c 0
 211 14 183 -14 148 -14 c 0
 114 -14 86 14 86 49 c 0
 86 83 114 111 149 111 c 0
149 473 m 0
 183 473 211 445 211 411 c 0
 211 376 183 348 148 348 c 0
 114 348 86 376 86 411 c 0
 86 445 114 473 149 473 c 0
EndSplineSet
EndChar
StartChar: semicolon
Encoding: 59 59 28
Width: 278
Flags: W
HStem: -11 119<135 153> 347 125<142 152>
VStem: 173 53<-19 9>
Fore
95 -183 m 1
 72 -155 l 1
 139 -108 173 -61 173 -19 c 0
 173 -13 171 -10 166 -10 c 2
 163 -10 l 2
 161 -11 151 -11 147 -11 c 0
 106 -11 79 12 79 48 c 0
 79 82 107 108 144 108 c 0
 193 108 226 69 226 9 c 0
 226 -61 184 -122 95 -183 c 1
150 472 m 0
 184 472 212 444 212 410 c 0
 212 375 184 347 149 347 c 0
 115 347 87 375 87 410 c 0
 87 444 115 472 150 472 c 0
EndSplineSet
EndChar
StartChar: less
Encoding: 60 60 29
Width: 606
Flags: W
DStem: 49 215 160 253 558 -17 558 68 558 523 558 438 49 291 160 253
Fore
558 438 m 1
 160 253 l 1
 558 68 l 1
 558 -17 l 1
 49 215 l 1
 49 291 l 1
 558 523 l 1
 558 438 l 1
EndSplineSet
EndChar
StartChar: equal
Encoding: 61 61 30
Width: 606
Flags: W
HStem: 112 80<51 555> 314 80<51 555>
Fore
51 112 m 1
 51 192 l 1
 555 192 l 1
 555 112 l 1
 51 112 l 1
51 314 m 1
 51 394 l 1
 555 394 l 1
 555 314 l 1
 51 314 l 1
EndSplineSet
EndChar
StartChar: greater
Encoding: 62 62 31
Width: 606
Flags: W
DStem: 48 438 48 523 446 253 557 291 446 253 557 215 48 68 48 -17
Fore
48 438 m 1
 48 523 l 1
 557 291 l 1
 557 215 l 1
 48 -17 l 1
 48 68 l 1
 446 253 l 1
 48 438 l 1
EndSplineSet
EndChar
StartChar: question
Encoding: 63 63 32
Width: 444
Flags: W
HStem: -15 125<184 202> 691 45<194 220>
VStem: 25 122<566 588> 173 44<191 225> 306 105<560 578>
Fore
217 191 m 1
 173 191 l 1
 173 223 l 2
 173 270 177 296 187 324 c 0
 200 359 200 359 274 460 c 0
 294 489 306 527 306 568 c 0
 306 645 265 691 194 691 c 0
 146 691 102 667 102 641 c 0
 102 633 103 631 118 619 c 0
 137 603 147 586 147 566 c 0
 147 535 122 511 90 511 c 0
 53 511 25 544 25 588 c 0
 25 674 107 736 220 736 c 0
 334 736 411 666 411 562 c 0
 411 492 389 458 291 371 c 1
 227 316 216 289 217 191 c 1
193 110 m 0
 227 110 255 82 255 48 c 0
 255 13 227 -15 192 -15 c 0
 158 -15 130 13 130 48 c 0
 130 82 158 110 193 110 c 0
EndSplineSet
EndChar
StartChar: at
Encoding: 64 64 33
Width: 737
Flags: W
HStem: -14 51<375 412> 153 40<301 316> 502 41<377 391> 685 51<375 412>
VStem: 43 56<337 387> 176 90<271 302> 408 74<209 227> 653 52<417 437>
Fore
637 188 m 1
 698 188 l 1
 679 144 649 105 606 66 c 0
 547 14 471 -14 391 -14 c 0
 194 -14 43 146 43 356 c 0
 43 464 80 563 146 632 c 0
 209 697 300 736 389 736 c 0
 563 736 705 601 705 435 c 0
 705 344 664 254 596 198 c 0
 557 165 514 147 477 147 c 0
 436 147 408 173 408 212 c 0
 408 219 408 224 409 232 c 1
 370 174 341 153 301 153 c 0
 268 153 232 171 209 198 c 0
 187 224 176 260 176 302 c 0
 176 363 199 424 240 471 c 0
 279 514 333 543 377 543 c 0
 415 543 443 519 455 478 c 1
 471 534 l 1
 559 534 l 1
 486 245 l 2
 483 233 482 223 482 215 c 0
 482 201 493 191 508 191 c 0
 534 191 570 218 600 260 c 0
 632 306 653 373 653 428 c 0
 653 496 622 567 570 616 c 0
 522 662 464 685 394 685 c 0
 223 685 99 549 99 361 c 0
 99 172 224 37 399 37 c 0
 498 37 581 89 637 188 c 1
391 502 m 0
 368 502 345 487 328 460 c 0
 291 403 266 327 266 271 c 0
 266 222 284 193 314 193 c 0
 345 193 376 225 400 280 c 0
 421 327 436 391 436 430 c 0
 436 474 419 502 391 502 c 0
EndSplineSet
EndChar
StartChar: A
Encoding: 65 65 34
Width: 722
Flags: W
HStem: 0 47<-8 257 421 731> 234 54<218 463> 716 20G<336 378>
DStem: 329 572 378 736 442 288 633 111 336 736 329 572 106 153 218 288 336 736 198 234 106 153 165 146 463 234 378 736 517 100 633 111
Fore
378 736 m 1
 633 111 l 2
 656 55 667 47 717 47 c 2
 731 47 l 1
 731 0 l 1
 421 0 l 1
 421 47 l 1
 463 47 l 2
 500 47 525 57 525 73 c 0
 525 78 523 85 517 100 c 2
 463 234 l 1
 198 234 l 1
 165 146 l 2
 159 130 156 116 156 104 c 0
 156 66 183 47 237 47 c 2
 257 47 l 1
 257 0 l 1
 -8 0 l 1
 -8 47 l 1
 -4 47 l 2
 23 47 51 59 67 78 c 0
 82 94 86 101 106 153 c 1
 336 736 l 1
 378 736 l 1
329 572 m 1
 218 288 l 1
 442 288 l 1
 329 572 l 1
EndSplineSet
KernsSLIF: 121 -70 0 0 119 -61 0 0 118 -66 0 0 117 -15 0 0 116 -12 0 0 39 -66 0 0 186 -67 0 0 46 12 0 0 111 -9 0 0 45 -6 0 0 172 -36 0 0 171 -36 0 0 103 18 0 0 101 -5 0 0 100 -6 0 0 44 13 0 0 332 -9 0 0 99 -2 0 0 98 8 0 0 97 15 0 0 89 -45 0 0 87 -90 0 0 86 -101 0 0 300 -41 0 0 298 -41 0 0 301 -41 0 0 299 -41 0 0 85 -41 0 0 84 -31 0 0 81 -39 0 0 286 -41 0 0 79 -41 0 0 71 -37 0 0 264 -43 0 0 67 -38 0 0
EndChar
StartChar: B
Encoding: 66 66 35
Width: 722
Flags: W
HStem: 0 47<30 393> 350 47<250 367> 675 47<30 79 30 383>
VStem: 138 112<92 350 123 641> 516 116<531 548> 547 123<191 209>
Fore
30 722 m 1xf4
 389 722 l 2
 448 722 498 714 534 698 c 0
 592 673 632 610 632 546 c 0xf8
 632 495 607 446 565 415 c 0
 540 396 518 387 470 377 c 1
 606 353 670 295 670 196 c 0
 670 74 566 0 393 0 c 2
 30 0 l 1
 30 47 l 1
 48 47 l 2
 129 47 138 52 138 94 c 2
 138 123 l 1
 138 599 l 1
 138 628 l 2
 138 670 129 675 48 675 c 2
 30 675 l 1
 30 722 l 1xf4
250 397 m 1
 339 397 l 2
 467 397 516 435 516 533 c 0
 516 589 497 632 461 654 c 0
 440 668 402 675 356 675 c 2
 316 675 l 2
 264 675 250 664 250 625 c 2
 250 397 l 1
250 350 m 1
 250 110 l 2
 250 55 257 47 308 47 c 2
 350 47 l 2
 413 47 455 54 486 70 c 0
 525 89 547 136 547 199 c 0xf4
 547 265 522 309 475 331 c 0
 445 344 402 350 338 350 c 2
 250 350 l 1
EndSplineSet
KernsSLIF: 89 -19 0 0 87 -33 0 0 86 -26 0 0 233 -9 0 0 288 -11 0 0 286 -11 0 0 289 -11 0 0 287 -11 0 0 79 -11 0 0 261 -9 0 0 262 -9 0 0 256 -9 0 0 259 -9 0 0 257 -9 0 0 225 -13 0 0 65 -9 0 0
EndChar
StartChar: C
Encoding: 67 67 36
Width: 722
Flags: W
HStem: -15 47<380 397> 690 47<364 397>
VStem: 45 132<336 386>
Fore
639 729 m 1
 654 440 l 1
 610 440 l 1
 587 517 572 556 553 589 c 0
 515 653 453 690 383 690 c 0
 319 690 257 655 226 599 c 0
 192 539 177 463 177 350 c 0
 177 135 247 32 395 32 c 0
 476 32 540 67 581 136 c 0
 599 166 611 202 621 255 c 1
 668 247 l 1
 645 79 543 -15 383 -15 c 0
 186 -15 45 139 45 354 c 0
 45 457 75 541 139 617 c 0
 207 698 287 737 384 737 c 0
 451 737 490 722 561 670 c 1
 601 729 l 1
 639 729 l 1
EndSplineSet
KernsSLIF: 286 -6 0 0 287 -6 0 0 79 -6 0 0 75 -9 0 0 72 -9 0 0 262 -24 0 0 256 -24 0 0 257 -24 0 0 225 -28 0 0 65 -24 0 0
EndChar
StartChar: D
Encoding: 68 68 37
Width: 778
Flags: W
HStem: 0 47<29 398> 675 47<29 78 29 382>
VStem: 137 112<79 641> 600 132<335 385>
Fore
137 123 m 1
 137 599 l 1
 137 628 l 2
 137 670 128 675 48 675 c 2
 29 675 l 1
 29 722 l 1
 347 722 l 2
 461 722 535 706 590 671 c 0
 682 611 732 502 732 365 c 0
 732 215 676 101 575 44 c 0
 522 14 454 0 365 0 c 2
 29 0 l 1
 29 47 l 1
 48 47 l 2
 128 47 137 52 137 94 c 2
 137 123 l 1
306 47 m 2
 374 47 l 2
 535 47 600 137 600 361 c 0
 600 582 529 675 358 675 c 2
 306 675 l 2
 256 675 249 668 249 619 c 2
 249 102 l 2
 249 53 256 47 306 47 c 2
EndSplineSet
KernsSLIF: 89 -34 0 0 88 -37 0 0 87 -47 0 0 86 -41 0 0 84 10 0 0 74 6 0 0 261 -38 0 0 262 -38 0 0 258 -38 0 0 256 -38 0 0 259 -38 0 0 257 -38 0 0 65 -38 0 0
EndChar
StartChar: E
Encoding: 69 69 38
Width: 722
Flags: W
HStem: 0 47<29 643> 466 256<29 644> 675 47<29 398>
VStem: 137 112<79 350 123 640>
Fore
630 722 m 1xd0
 644 466 l 1
 601 466 l 1xd0
 586 556 562 612 529 638 c 0
 495 666 452 675 364 675 c 2
 312 675 l 2
 258 675 249 668 249 625 c 2
 249 397 l 1
 273 397 l 2
 368 397 408 436 413 534 c 1
 460 534 l 1
 460 206 l 1
 413 206 l 1
 411 265 401 297 375 323 c 0
 355 344 330 350 269 350 c 2
 249 350 l 1
 249 95 l 2
 249 74 250 68 257 62 c 0
 266 53 291 47 321 47 c 2
 387 47 l 2
 471 47 528 66 559 106 c 0
 583 135 606 197 619 267 c 1
 663 267 l 1
 643 0 l 1
 29 0 l 1
 29 47 l 1
 47 47 l 2
 128 47 137 52 137 94 c 2
 137 123 l 1
 137 599 l 1
 137 628 l 2
 137 670 128 675 47 675 c 2
 29 675 l 1xb0
 29 722 l 1
 630 722 l 1xd0
EndSplineSet
EndChar
StartChar: F
Encoding: 70 70 39
Width: 667
Flags: W
HStem: 0 47<29 372> 466 256<29 638> 675 47<29 398>
VStem: 137 112<94 350 123 641>
Fore
624 722 m 1xd0
 638 466 l 1
 594 466 l 1xd0
 566 637 523 675 358 675 c 2
 312 675 l 2
 258 675 249 668 249 625 c 2
 249 397 l 1
 273 397 l 2
 368 397 408 436 413 534 c 1
 460 534 l 1
 460 206 l 1
 413 206 l 1
 411 265 401 297 376 323 c 0
 355 344 331 350 269 350 c 2
 249 350 l 1
 249 123 l 1
 249 94 l 2
 249 52 258 47 339 47 c 2
 372 47 l 1
 372 0 l 1
 29 0 l 1
 29 47 l 1
 47 47 l 2
 128 47 137 52 137 94 c 2
 137 123 l 1
 137 599 l 1
 137 628 l 2
 137 670 128 675 47 675 c 2
 29 675 l 1xb0
 29 722 l 1
 624 722 l 1xd0
EndSplineSet
KernsSLIF: 117 14 0 0 114 10 0 0 46 -94 0 0 249 -45 0 0 250 -40 0 0 351 -29 0 0 352 -41 0 0 111 -41 0 0 106 14 0 0 105 11 0 0 45 -40 0 0 335 -42 0 0 101 -42 0 0 44 -93 0 0 328 -36 0 0 241 -33 0 0 322 -36 0 0 323 -36 0 0 97 -36 0 0 286 2 0 0 79 2 0 0 74 -57 0 0 261 -77 0 0 262 -77 0 0 258 -77 0 0 256 -77 0 0 259 -77 0 0 257 -77 0 0 65 -77 0 0
EndChar
StartChar: G
Encoding: 71 71 40
Width: 778
Flags: W
HStem: -15 47<377 394> 282 47<454 507 454 772> 690 47<377 395>
VStem: 42 132<348 370> 564 103<204 242>
Fore
650 729 m 1
 664 448 l 1
 621 448 l 1
 580 608 501 690 387 690 c 0
 248 690 174 571 174 348 c 0
 174 241 190 170 227 115 c 0
 261 65 326 32 390 32 c 0
 455 32 519 66 544 115 c 0
 556 139 564 179 564 222 c 0
 564 277 557 282 473 282 c 2
 454 282 l 1
 454 329 l 1
 772 329 l 1
 772 282 l 1
 757 282 l 2
 703 282 682 278 673 268 c 0
 667 261 667 260 667 206 c 2
 667 -14 l 1
 625 -14 l 1
 588 76 l 1
 523 11 464 -15 380 -15 c 0
 284 -15 192 26 130 96 c 0
 72 161 42 246 42 348 c 0
 42 483 88 584 187 664 c 0
 250 715 312 737 391 737 c 0
 464 737 508 720 573 668 c 1
 612 729 l 1
 650 729 l 1
EndSplineSet
KernsSLIF: 89 -10 0 0 87 -20 0 0 86 -13 0 0 84 -12 0 0 261 -6 0 0 262 -6 0 0 258 -6 0 0 256 -6 0 0 259 -6 0 0 257 -6 0 0 225 -10 0 0 65 -6 0 0
EndChar
StartChar: H
Encoding: 72 72 41
Width: 833
Flags: W
HStem: 0 47<29 358 476 804> 347 54<249 584> 675 47<29 78 29 358 480 526 480 804>
VStem: 137 112<94 347 123 641> 584 112<94 347 401 641>
Fore
584 347 m 1
 249 347 l 1
 249 123 l 1
 249 94 l 2
 249 52 258 47 339 47 c 2
 358 47 l 1
 358 0 l 1
 29 0 l 1
 29 47 l 1
 47 47 l 2
 128 47 137 52 137 94 c 2
 137 123 l 1
 137 599 l 1
 137 628 l 2
 137 670 128 675 47 675 c 2
 29 675 l 1
 29 722 l 1
 358 722 l 1
 358 675 l 1
 339 675 l 2
 258 675 249 670 249 628 c 2
 249 599 l 1
 249 401 l 1
 584 401 l 1
 584 599 l 1
 584 628 l 2
 584 670 575 675 494 675 c 2
 480 675 l 1
 480 722 l 1
 804 722 l 1
 804 675 l 1
 786 675 l 2
 705 675 696 670 696 628 c 2
 696 599 l 1
 696 123 l 1
 696 94 l 2
 696 52 705 47 786 47 c 2
 804 47 l 1
 804 0 l 1
 476 0 l 1
 476 47 l 1
 494 47 l 2
 575 47 584 52 584 94 c 2
 584 123 l 1
 584 347 l 1
EndSplineSet
EndChar
StartChar: I
Encoding: 73 73 42
Width: 407
Flags: W
HStem: 0 47<38 369> 675 47<38 87 38 369>
VStem: 148 112<94 641>
Fore
260 599 m 1
 260 123 l 1
 260 94 l 2
 260 52 269 47 349 47 c 2
 369 47 l 1
 369 0 l 1
 38 0 l 1
 38 47 l 1
 58 47 l 2
 139 47 148 52 148 94 c 2
 148 123 l 1
 148 599 l 1
 148 628 l 2
 148 670 139 675 58 675 c 2
 38 675 l 1
 38 722 l 1
 369 722 l 1
 369 675 l 1
 349 675 l 2
 269 675 260 670 260 628 c 2
 260 599 l 1
EndSplineSet
EndChar
StartChar: J
Encoding: 74 74 43
Width: 556
Flags: W
HStem: -15 47<178 204> 133 144<100 119> 675 47<209 262 209 537>
VStem: 5 60<122 155> 317 111<224 642>
Fore
428 599 m 1
 428 268 l 2
 428 171 417 110 391 70 c 0
 356 14 292 -15 204 -15 c 0
 143 -15 96 -1 63 28 c 0
 27 58 5 107 5 155 c 0
 5 226 47 277 105 277 c 0
 149 277 180 247 180 205 c 0
 180 164 153 133 117 133 c 0
 106 133 97 134 80 138 c 2
 77 138 l 2
 70 138 65 131 65 122 c 0
 65 110 73 90 84 76 c 0
 105 49 144 32 186 32 c 0
 244 32 285 62 304 119 c 0
 314 149 317 189 317 277 c 2
 317 599 l 1
 317 628 l 2
 317 670 308 675 228 675 c 2
 209 675 l 1
 209 722 l 1
 537 722 l 1
 537 675 l 1
 518 675 l 2
 437 675 428 670 428 628 c 2
 428 599 l 1
EndSplineSet
KernsSLIF: 262 -42 0 0 256 -42 0 0 225 -46 0 0 65 -42 0 0
EndChar
StartChar: K
Encoding: 75 75 44
Width: 778
Flags: W
HStem: 0 47<30 359 461 803> 675 47<30 79 30 359 454 498 454 762>
VStem: 138 112<94 250 123 645>
DStem: 366 367 444 446 540 112 686 97 495 573 593 595 250 327 444 446 495 573 366 367 250 327 250 250
Fore
250 327 m 1
 495 573 l 2
 524 602 544 631 544 645 c 0
 544 666 525 675 479 675 c 2
 454 675 l 1
 454 722 l 1
 762 722 l 1
 762 675 l 1
 702 675 641 646 593 595 c 1
 444 446 l 1
 686 97 l 1
 715 54 729 47 784 47 c 2
 803 47 l 1
 803 0 l 1
 461 0 l 1
 461 47 l 1
 492 47 l 2
 541 47 560 54 560 70 c 0
 560 80 556 88 540 112 c 2
 366 367 l 1
 250 250 l 1
 250 123 l 1
 250 94 l 2
 250 52 259 47 340 47 c 2
 359 47 l 1
 359 0 l 1
 30 0 l 1
 30 47 l 1
 48 47 l 2
 129 47 138 52 138 94 c 2
 138 123 l 1
 138 599 l 1
 138 628 l 2
 138 670 129 675 48 675 c 2
 30 675 l 1
 30 722 l 1
 359 722 l 1
 359 675 l 1
 340 675 l 2
 259 675 250 670 250 628 c 2
 250 599 l 1
 250 327 l 1
EndSplineSet
KernsSLIF: 121 -67 0 0 362 -7 0 0 117 -7 0 0 351 -1 0 0 352 -1 0 0 111 -1 0 0 45 -30 0 0 101 2 0 0 328 23 0 0 241 28 0 0 322 23 0 0 97 23 0 0 84 21 0 0 83 30 0 0 286 -33 0 0 287 -33 0 0 234 -23 0 0 79 -33 0 0 71 -29 0 0 67 -30 0 0
EndChar
StartChar: L
Encoding: 76 76 45
Width: 667
Flags: W
HStem: 0 47<35 625> 675 47<35 84 35 363>
VStem: 143 112<79 641>
Fore
646 274 m 1
 625 0 l 1
 35 0 l 1
 35 47 l 1
 53 47 l 2
 134 47 143 52 143 94 c 2
 143 123 l 1
 143 599 l 1
 143 628 l 2
 143 670 134 675 53 675 c 2
 35 675 l 1
 35 722 l 1
 363 722 l 1
 363 675 l 1
 345 675 l 2
 264 675 255 670 255 628 c 2
 255 599 l 1
 255 95 l 2
 255 74 256 68 263 62 c 0
 272 53 297 47 327 47 c 2
 369 47 l 2
 453 47 511 66 542 105 c 0
 568 138 592 206 602 274 c 1
 646 274 l 1
EndSplineSet
KernsSLIF: 121 -37 0 0 362 -8 0 0 117 -8 0 0 39 -46 0 0 186 -47 0 0 45 49 0 0 89 -69 0 0 87 -69 0 0 86 -80 0 0 298 -27 0 0 85 -27 0 0 84 -51 0 0 83 8 0 0 290 6 0 0 288 6 0 0 286 6 0 0 289 6 0 0 287 6 0 0 79 6 0 0 71 9 0 0 264 6 0 0 67 7 0 0 262 29 0 0 256 29 0 0 257 29 0 0 225 25 0 0 65 29 0 0
EndChar
StartChar: M
Encoding: 77 77 46
Width: 944
Flags: W
HStem: 0 47<585 913> 675 47<29 87 662 913>
VStem: 138 54<216 641> 693 112<94 641>
DStem: 192 658 287 722 430 0 479 189 662 722 693 658 479 189 470 0
Fore
287 722 m 1
 479 189 l 1
 662 722 l 1
 913 722 l 1
 913 675 l 1
 895 675 l 2
 814 675 805 670 805 628 c 2
 805 599 l 1
 805 123 l 1
 805 94 l 2
 805 51 814 47 895 47 c 2
 913 47 l 1
 913 0 l 1
 585 0 l 1
 585 47 l 1
 603 47 l 2
 684 47 693 51 693 94 c 2
 693 123 l 1
 693 658 l 1
 470 0 l 1
 430 0 l 1
 192 658 l 1
 192 216 l 2
 192 80 212 51 307 47 c 1
 307 0 l 1
 22 0 l 1
 22 47 l 1
 118 51 138 80 138 216 c 2
 138 599 l 1
 138 628 l 2
 138 670 129 675 48 675 c 2
 29 675 l 1
 29 722 l 1
 287 722 l 1
EndSplineSet
EndChar
StartChar: N
Encoding: 78 78 47
Width: 815
Flags: W
HStem: -14 21G<636 678> 675 47<19 68>
VStem: 136 54<217 588> 624 54<191 547>
DStem: 190 588 225 722 636 -14 624 191
Fore
225 722 m 1
 624 191 l 1
 624 505 l 2
 624 642 604 671 509 675 c 1
 509 722 l 1
 794 722 l 1
 794 675 l 1
 698 671 678 642 678 505 c 2
 678 -14 l 1
 636 -14 l 1
 190 588 l 1
 190 217 l 2
 190 80 210 51 305 47 c 1
 305 0 l 1
 20 0 l 1
 20 47 l 1
 116 51 136 80 136 217 c 2
 136 642 l 1
 118 667 95 675 44 675 c 2
 19 675 l 1
 19 722 l 1
 225 722 l 1
EndSplineSet
KernsSLIF: 362 -39 0 0 117 -39 0 0 46 -25 0 0 249 -28 0 0 351 -29 0 0 352 -29 0 0 111 -29 0 0 335 -29 0 0 101 -29 0 0 44 -24 0 0 328 -37 0 0 241 -32 0 0 322 -37 0 0 323 -37 0 0 97 -37 0 0 286 -26 0 0 287 -26 0 0 79 -26 0 0 71 -24 0 0 264 -26 0 0 67 -26 0 0 262 -19 0 0 256 -19 0 0 257 -19 0 0 225 -23 0 0 65 -19 0 0
EndChar
StartChar: O
Encoding: 79 79 48
Width: 778
Flags: W
HStem: -15 47<389 398> 690 47<380 398>
VStem: 45 132<336 386> 601 132<361 386>
Fore
393 737 m 0
 585 737 733 573 733 361 c 0
 733 147 585 -15 389 -15 c 0
 194 -15 45 147 45 360 c 0
 45 474 90 582 167 653 c 0
 228 709 304 737 393 737 c 0
392 690 m 0
 317 690 264 662 227 604 c 0
 190 544 177 483 177 363 c 0
 177 239 189 179 227 118 c 0
 263 62 318 32 389 32 c 0
 460 32 515 62 551 118 c 0
 588 178 601 239 601 361 c 0
 601 483 588 545 551 604 c 0
 515 659 459 690 392 690 c 0
EndSplineSet
KernsSLIF: 89 -31 0 0 88 -34 0 0 87 -45 0 0 86 -38 0 0 84 10 0 0 262 -41 0 0 256 -41 0 0 257 -41 0 0 225 -45 0 0 65 -41 0 0
EndChar
StartChar: P
Encoding: 80 80 49
Width: 667
Flags: W
HStem: 0 47<28 364> 321 47<248 380> 675 47<28 77 28 397>
VStem: 136 112<94 321 123 641> 526 123<511 545>
Fore
248 321 m 1
 248 123 l 1
 248 94 l 2
 248 52 257 47 338 47 c 2
 364 47 l 1
 364 0 l 1
 28 0 l 1
 28 47 l 1
 46 47 l 2
 127 47 136 52 136 94 c 2
 136 123 l 1
 136 599 l 1
 136 628 l 2
 136 670 127 675 46 675 c 2
 28 675 l 1
 28 722 l 1
 378 722 l 2
 447 722 509 711 548 691 c 0
 614 658 649 600 649 524 c 0
 649 445 609 381 538 347 c 0
 498 328 451 321 361 321 c 2
 248 321 l 1
248 368 m 1
 369 368 l 2
 475 368 526 417 526 520 c 0
 526 626 477 675 373 675 c 2
 309 675 l 2
 254 675 248 670 248 624 c 2
 248 368 l 1
EndSplineSet
KernsSLIF: 46 -101 0 0 249 -29 0 0 250 -25 0 0 351 -25 0 0 352 -26 0 0 111 -26 0 0 45 -35 0 0 335 -26 0 0 101 -26 0 0 44 -100 0 0 328 -23 0 0 241 -20 0 0 322 -23 0 0 323 -23 0 0 97 -23 0 0 74 -56 0 0 262 -76 0 0 256 -76 0 0 257 -76 0 0 225 -84 0 0 65 -76 0 0
EndChar
StartChar: Q
Encoding: 81 81 50
Width: 778
Flags: W
HStem: -189 81<620 663> -40 20G<703 748> -15 47<372 397> 218 47<364 390> 690 47<372 397>
VStem: 45 132<360 388> 235 46<111 131> 602 132<354 388>
Fore
703 -20 m 1
 748 -20 l 1
 749 -125 700 -189 620 -189 c 0
 538 -189 488 -120 484 0 c 1
 451 -11 429 -15 395 -15 c 0
 200 -15 45 151 45 360 c 0
 45 474 93 583 175 656 c 0
 236 711 306 737 388 737 c 0
 581 737 734 574 734 369 c 0
 734 241 680 129 576 43 c 1
 610 -66 634 -108 663 -108 c 0
 688 -108 698 -84 703 -20 c 1
550 119 m 1
 588 181 602 246 602 363 c 0
 602 465 590 535 561 591 c 0
 530 653 466 690 390 690 c 0
 317 690 259 658 228 602 c 0
 194 541 177 458 177 360 c 0
 177 244 196 164 236 111 c 1
 235 119 235 126 235 129 c 0
 235 209 295 265 379 265 c 0
 463 265 524 213 550 119 c 1
480 54 m 1
 480 64 l 2
 480 162 442 218 374 218 c 0
 319 218 281 178 281 119 c 0
 281 64 320 32 386 32 c 0
 425 32 449 38 480 54 c 1
EndSplineSet
EndChar
StartChar: R
Encoding: 82 82 51
Width: 722
Flags: W
HStem: 0 47<26 354> 350 47<246 317> 675 47<26 75 26 395>
VStem: 134 112<94 350 122 642> 513 123<528 562>
Fore
246 350 m 1
 246 122 l 1
 246 94 l 2
 246 52 255 47 336 47 c 2
 354 47 l 1
 354 0 l 1
 26 0 l 1
 26 47 l 1
 44 47 l 2
 125 47 134 52 134 94 c 2
 134 122 l 1
 134 599 l 1
 134 628 l 2
 134 670 125 675 44 675 c 2
 26 675 l 1
 26 722 l 1
 372 722 l 2
 540 722 636 657 636 543 c 0
 636 442 567 384 423 364 c 1
 501 344 540 302 562 210 c 1
 578 147 l 1
 595 78 605 61 628 61 c 0
 655 61 667 91 671 160 c 1
 713 160 l 1
 710 40 671 -15 589 -15 c 0
 510 -15 473 31 461 144 c 1
 456 195 l 1
 449 261 434 297 405 320 c 0
 383 338 343 350 304 350 c 2
 246 350 l 1
246 397 m 1
 356 397 l 2
 404 397 449 410 474 431 c 0
 500 452 513 491 513 542 c 0
 513 633 468 675 369 675 c 2
 315 675 l 2
 272 675 265 674 257 668 c 0
 247 660 246 657 246 617 c 2
 246 397 l 1
EndSplineSet
KernsSLIF: 121 -19 0 0 362 -15 0 0 363 -15 0 0 117 -15 0 0 250 14 0 0 351 13 0 0 352 13 0 0 111 13 0 0 45 30 0 0 335 15 0 0 101 15 0 0 328 11 0 0 241 15 0 0 322 11 0 0 323 11 0 0 97 11 0 0 89 -14 0 0 87 -28 0 0 86 -21 0 0 298 -22 0 0 85 -22 0 0 84 -10 0 0 286 -5 0 0 287 -5 0 0 234 6 0 0 79 -5 0 0 264 -5 0 0 67 -3 0 0
EndChar
StartChar: S
Encoding: 83 83 52
Width: 630
Flags: W
HStem: -15 46<322 372> 468 21G<515 558> 689 48<267 308>
VStem: 68 78<528 571> 512 78<171 205>
Fore
546 728 m 1
 558 468 l 1
 515 468 l 1
 502 519 484 561 455 602 c 0
 415 659 358 689 288 689 c 0
 203 689 146 641 146 571 c 0
 146 510 188 471 277 448 c 2
 384 421 l 2
 464 401 503 384 530 358 c 0
 569 320 590 267 590 205 c 0
 590 71 496 -15 349 -15 c 0
 262 -15 206 5 139 60 c 1
 94 -8 l 1
 55 -8 l 1
 51 277 l 1
 94 277 l 1
 109 200 130 153 172 106 c 0
 219 54 272 31 346 31 c 0
 401 31 434 42 467 71 c 0
 497 98 512 131 512 171 c 0
 512 210 496 243 466 266 c 0
 445 282 438 284 364 303 c 2
 269 327 l 2
 122 365 68 419 68 528 c 0
 68 653 156 737 287 737 c 0
 358 737 422 713 469 668 c 1
 509 728 l 1
 546 728 l 1
EndSplineSet
KernsSLIF: 116 -5 0 0 89 10 0 0 87 1 0 0 86 8 0 0 84 -1 0 0 262 -1 0 0 256 -1 0 0 257 -1 0 0 225 -5 0 0 65 -1 0 0
EndChar
StartChar: T
Encoding: 84 84 53
Width: 667
Flags: W
HStem: 0 47<162 505> 444 278<33 62 34 648> 675 47<34 452>
VStem: 278 112<94 641>
Fore
633 722 m 1xd0
 648 444 l 1
 605 444 l 1xd0
 597 501 587 544 572 581 c 0
 547 641 498 675 437 675 c 0
 404 675 390 664 390 639 c 2
 390 123 l 1
 390 94 l 2
 390 52 399 47 479 47 c 2
 505 47 l 1
 505 0 l 1
 162 0 l 1
 162 47 l 1
 188 47 l 2
 269 47 278 52 278 94 c 2
 278 123 l 1
 278 639 l 2
 278 664 264 675 231 675 c 0xb0
 163 675 115 637 89 564 c 0
 78 532 69 494 62 444 c 1
 19 444 l 1
 34 722 l 1
 633 722 l 1xd0
EndSplineSet
KernsSLIF: 121 23 0 0 119 22 0 0 118 26 0 0 117 19 0 0 59 -9 0 0 115 -10 0 0 114 19 0 0 46 -73 0 0 249 -27 0 0 111 -23 0 0 106 23 0 0 105 21 0 0 45 -74 0 0 172 -104 0 0 171 -104 0 0 103 -23 0 0 101 -24 0 0 44 -71 0 0 58 -9 0 0 99 -23 0 0 241 -15 0 0 97 -19 0 0 89 35 0 0 87 26 0 0 86 33 0 0 290 10 0 0 233 10 0 0 288 10 0 0 286 10 0 0 289 10 0 0 287 10 0 0 234 23 0 0 79 10 0 0 74 -58 0 0 71 12 0 0 67 10 0 0 261 -32 0 0 262 -32 0 0 258 -32 0 0 256 -32 0 0 259 -32 0 0 257 -32 0 0 225 -36 0 0 65 -32 0 0
EndChar
StartChar: U
Encoding: 85 85 54
Width: 815
Flags: W
HStem: -15 54<400 429> 675 47<17 66 17 344>
VStem: 123 112<201 642> 629 54<240 546>
Fore
683 505 m 2
 683 278 l 2
 683 189 671 136 639 90 c 0
 591 19 513 -15 400 -15 c 0
 287 -15 199 22 153 88 c 0
 134 116 126 148 123 201 c 1
 123 270 l 1
 123 599 l 1
 123 628 l 2
 123 670 114 675 34 675 c 2
 17 675 l 1
 17 722 l 1
 344 722 l 1
 344 675 l 1
 325 675 l 2
 244 675 235 670 235 628 c 2
 235 599 l 1
 235 264 l 2
 235 171 240 147 267 110 c 0
 300 65 359 39 427 39 c 0
 508 39 573 75 605 137 c 0
 624 172 629 204 629 284 c 2
 629 505 l 2
 629 642 609 671 514 675 c 1
 514 722 l 1
 799 722 l 1
 799 675 l 1
 703 671 683 642 683 505 c 2
EndSplineSet
KernsSLIF: 114 -37 0 0 46 -44 0 0 112 -40 0 0 110 -40 0 0 109 -38 0 0 44 -43 0 0 261 -54 0 0 262 -54 0 0 256 -54 0 0 259 -54 0 0 257 -54 0 0 225 -58 0 0 65 -54 0 0
EndChar
StartChar: V
Encoding: 86 86 55
Width: 722
Flags: W
HStem: -15 21G<342 382> 675 47<-8 25 -8 304 460 489 460 731>
DStem: 89 619 210 620 342 -15 393 155 548 567 612 577 393 155 382 -15
Fore
393 155 m 1
 548 567 l 2
 555 586 560 609 560 623 c 0
 560 655 530 675 479 675 c 2
 460 675 l 1
 460 722 l 1
 731 722 l 1
 731 675 l 1
 721 675 l 2
 664 675 642 655 612 577 c 2
 382 -15 l 1
 342 -15 l 1
 89 619 l 1
 70 665 57 675 12 675 c 2
 -8 675 l 1
 -8 722 l 1
 304 722 l 1
 304 675 l 1
 264 675 l 2
 219 675 202 668 202 650 c 0
 202 644 205 632 210 620 c 2
 393 155 l 1
EndSplineSet
KernsSLIF: 121 -43 0 0 117 -47 0 0 59 -81 0 0 114 -49 0 0 46 -102 0 0 249 -82 0 0 111 -82 0 0 105 -7 0 0 45 -57 0 0 172 -85 0 0 171 -85 0 0 103 -86 0 0 101 -82 0 0 44 -101 0 0 58 -81 0 0 241 -84 0 0 97 -87 0 0 84 33 0 0 83 -7 0 0 290 -36 0 0 233 -39 0 0 288 -36 0 0 286 -36 0 0 289 -36 0 0 287 -36 0 0 79 -36 0 0 71 -39 0 0 67 -40 0 0 261 -100 0 0 262 -100 0 0 258 -100 0 0 256 -100 0 0 259 -100 0 0 257 -100 0 0 225 -70 0 0 65 -100 0 0
EndChar
StartChar: W
Encoding: 87 87 56
Width: 981
Flags: W
HStem: -15 21G<301 344 654 695> 675 47<6 39 6 288 353 391 353 642 731 759 731 976>
DStem: 85 636 205 630 301 -15 349 182 465 566 492 482 349 182 344 -15 492 482 561 620 654 -15 699 182 819 588 871 572 699 182 695 -15
Fore
349 182 m 1
 465 566 l 1
 439 644 l 2
 431 668 417 675 376 675 c 2
 353 675 l 1
 353 722 l 1
 642 722 l 1
 642 675 l 1
 626 675 l 2
 587 675 580 674 569 670 c 0
 560 666 554 657 554 648 c 0
 554 641 555 639 561 620 c 2
 699 182 l 1
 819 588 l 1
 823 599 825 613 825 623 c 0
 825 658 797 675 739 675 c 2
 731 675 l 1
 731 722 l 1
 976 722 l 1
 976 675 l 1
 972 675 l 2
 939 675 914 663 898 639 c 0
 887 623 882 611 871 572 c 1
 695 -15 l 1
 654 -15 l 1
 492 482 l 1
 344 -15 l 1
 301 -15 l 1
 85 636 l 1
 73 671 67 675 25 675 c 2
 6 675 l 1
 6 722 l 1
 288 722 l 1
 288 675 l 1
 243 675 l 2
 211 675 200 670 200 655 c 0
 200 650 202 639 205 630 c 2
 349 182 l 1
EndSplineSet
KernsSLIF: 121 -38 0 0 117 -42 0 0 59 -75 0 0 114 -43 0 0 46 -81 0 0 249 -66 0 0 111 -67 0 0 105 -14 0 0 45 -41 0 0 172 -70 0 0 171 -70 0 0 103 -70 0 0 101 -66 0 0 44 -79 0 0 58 -75 0 0 241 -70 0 0 97 -75 0 0 84 26 0 0 83 -14 0 0 290 -43 0 0 233 -43 0 0 288 -43 0 0 286 -43 0 0 289 -43 0 0 287 -43 0 0 79 -43 0 0 71 -45 0 0 67 -47 0 0 261 -84 0 0 262 -84 0 0 258 -84 0 0 256 -84 0 0 259 -84 0 0 257 -84 0 0 225 -77 0 0 65 -84 0 0
EndChar
StartChar: X
Encoding: 88 88 57
Width: 704
Flags: W
HStem: 0 47<-5 279 388 716> 675 47<-6 27 -6 303 400 427 400 675>
DStem: 95 637 228 637 292 352 361 445 292 352 321 307 130 127 205 139 321 307 389 400 470 96 599 99 469 602 522 581 361 445 389 400
Fore
389 400 m 1
 599 99 l 2
 633 50 640 47 704 47 c 2
 716 47 l 1
 716 0 l 1
 388 0 l 1
 388 47 l 1
 416 47 l 2
 479 48 483 49 483 65 c 0
 483 73 478 84 470 96 c 2
 321 307 l 1
 205 139 l 2
 195 124 189 108 189 95 c 0
 189 65 214 47 254 47 c 2
 279 47 l 1
 279 0 l 1
 -5 0 l 1
 -5 47 l 1
 -1 47 l 2
 50 47 91 71 130 127 c 1
 292 352 l 1
 95 637 l 2
 72 670 60 675 11 675 c 2
 -6 675 l 1
 -6 722 l 1
 303 722 l 1
 303 675 l 1
 265 675 l 2
 227 675 217 672 217 662 c 0
 217 657 221 647 228 637 c 2
 361 445 l 1
 469 602 l 2
 480 618 483 625 483 636 c 0
 483 663 462 675 414 675 c 2
 400 675 l 1
 400 722 l 1
 675 722 l 1
 675 675 l 1
 659 675 l 2
 606 675 578 656 522 581 c 2
 389 400 l 1
EndSplineSet
KernsSLIF: 121 -74 0 0 117 -14 0 0 111 -7 0 0 45 -37 0 0 101 -3 0 0 97 17 0 0 81 -37 0 0 286 -39 0 0 79 -39 0 0 67 -36 0 0
EndChar
StartChar: Y
Encoding: 89 89 58
Width: 704
Flags: W
HStem: 0 47<190 533> 675 47<-13 20 -13 308 429 468 429 713>
VStem: 306 112<94 287>
DStem: 90 629 221 628 306 287 389 357 513 578 567 568 389 357 418 299
Fore
389 357 m 1
 513 578 l 2
 524 598 530 615 530 630 c 0
 530 662 507 675 452 675 c 2
 429 675 l 1
 429 722 l 1
 713 722 l 1
 713 675 l 1
 705 675 l 2
 672 675 640 662 617 641 c 0
 602 626 589 607 567 568 c 2
 418 299 l 1
 418 123 l 1
 418 94 l 2
 418 51 426 47 507 47 c 2
 533 47 l 1
 533 0 l 1
 190 0 l 1
 190 47 l 1
 216 47 l 2
 297 47 306 52 306 94 c 2
 306 123 l 1
 306 287 l 1
 90 629 l 2
 67 666 52 675 9 675 c 2
 -13 675 l 1
 -13 722 l 1
 308 722 l 1
 308 675 l 1
 249 675 l 2
 222 675 210 669 210 656 c 0
 210 649 213 640 221 628 c 2
 389 357 l 1
EndSplineSet
KernsSLIF: 118 -58 0 0 117 -64 0 0 59 -80 0 0 46 -77 0 0 112 -71 0 0 249 -88 0 0 111 -89 0 0 105 -7 0 0 45 -78 0 0 172 -104 0 0 171 -104 0 0 103 -71 0 0 101 -88 0 0 44 -76 0 0 58 -83 0 0 241 -69 0 0 97 -74 0 0 84 33 0 0 83 -3 0 0 290 -32 0 0 233 -35 0 0 288 -32 0 0 286 -32 0 0 289 -32 0 0 287 -32 0 0 79 -32 0 0 71 -34 0 0 67 -36 0 0 261 -36 0 0 262 -36 0 0 258 -36 0 0 256 -36 0 0 259 -36 0 0 257 -36 0 0 225 -40 0 0 65 -36 0 0
EndChar
StartChar: Z
Encoding: 90 90 59
Width: 611
Flags: W
HStem: 0 47<158 557> 469 21G<53 98> 675 47<73 433>
DStem: 433 675 569 686 24 36 158 47
Fore
569 722 m 1
 569 686 l 1
 158 47 l 1
 324 47 l 2
 389 47 443 66 468 99 c 0
 497 135 514 185 528 278 c 1
 575 278 l 1
 557 0 l 1
 24 0 l 1
 24 36 l 1
 433 675 l 1
 303 675 l 2
 169 675 130 636 98 469 c 1
 53 469 l 1
 73 722 l 1
 569 722 l 1
EndSplineSet
KernsSLIF: 121 -42 0 0 118 -38 0 0
EndChar
StartChar: bracketleft
Encoding: 91 91 60
Width: 333
Flags: W
HStem: -108 36<156 297> 685 37<66 297>
VStem: 66 90<-108 685>
Fore
156 -72 m 1
 297 -72 l 1
 297 -108 l 1
 66 -108 l 1
 66 722 l 1
 297 722 l 1
 297 685 l 1
 156 685 l 1
 156 -72 l 1
EndSplineSet
EndChar
StartChar: backslash
Encoding: 92 92 61
Width: 606
Flags: W
HStem: 0 21G<474 532> 717 20G<74 132>
DStem: 74 737 132 737 474 0 532 0
Fore
132 737 m 1
 532 0 l 1
 474 0 l 1
 74 737 l 1
 132 737 l 1
EndSplineSet
EndChar
StartChar: bracketright
Encoding: 93 93 62
Width: 333
Flags: W
HStem: -108 37<36 266> 686 36<36 176>
VStem: 176 90<-71 722>
Fore
176 686 m 1
 36 686 l 1
 36 722 l 1
 266 722 l 1
 266 -108 l 1
 36 -108 l 1
 36 -71 l 1
 176 -71 l 1
 176 686 l 1
EndSplineSet
EndChar
StartChar: asciicircum
Encoding: 94 94 63
Width: 606
Flags: W
HStem: 702 20G<261 346>
DStem: 261 722 304 629 52 318 139 318 304 629 346 722 467 318 554 318
Fore
554 318 m 1
 467 318 l 1
 304 629 l 1
 139 318 l 1
 52 318 l 1
 261 722 l 1
 346 722 l 1
 554 318 l 1
EndSplineSet
EndChar
StartChar: underscore
Encoding: 95 95 64
Width: 500
Flags: W
HStem: -134 61<0 500>
Fore
0 -73 m 1
 500 -73 l 1
 500 -134 l 1
 0 -134 l 1
 0 -73 l 1
EndSplineSet
EndChar
StartChar: quoteleft
Encoding: 96 8216 65
Width: 204
Flags: W
VStem: 26 53<543 571>
Fore
157 736 m 1
 181 708 l 1
 111 658 79 614 79 571 c 0
 79 565 82 562 86 562 c 2
 86 562 87 562 89 563 c 2
 107 564 l 2
 146 564 173 540 173 505 c 0
 173 470 145 444 108 444 c 0
 59 444 26 483 26 543 c 0
 26 614 68 675 157 736 c 1
EndSplineSet
KernsSLIF: 89 39 1 0 87 30 1 0 86 36 1 0 84 48 1 0 262 -65 1 0 256 -65 1 0 257 -65 1 0 225 -78 1 0 65 -65 1 0
EndChar
StartChar: a
Encoding: 97 97 66
Width: 556
Flags: W
HStem: -15 53<189 224> -7 59<451 490> 438 43<248 268>
VStem: 44 101<102 118> 71 112<343 356> 358 94<160 347>
Fore
452 322 m 2xac
 452 121 l 2
 452 71 462 52 490 52 c 0
 498 52 502 53 518 59 c 0
 525 62 529 63 533 63 c 0
 538 63 543 58 543 51 c 0
 543 22 496 -7 451 -7 c 0x6c
 404 -7 379 13 363 64 c 1
 320 13 258 -15 189 -15 c 0
 101 -15 44 31 44 102 c 0xb4
 44 165 86 212 172 244 c 0
 221 263 253 271 358 289 c 1
 358 328 l 2
 358 373 351 397 332 413 c 0
 316 428 281 438 250 438 c 0
 202 438 161 420 161 399 c 0
 161 396 162 393 168 386 c 0
 178 372 183 358 183 345 c 0
 183 315 160 294 129 294 c 0
 94 294 71 318 71 356 c 0
 71 428 154 481 266 481 c 0
 330 481 379 467 412 441 c 0
 441 417 452 385 452 322 c 2xac
358 200 m 2
 358 246 l 1
 280 233 241 223 210 209 c 0
 166 188 145 158 145 116 c 0
 145 71 179 38 224 38 c 0xb4
 267 38 313 63 338 100 c 0
 355 126 358 140 358 200 c 2
EndSplineSet
KernsSLIF: 121 -39 0 0 119 -37 0 0 118 -33 0 0 39 -11 0 0 106 -28 0 0
EndChar
StartChar: b
Encoding: 98 98 67
Width: 556
Flags: W
HStem: -15 43<295 316> 430 51<295 316>
VStem: 86 89<208 258> 415 105<222 258>
Fore
180 737 m 1
 180 403 l 1
 218 460 255 481 316 481 c 0
 436 481 520 380 520 236 c 0
 520 92 428 -15 305 -15 c 0
 243 -15 196 10 155 64 c 1
 106 -14 l 1
 68 -14 l 1
 81 45 86 110 86 244 c 2
 86 633 l 2
 86 676 80 683 43 683 c 2
 8 683 l 1
 8 726 l 1
 180 737 l 1
298 430 m 0
 218 430 175 357 175 224 c 0
 175 101 222 28 301 28 c 0
 374 28 415 100 415 226 c 0
 415 357 373 430 298 430 c 0
EndSplineSet
KernsSLIF: 121 -25 0 0 119 -21 0 0 118 -17 0 0
EndChar
StartChar: c
Encoding: 99 99 68
Width: 444
Flags: W
HStem: -15 61<243 269> 438 43<255 275>
VStem: 34 105<208 242> 292 121<348 362>
Fore
387 147 m 1
 426 132 l 1
 383 26 332 -15 243 -15 c 0
 119 -15 34 83 34 225 c 0
 34 374 127 481 257 481 c 0
 346 481 413 429 413 362 c 0
 413 322 387 294 352 294 c 0
 317 294 292 317 292 350 c 0
 292 367 296 377 312 396 c 0
 316 402 318 405 318 408 c 0
 318 424 292 438 262 438 c 0
 188 438 139 357 139 236 c 0
 139 119 189 46 269 46 c 0
 321 46 355 75 387 147 c 1
EndSplineSet
KernsSLIF: 107 -14 0 0 104 -14 0 0
EndChar
StartChar: d
Encoding: 100 100 69
Width: 574
Flags: W
HStem: -15 54<242 263> 427 54<242 262>
VStem: 43 105<208 242> 379 95<208 737>
Fore
380 -7 m 1
 380 72 l 1
 348 12 305 -15 242 -15 c 0
 126 -15 43 86 43 228 c 0
 43 372 129 481 242 481 c 0
 300 481 343 458 380 407 c 1
 380 633 l 2
 380 676 373 683 337 683 c 2
 278 683 l 1
 278 726 l 1
 474 737 l 1
 474 116 l 2
 474 53 482 43 536 43 c 2
 554 43 l 1
 554 0 l 1
 380 -7 l 1
262 427 m 0
 221 427 184 398 167 354 c 0
 154 320 148 275 148 216 c 0
 148 105 191 39 261 39 c 0
 333 39 379 115 379 231 c 0
 379 279 372 321 360 351 c 0
 342 397 303 427 262 427 c 0
EndSplineSet
EndChar
StartChar: e
Encoding: 101 101 70
Width: 500
Flags: W
HStem: -15 54<261 282> 225 43<142 465> 438 43<242 263>
VStem: 35 106<208 225> 358 107<225 305>
Fore
465 225 m 1
 141 225 l 1
 140 170 148 135 166 105 c 0
 192 61 229 39 280 39 c 0
 347 39 389 69 430 146 c 1
 465 127 l 1
 424 32 356 -15 261 -15 c 0
 126 -15 35 80 35 220 c 0
 35 370 131 481 259 481 c 0
 381 481 466 375 465 225 c 1
142 268 m 1
 317 268 l 2
 349 268 358 276 358 305 c 0
 358 385 318 438 257 438 c 0
 209 438 177 409 156 349 c 0
 146 321 142 299 142 268 c 1
EndSplineSet
KernsSLIF: 121 -25 0 0 120 -18 0 0 119 -22 0 0 118 -19 0 0 116 -20 0 0 39 10 0 0
EndChar
StartChar: f
Encoding: 102 102 71
Width: 333
Flags: W
HStem: 0 36<28 295> 423 43<19 107 201 311> 697 40<290 313>
VStem: 107 94<66.2543 423 466 529> 322 111<633 645>
Fore
201 466 m 1
 311 466 l 1
 311 423 l 1
 201 423 l 1
 201 123 l 1
 201 83 l 2
 201 43 212 36 277 36 c 2
 295 36 l 1
 295 0 l 1
 28 0 l 1
 28 36 l 1
 32 36 l 2
 96 36 107 43 107 83 c 2
 107 123 l 1
 107 423 l 1
 19 423 l 1
 19 466 l 1
 107 466 l 1
 107 497 l 2
 107 578 117 621 147 663 c 0
 183 713 233 737 302 737 c 0
 383 737 433 701 433 643 c 0
 433 607 410 582 377 582 c 0
 346 582 322 605 322 635 c 0
 322 646 325 657 331 667 c 0
 336 675 337 677 337 680 c 0
 337 691 324 697 303 697 c 0
 263 697 228 670 212 626 c 0
 204 606 201 573 201 523 c 2
 201 466 l 1
EndSplineSet
KernsSLIF: 116 13 0 0 115 -10 0 0 39 72 0 0 249 -25 0 0 250 -21 0 0 351 31 0 0 352 -21 0 0 111 -21 0 0 108 73 0 0 106 32 0 0 105 32 0 0 102 21 0 0 335 -23 0 0 101 -23 0 0 328 -3 0 0 241 -11 0 0 322 19 0 0 323 -15 0 0 97 -15 0 0
EndChar
StartChar: g
Encoding: 103 103 72
Width: 537
Flags: W
HStem: -203 41<214 264> -12 86<171 328> 154 38<208 251> 389 106<476 497> 438 43<238 264>
VStem: 23 83<-102 -90> 59 91<308 326> 353 92<308 326> 415 70<-72 -45>
Fore
196 74 m 2xf3
 298 74 l 2
 367 74 399 70 425 60 c 0
 462 45 485 5 485 -45 c 0
 485 -150 401 -203 234 -203 c 0
 100 -203 23 -166 23 -100 c 0xf480
 23 -59 53 -27 115 -5 c 1
 68 11 48 37 48 81 c 0
 48 136 76 166 143 181 c 1
 91 205 59 256 59 315 c 0
 59 415 137 481 256 481 c 0xea
 306 481 338 471 380 443 c 1
 426 485 444 495 476 495 c 0
 515 495 542 471 542 437 c 0
 542 410 522 389 497 389 c 0
 472 389 456 402 452 426 c 0
 450 437 447 440 442 440 c 0
 434 440 425 434 408 416 c 1
 436 383 445 358 445 318 c 0
 445 252 411 200 351 173 c 0
 318 158 303 156 208 154 c 0
 141 152 114 139 114 109 c 0
 114 98 119 87 126 83 c 0
 138 76 141 75 196 74 c 2xf3
255 438 m 0xeb
 188 438 150 393 150 314 c 0
 150 239 189 192 251 192 c 0
 315 192 353 239 353 317 c 0
 353 394 318 438 255 438 c 0xeb
246 -12 m 2
 172 -12 l 1
 124 -37 106 -59 106 -92 c 0
 106 -137 154 -162 238 -162 c 0
 350 -162 415 -129 415 -72 c 0xe480
 415 -40 390 -18 350 -14 c 0
 335 -12 329 -12 246 -12 c 2
EndSplineSet
KernsSLIF: 114 25 0 0 351 -6 0 0 352 -6 0 0 108 -10 0 0 335 -6 0 0 101 -6 0 0 328 -5 0 0 241 -2 0 0 322 -5 0 0 97 -5 0 0
EndChar
StartChar: h
Encoding: 104 104 73
Width: 611
Flags: W
HStem: 0 36<27 280 340 593> 420 61<327 358>
VStem: 106 94<66.2543 257 123 737> 420 94<66.2543 305>
Fore
200 737 m 1
 200 384 l 1
 245 451 294 481 358 481 c 0
 418 481 468 452 493 404 c 0
 511 370 514 352 514 280 c 2
 514 123 l 1
 514 83 l 2
 514 43 525 36 589 36 c 2
 593 36 l 1
 593 0 l 1
 340 0 l 1
 340 36 l 1
 344 36 l 2
 409 36 420 43 420 83 c 2
 420 123 l 1
 420 284 l 2
 420 333 413 363 398 385 c 0
 383 405 353 420 327 420 c 0
 284 420 239 389 218 344 c 0
 207 321 200 276 200 226 c 2
 200 123 l 1
 200 83 l 2
 200 43 211 36 276 36 c 2
 280 36 l 1
 280 0 l 1
 27 0 l 1
 27 36 l 1
 31 36 l 2
 95 36 106 43 106 83 c 2
 106 123 l 1
 106 633 l 2
 106 676 100 683 63 683 c 2
 15 683 l 1
 15 726 l 1
 200 737 l 1
EndSplineSet
KernsSLIF: 121 -43 0 0 39 -11 0 0
EndChar
StartChar: i
Encoding: 105 105 74
Width: 315
Flags: W
HStem: 0 36<30 289> 599 116<156 163>
VStem: 112 94<66.2543 385>
Fore
206 466 m 1
 206 123 l 1
 206 83 l 2
 206 43 217 36 282 36 c 2
 289 36 l 1
 289 0 l 1
 30 0 l 1
 30 36 l 1
 37 36 l 2
 101 36 112 43 112 83 c 2
 112 123 l 1
 112 362 l 2
 112 405 106 412 69 412 c 2
 18 412 l 1
 18 455 l 1
 206 466 l 1
159 715 m 0
 191 715 217 689 217 657 c 0
 217 625 191 599 158 599 c 0
 127 599 101 626 101 657 c 0
 101 689 127 715 159 715 c 0
EndSplineSet
KernsSLIF: 106 -26 0 0 84 -24 0 0
EndChar
StartChar: j
Encoding: 106 106 75
Width: 296
Flags: W
HStem: -202 42<29 47> 599 116<157 168>
VStem: -82 108<-120 -107> 113 94<21 375>
Fore
207 466 m 1
 207 71 l 2
 207 -42 197 -93 166 -137 c 0
 137 -177 86 -202 30 -202 c 0
 -37 -202 -82 -169 -82 -120 c 0
 -82 -86 -58 -60 -26 -60 c 0
 2 -60 26 -82 26 -107 c 0
 26 -114 24 -120 19 -131 c 0
 15 -141 14 -143 14 -147 c 0
 14 -154 25 -160 39 -160 c 0
 60 -160 84 -145 94 -125 c 0
 108 -96 113 -58 113 23 c 2
 113 362 l 2
 113 405 107 412 70 412 c 2
 12 412 l 1
 12 455 l 1
 207 466 l 1
160 715 m 0
 192 715 218 689 218 657 c 0
 218 625 192 599 159 599 c 0
 128 599 102 626 102 657 c 0
 102 689 128 715 160 715 c 0
EndSplineSet
EndChar
StartChar: k
Encoding: 107 107 76
Width: 593
Flags: W
HStem: 0 36<26 279 323 587 575.8 587> 430 36<279 330 533.5 542>
VStem: 105 94<83 180 123 737>
DStem: 260 238 328 299 379 71 470 105 334 372 373 343 199 242 328 299
Fore
199 242 m 1
 334 372 l 2
 350 388 357 400 357 411 c 0
 357 424 342 430 310 430 c 2
 279 430 l 1
 279 466 l 1
 542 466 l 1
 542 430 l 1
 474 422 431 400 373 343 c 2
 328 299 l 1
 470 105 l 1
 511 53 531 41 587 36 c 1
 587 0 l 1
 323 0 l 1
 323 36 l 1
 342 36 l 2
 375 36 386 40 386 53 c 0
 386 58 383 64 379 71 c 1
 260 238 l 1
 199 180 l 1
 199 123 l 1
 199 83 l 2
 199 43 210 36 275 36 c 2
 279 36 l 1
 279 0 l 1
 26 0 l 1
 26 36 l 1
 30 36 l 2
 94 36 105 43 105 83 c 2
 105 123 l 1
 105 633 l 2
 105 676 99 683 62 683 c 2
 14 683 l 1
 14 726 l 1
 199 737 l 1
 199 242 l 1
EndSplineSet
KernsSLIF: 362 -2 0 0 117 -2 0 0 115 5 0 0 46 -1 0 0 351 -26 0 0 352 -26 0 0 111 -26 0 0 45 -63 0 0 103 4 0 0 335 -23 0 0 101 -23 0 0 44 1 0 0 328 1 0 0 241 5 0 0 322 1 0 0 323 1 0 0 97 1 0 0
EndChar
StartChar: l
Encoding: 108 108 77
Width: 315
Flags: W
HStem: 0 36<28 287>
VStem: 110 94<66.2543 641>
Fore
204 737 m 1
 204 123 l 1
 204 83 l 2
 204 43 215 36 280 36 c 2
 287 36 l 1
 287 0 l 1
 28 0 l 1
 28 36 l 1
 35 36 l 2
 99 36 110 43 110 83 c 2
 110 123 l 1
 110 633 l 2
 110 676 104 683 68 683 c 2
 19 683 l 1
 19 726 l 1
 204 737 l 1
EndSplineSet
KernsSLIF: 121 -28 0 0 118 -25 0 0
EndChar
StartChar: m
Encoding: 109 109 78
Width: 889
Flags: W
HStem: 0 36<28 280 321 574 615 868> 420 61<315 345 610 639>
VStem: 107 94<66.6964 287> 401 94<66.2543 273> 695 94<66.6964 309>
CounterMasks: 1 00
Fore
201 466 m 1
 201 389 l 1
 240 452 285 481 345 481 c 0
 412 481 466 441 483 381 c 1
 526 450 574 481 639 481 c 0
 687 481 728 461 757 424 c 0
 783 390 789 369 789 307 c 2
 789 123 l 1
 789 84 l 2
 789 43 800 36 864 36 c 2
 868 36 l 1
 868 0 l 1
 615 0 l 1
 615 36 l 1
 619 36 l 2
 684 36 695 43 695 83 c 2
 695 123 l 1
 695 287 l 2
 695 326 692 348 683 370 c 0
 670 401 643 420 610 420 c 0
 540 420 495 356 495 256 c 2
 495 123 l 1
 495 83 l 2
 495 43 506 36 570 36 c 2
 574 36 l 1
 574 0 l 1
 321 0 l 1
 321 36 l 1
 325 36 l 2
 390 36 401 43 401 83 c 2
 401 123 l 1
 401 298 l 2
 401 339 395 368 381 387 c 1
 369 406 341 420 315 420 c 0
 250 420 201 354 201 265 c 2
 201 123 l 1
 201 84 l 2
 201 43 212 36 276 36 c 2
 280 36 l 1
 280 0 l 1
 28 0 l 1
 28 36 l 1
 32 36 l 2
 96 36 107 43 107 84 c 2
 107 123 l 1
 107 362 l 2
 107 405 101 412 64 412 c 2
 23 412 l 1
 23 455 l 1
 201 466 l 1
EndSplineSet
KernsSLIF: 121 -44 0 0 119 -40 0 0 118 -37 0 0 112 -30 0 0
EndChar
StartChar: n
Encoding: 110 110 79
Width: 611
Flags: W
HStem: 0 36<27 280 340 593> 420 61<327 358>
VStem: 106 94<66.2543 257> 420 94<66.2543 305>
Fore
200 466 m 1
 200 385 l 1
 244 451 294 481 358 481 c 0
 417 481 468 452 493 404 c 0
 511 370 514 352 514 280 c 2
 514 123 l 1
 514 83 l 2
 514 43 525 36 589 36 c 2
 593 36 l 1
 593 0 l 1
 340 0 l 1
 340 36 l 1
 344 36 l 2
 409 36 420 43 420 83 c 2
 420 123 l 1
 420 285 l 2
 420 333 413 364 398 385 c 0
 383 405 353 420 327 420 c 0
 284 420 239 389 218 344 c 0
 207 321 200 276 200 227 c 2
 200 123 l 1
 200 83 l 2
 200 43 211 36 276 36 c 2
 280 36 l 1
 280 0 l 1
 27 0 l 1
 27 36 l 1
 31 36 l 2
 95 36 106 43 106 83 c 2
 106 123 l 1
 106 362 l 2
 106 405 100 412 63 412 c 2
 27 412 l 1
 27 455 l 1
 200 466 l 1
EndSplineSet
KernsSLIF: 121 -43 0 0 119 -40 0 0 118 -36 0 0 39 -11 0 0 112 -28 0 0 84 -36 0 0
EndChar
StartChar: o
Encoding: 111 111 80
Width: 500
Flags: W
HStem: -15 43<250 259> 438 43<252 259>
VStem: 34 105<232 242> 361 105<233 258>
Fore
252 481 m 0
 370 481 466 370 466 233 c 0
 466 95 370 -15 250 -15 c 0
 130 -15 34 95 34 232 c 0
 34 372 130 481 252 481 c 0
252 438 m 0
 177 438 139 368 139 232 c 0
 139 100 178 28 250 28 c 0
 322 28 361 100 361 233 c 0
 361 365 322 438 252 438 c 0
EndSplineSet
KernsSLIF: 121 -30 0 0 120 -22 0 0 119 -26 0 0 118 -22 0 0 116 -21 0 0 39 8 0 0 84 -22 0 0
EndChar
StartChar: p
Encoding: 112 112 81
Width: 574
Flags: W
HStem: -202 36<28 288> -15 54<315 333> 427 54<318 339>
VStem: 107 93<228 362> 430 105<213 247>
Fore
201 466 m 1
 201 395 l 1
 236 455 277 481 339 481 c 0
 449 481 535 373 535 235 c 0
 535 92 449 -15 333 -15 c 0
 272 -15 234 8 201 66 c 1
 201 -79 l 1
 201 -119 l 2
 201 -159 212 -166 277 -166 c 2
 288 -166 l 1
 288 -202 l 1
 28 -202 l 1
 28 -166 l 1
 32 -166 l 2
 96 -166 107 -159 107 -119 c 2
 107 -79 l 1
 107 362 l 2
 107 405 101 412 64 412 c 2
 28 412 l 1
 28 455 l 1
 201 466 l 1
321 427 m 0
 245 427 200 352 200 228 c 0
 200 113 247 39 318 39 c 0
 389 39 430 112 430 241 c 0
 430 358 390 427 321 427 c 0
EndSplineSet
KernsSLIF: 121 -33 0 0 116 -21 0 0
EndChar
StartChar: q
Encoding: 113 113 82
Width: 556
Flags: W
HStem: -202 36<288 548> -15 54<239 262> 438 43<243 261>
VStem: 36 105<197 246> 375 94<-135.746 58 213 309>
Fore
449 466 m 1
 486 466 l 1
 475 414 472 400 470 381 c 0
 470 370 470 366 469 309 c 1
 469 -79 l 1
 469 -119 l 2
 469 -159 480 -166 544 -166 c 2
 548 -166 l 1
 548 -202 l 1
 288 -202 l 1
 288 -166 l 1
 299 -166 l 2
 364 -166 375 -159 375 -119 c 2
 375 -79 l 1
 375 58 l 1
 335 3 301 -15 239 -15 c 0
 122 -15 36 85 36 222 c 0
 36 370 128 481 250 481 c 0
 313 481 362 454 402 398 c 1
 449 466 l 1
259 438 m 0
 180 438 141 368 141 228 c 0
 141 108 184 39 258 39 c 0
 336 39 375 107 375 244 c 0
 375 301 369 337 354 370 c 0
 335 412 299 438 259 438 c 0
EndSplineSet
KernsSLIF: 117 -11 0 0 99 -14 0 0
EndChar
StartChar: r
Encoding: 114 114 83
Width: 444
Flags: W
HStem: 0 36<25 292> 333 148<348 374>
VStem: 105 93<66.2543 161 123 466> 319 116<387 401>
Fore
198 466 m 1
 198 342 l 1
 230 430 285 481 348 481 c 0
 401 481 435 449 435 401 c 0
 435 360 410 333 374 333 c 0
 342 333 319 356 319 388 c 0
 319 407 323 417 337 433 c 1
 295 428 261 397 237 341 c 0
 212 284 198 208 198 133 c 2
 198 123 l 1
 198 83 l 2
 198 43 209 36 273 36 c 2
 292 36 l 1
 292 0 l 1
 25 0 l 1
 25 36 l 1
 29 36 l 2
 94 36 105 43 105 83 c 2
 105 123 l 1
 105 362 l 2
 105 405 99 412 62 412 c 2
 21 412 l 1
 21 455 l 1
 198 466 l 1
EndSplineSet
KernsSLIF: 122 -2 0 0 121 18 0 0 120 20 0 0 119 19 0 0 118 23 0 0 117 18 0 0 116 19 0 0 59 -8 0 0 115 -1 0 0 114 19 0 0 39 30 0 0 113 -6 0 0 46 -74 0 0 112 15 0 0 249 -3 0 0 353 -1 0 0 250 -1 0 0 351 -1 0 0 354 -1 0 0 352 -1 0 0 111 -1 0 0 110 16 0 0 109 18 0 0 108 -25 0 0 107 -23 0 0 106 23 0 0 105 20 0 0 45 -35 0 0 104 -23 0 0 103 -5 0 0 102 19 0 0 336 -2 0 0 337 -2 0 0 335 -2 0 0 101 -2 0 0 100 -5 0 0 44 -72 0 0 58 -8 0 0 99 -2 0 0 328 -7 0 0 324 -7 0 0 241 -3 0 0 322 -7 0 0 325 -7 0 0 323 -7 0 0 97 -7 0 0
EndChar
StartChar: s
Encoding: 115 115 84
Width: 463
Flags: W
HStem: -15 43<242 276> 437 44<194 226>
VStem: 58 58<336 368> 359 62<108 139>
Fore
390 477 m 1
 390 309 l 1
 355 309 l 1
 339 355 328 375 306 397 c 0
 278 424 247 437 209 437 c 0
 154 437 116 408 116 368 c 0
 116 346 129 325 151 315 c 1
 169 305 169 305 224 293 c 2
 274 282 l 2
 335 269 355 261 379 240 c 0
 407 217 421 183 421 139 c 0
 421 46 356 -15 258 -15 c 0
 208 -15 162 1 121 34 c 1
 86 -7 l 1
 51 -7 l 1
 51 182 l 1
 91 182 l 1
 115 82 175 28 259 28 c 0
 318 28 359 61 359 108 c 0
 359 148 331 168 252 187 c 2
 199 199 l 2
 139 213 116 223 93 244 c 0
 71 264 58 297 58 336 c 0
 58 423 116 481 204 481 c 0
 254 481 290 469 326 441 c 1
 355 477 l 1
 390 477 l 1
EndSplineSet
KernsSLIF: 116 -11 0 0 39 7 0 0
EndChar
StartChar: t
Encoding: 116 116 85
Width: 389
Flags: W
HStem: -15 61<226 253> 423 39<18 31.5> 466 21G<194 341>
VStem: 100 94<128 423>
Fore
194 466 m 1
 341 466 l 1
 341 423 l 1
 194 423 l 1
 194 150 l 2
 194 114 197 89 203 75 c 0
 210 58 230 46 253 46 c 0
 302 46 328 92 331 182 c 1
 373 182 l 1
 374 172 374 165 374 159 c 0
 374 104 355 51 322 19 c 0
 299 -3 265 -15 226 -15 c 0
 168 -15 128 8 112 50 c 0
 102 73 100 98 100 168 c 2
 100 423 l 1
 18 423 l 1
 18 462 l 1
 99 468 143 534 153 664 c 1
 194 664 l 1
 194 466 l 1
EndSplineSet
KernsSLIF: 59 -17 0 0 39 3 0 0 351 7 0 0 352 7 0 0 111 7 0 0 104 -4 0 0 335 7 0 0 101 7 0 0 58 -19 0 0 328 3 0 0 241 6 0 0 322 3 0 0 323 3 0 0 97 3 0 0 83 8 0 0
EndChar
StartChar: u
Encoding: 117 117 86
Width: 611
Flags: W
HStem: -15 61<256 281>
VStem: 102 94<128 370> 412 94<208 466>
Fore
412 -7 m 1
 412 76 l 1
 368 12 322 -15 256 -15 c 0
 196 -15 148 8 121 49 c 0
 106 72 102 95 102 146 c 2
 102 362 l 2
 102 405 96 412 59 412 c 2
 21 412 l 1
 21 455 l 1
 196 466 l 1
 196 161 l 2
 196 106 198 96 211 77 c 0
 224 57 250 46 281 46 c 0
 330 46 370 72 391 116 c 0
 406 149 412 182 412 239 c 2
 412 362 l 2
 412 405 406 412 369 412 c 2
 318 412 l 1
 318 455 l 1
 506 466 l 1
 506 116 l 2
 506 52 514 43 569 43 c 2
 594 43 l 1
 594 0 l 1
 412 -7 l 1
EndSplineSet
KernsSLIF: 39 -6 0 0
EndChar
StartChar: v
Encoding: 118 118 87
Width: 537
Flags: W
HStem: -15 21G<254 289> 430 36<8 25 8 244 328 344 328 528>
DStem: 82 387 181 386 254 -15 295 121 387 353 431 336 295 121 289 -15
Fore
295 121 m 1
 387 353 l 1
 392 368 396 384 396 395 c 0
 396 418 377 430 342 430 c 2
 328 430 l 1
 328 466 l 1
 528 466 l 1
 528 430 l 1
 524 430 l 2
 486 430 458 402 431 336 c 2
 289 -15 l 1
 254 -15 l 1
 82 387 l 1
 68 421 54 430 16 430 c 2
 8 430 l 1
 8 466 l 1
 244 466 l 1
 244 430 l 1
 230 430 l 2
 189 430 176 424 176 407 c 0
 176 401 178 392 181 386 c 2
 295 121 l 1
EndSplineSet
KernsSLIF: 59 -10 0 0 115 -11 0 0 46 -79 0 0 249 -28 0 0 353 -23 0 0 351 -23 0 0 352 -23 0 0 111 -23 0 0 108 -25 0 0 45 -29 0 0 103 -23 0 0 336 -25 0 0 337 -25 0 0 335 -25 0 0 101 -25 0 0 44 -78 0 0 58 -9 0 0 99 -24 0 0 327 -19 0 0 328 -19 0 0 324 -19 0 0 241 -15 0 0 322 -19 0 0 325 -19 0 0 323 -19 0 0 97 -19 0 0
EndChar
StartChar: w
Encoding: 119 119 88
Width: 778
Flags: W
HStem: -15 21G<235 270 511 542> 430 36<15 35 15 235 287 320 287 511 574 608 574 763>
DStem: 85 381 180 385 235 -15 277 134 365 367 389 301 277 134 270 -15 389 301 449 386 511 -15 547 129 632 357 682 354 547 129 542 -15
Fore
547 129 m 1
 632 357 l 1
 637 369 640 384 640 394 c 0
 640 419 626 430 591 430 c 2
 574 430 l 1
 574 466 l 1
 763 466 l 1
 763 430 l 1
 756 430 l 2
 721 430 704 413 682 354 c 2
 542 -15 l 1
 511 -15 l 1
 389 301 l 1
 270 -15 l 1
 235 -15 l 1
 85 381 l 1
 71 421 61 430 33 430 c 2
 15 430 l 1
 15 466 l 1
 235 466 l 1
 235 430 l 1
 217 430 l 2
 187 430 176 424 176 407 c 0
 176 401 178 392 180 385 c 1
 277 134 l 1
 365 367 l 1
 356 393 l 1
 347 422 335 430 304 430 c 2
 287 430 l 1
 287 466 l 1
 511 466 l 1
 511 430 l 1
 487 430 l 2
 454 430 445 425 445 407 c 0
 445 398 446 393 449 386 c 2
 547 129 l 1
EndSplineSet
KernsSLIF: 59 -13 0 0 115 -14 0 0 46 -74 0 0 249 -31 0 0 353 -26 0 0 351 -26 0 0 352 -26 0 0 111 -26 0 0 108 -28 0 0 45 -26 0 0 103 -26 0 0 336 -28 0 0 337 -28 0 0 335 -28 0 0 101 -28 0 0 44 -73 0 0 58 -12 0 0 99 -27 0 0 327 -22 0 0 328 -22 0 0 324 -22 0 0 241 -18 0 0 322 -22 0 0 325 -22 0 0 323 -22 0 0 97 -22 0 0
EndChar
StartChar: x
Encoding: 120 120 89
Width: 537
Flags: W
HStem: 0 36<9 220 277 529> 430 36<15 252 300 330 300 506>
DStem: 98 376 204 390 220 222 281 292 220 222 248 185 105 88 164 84 248 185 309 255 324 84 435 85 344 367 423 388 281 292 309 255
Fore
309 255 m 1
 435 85 l 2
 461 50 487 36 522 36 c 2
 529 36 l 1
 529 0 l 1
 277 0 l 1
 277 36 l 1
 284 36 l 2
 322 36 337 41 337 54 c 0
 337 61 331 74 324 84 c 2
 248 185 l 1
 164 84 l 2
 159 79 156 70 156 63 c 0
 156 54 162 44 170 40 c 0
 177 37 182 36 205 36 c 2
 220 36 l 1
 220 0 l 1
 9 0 l 1
 9 36 l 1
 15 36 l 2
 44 36 77 55 105 88 c 2
 220 222 l 1
 98 376 l 2
 65 418 52 427 15 430 c 1
 15 466 l 1
 252 466 l 1
 252 430 l 1
 238 430 l 2
 207 430 194 425 194 412 c 0
 194 406 198 397 204 390 c 2
 281 292 l 1
 344 367 l 2
 357 383 364 398 364 408 c 0
 364 422 349 430 319 430 c 2
 300 430 l 1
 300 466 l 1
 507 466 l 1
 507 430 l 1
 498 430 l 2
 472 430 447 416 423 388 c 2
 309 255 l 1
EndSplineSet
KernsSLIF: 113 -20 0 0 111 -31 0 0 335 -27 0 0 101 -27 0 0 99 -24 0 0 97 -3 0 0
EndChar
StartChar: y
Encoding: 121 121 90
Width: 537
Flags: W
HStem: -206 49<94 123> 430 36<13 251 331 356 331 531>
VStem: 3 111<-129 -112>
DStem: 92 376 190 384 255 7 300 127 391 353 441 349 300 127 327 67
Fore
300 127 m 1
 391 353 l 2
 398 370 401 383 401 393 c 0
 401 419 385 430 347 430 c 2
 331 430 l 1
 331 466 l 1
 531 466 l 1
 531 430 l 1
 525 430 l 2
 487 430 466 410 441 349 c 2
 327 67 l 1
 283 -44 263 -84 232 -126 c 0
 192 -180 147 -206 94 -206 c 0
 42 -206 3 -173 3 -129 c 0
 3 -93 28 -67 63 -67 c 0
 92 -67 114 -86 114 -112 c 0
 114 -120 112 -129 109 -138 c 0
 108 -142 107 -145 107 -147 c 0
 107 -153 114 -157 123 -157 c 0
 155 -157 202 -104 238 -28 c 2
 255 7 l 1
 92 376 l 2
 74 416 56 430 24 430 c 2
 13 430 l 1
 13 466 l 1
 251 466 l 1
 251 430 l 1
 230 430 l 2
 196 430 184 423 184 405 c 0
 184 400 186 393 190 384 c 2
 300 127 l 1
EndSplineSet
KernsSLIF: 59 -11 0 0 115 -12 0 0 46 -78 0 0 249 -29 0 0 353 -25 0 0 351 -25 0 0 352 -25 0 0 111 -25 0 0 108 -24 0 0 45 -28 0 0 103 -25 0 0 336 -26 0 0 337 -26 0 0 335 -26 0 0 101 -26 0 0 44 -76 0 0 58 -10 0 0 99 -25 0 0 327 -21 0 0 328 -21 0 0 324 -21 0 0 241 -17 0 0 322 -21 0 0 325 -21 0 0 323 -21 0 0 97 -21 0 0
EndChar
StartChar: z
Encoding: 122 122 91
Width: 481
Flags: W
HStem: 0 43<155 428> 423 43<67 312>
DStem: 312 423 428 430 39 36 155 43
Fore
428 466 m 1
 428 430 l 1
 155 43 l 1
 257 43 l 2
 347 43 385 80 395 179 c 1
 435 179 l 1
 428 0 l 1
 39 0 l 1
 39 36 l 1
 312 423 l 1
 225 423 l 2
 143 423 107 387 98 297 c 1
 58 297 l 1
 67 466 l 1
 428 466 l 1
EndSplineSet
EndChar
StartChar: braceleft
Encoding: 123 123 92
Width: 333
Flags: W
HStem: -108 34<280.75 297> 688 34<280.75 297>
VStem: 142 74<19 197 403 597>
Fore
66 291 m 1
 66 323 l 1
 108 337 122 346 132 368 c 0
 141 386 142 395 142 456 c 2
 142 572 l 2
 142 638 152 673 177 695 c 0
 195 711 234 722 271 722 c 2
 297 722 l 1
 297 688 l 1
 232 684 216 658 216 562 c 2
 216 432 l 2
 216 363 203 340 149 307 c 1
 203 274 216 251 216 182 c 2
 216 52 l 2
 216 -44 232 -70 297 -74 c 1
 297 -108 l 1
 271 -108 l 2
 234 -108 195 -97 177 -81 c 0
 152 -59 142 -24 142 42 c 2
 142 158 l 2
 142 224 140 235 128 254 c 0
 116 271 104 278 66 291 c 1
EndSplineSet
EndChar
StartChar: bar
Encoding: 124 124 93
Width: 606
Flags: W
HStem: 0 21G<264 342> 702 20G<264 342>
VStem: 264 78<0 722>
Fore
342 722 m 1
 342 0 l 1
 264 0 l 1
 264 722 l 1
 342 722 l 1
EndSplineSet
EndChar
StartChar: braceright
Encoding: 125 125 94
Width: 333
Flags: W
HStem: -108 34<36 52> 688 34<36 52>
VStem: 116 74<19 197 419 597>
Fore
267 323 m 1
 267 291 l 1
 224 277 211 268 200 246 c 0
 191 228 190 219 190 158 c 2
 190 42 l 2
 190 -24 180 -60 155 -81 c 0
 137 -97 98 -108 61 -108 c 2
 36 -108 l 1
 36 -74 l 1
 100 -70 116 -44 116 52 c 2
 116 182 l 2
 116 251 129 274 183 307 c 1
 129 340 116 363 116 432 c 2
 116 562 l 2
 116 658 100 684 36 688 c 1
 36 722 l 1
 61 722 l 2
 98 722 137 711 155 695 c 0
 180 674 190 638 190 572 c 2
 190 456 l 2
 190 390 192 379 205 360 c 0
 216 343 228 336 267 323 c 1
EndSplineSet
EndChar
StartChar: asciitilde
Encoding: 126 126 95
Width: 606
Flags: W
Fore
104 182 m 1
 51 220 l 1
 88 285 143 327 191 327 c 0
 216 327 238 320 290 295 c 2
 336 273 l 2
 389 247 396 245 416 245 c 0
 444 245 475 269 502 310 c 1
 555 272 l 1
 518 207 463 165 415 165 c 0
 390 165 366 173 316 196 c 2
 270 219 l 2
 212 246 210 247 190 247 c 0
 162 247 131 223 104 182 c 1
EndSplineSet
EndChar
StartChar: exclamdown
Encoding: 161 161 96
Width: 296
Flags: W
HStem: 424 125<146 151>
VStem: 129 39<231.907 342.86>
Fore
129 343 m 1
 168 343 l 1
 170 164 173 117 192 23 c 0
 206 -46 210 -78 210 -108 c 0
 210 -170 189 -202 148 -202 c 0
 108 -202 87 -170 87 -107 c 0
 87 -78 91 -46 105 23 c 0
 124 117 128 166 129 343 c 1
149 549 m 0
 183 549 211 521 211 486 c 0
 211 452 183 424 148 424 c 0
 114 424 86 452 86 486 c 0
 86 521 114 549 149 549 c 0
EndSplineSet
EndChar
StartChar: cent
Encoding: 162 162 97
Width: 556
Flags: W
HStem: -15 63<293 314> 438 43<294 328>
VStem: 71 104<222 244>
DStem: 203 4 241 -9 146 -141 189 -141 367 421 366 310 231 76 267 56 431 585 474 585 385 468 421 450
Fore
241 -9 m 1
 189 -141 l 1
 146 -141 l 1
 203 4 l 1
 120 40 71 121 71 224 c 0
 71 375 168 481 307 481 c 0
 337 481 360 477 385 468 c 1
 431 585 l 1
 474 585 l 1
 421 450 l 1
 449 430 470 392 470 360 c 0
 470 325 440 295 405 295 c 0
 389 295 379 299 366 310 c 1
 267 56 l 1
 286 50 296 48 312 48 c 0
 373 48 413 79 440 147 c 1
 479 133 l 1
 446 35 383 -15 293 -15 c 0
 275 -15 260 -13 241 -9 c 1
231 76 m 1
 367 421 l 1
 355 432 335 438 311 438 c 0
 226 438 175 364 175 240 c 0
 175 164 195 107 231 76 c 1
EndSplineSet
EndChar
StartChar: sterling
Encoding: 163 163 98
Width: 556
Flags: W
HStem: -15 40<96 113> -15 87<368 386> 110 41<96 113> 325 47<36 170 263 432> 478 21G<416.5 455> 661 43<327 346>
VStem: 17 41<63 76> 131 99<506 543> 203 79<172 238> 374 132<537 562>
Fore
432 372 m 1xbf40
 432 325 l 1
 272 325 l 1
 279 291 282 269 282 238 c 0
 282 188 273 142 255 106 c 1
 309 80 339 72 376 72 c 0
 441 72 474 96 502 162 c 1
 537 147 l 1
 514 42 455 -15 371 -15 c 0x7ec0
 321 -15 276 2 218 44 c 1
 179 2 147 -15 104 -15 c 0
 53 -15 17 18 17 65 c 0
 17 116 55 151 111 151 c 0
 136 151 157 145 196 128 c 1
 201 148 203 159 203 172 c 0xbec0
 203 215 195 254 170 325 c 1
 36 325 l 1
 36 372 l 1
 156 372 l 1
 136 443 131 468 131 506 c 0
 131 624 211 704 329 704 c 0
 431 704 506 644 506 562 c 0
 506 513 476 478 434 478 c 0
 399 478 374 503 374 537 c 0
 374 565 385 578 421 596 c 0
 432 601 436 606 436 613 c 0
 436 637 390 661 344 661 c 0
 273 661 230 617 230 543 c 0
 230 519 232 505 247 439 c 0
 254 413 254 410 263 372 c 1
 432 372 l 1xbf40
178 75 m 1
 146 100 125 110 101 110 c 0
 78 110 58 91 58 68 c 0
 58 44 80 25 107 25 c 0xbe40
 136 25 157 39 178 75 c 1
EndSplineSet
EndChar
StartChar: fraction
Encoding: 164 8260 99
Width: 167
Flags: W
HStem: 0 21G<-217 -163> 688 20G<285 339>
DStem: 285 708 339 708 -217 0 -163 0
Fore
285 708 m 1
 339 708 l 1
 -163 0 l 1
 -217 0 l 1
 285 708 l 1
EndSplineSet
EndChar
StartChar: yen
Encoding: 165 165 100
Width: 556
Flags: W
HStem: 0 47<144 429> 152 47<114 230 342 457> 285 47<114 230 356 457> 675 47<-1 232 353 384 353 557>
VStem: 230 112<79 152 199 285>
DStem: 72 629 188 628 209 332 313 357 404 578 453 568 313 357 356 332
Fore
356 332 m 1
 457 332 l 1
 457 285 l 1
 342 285 l 1
 342 199 l 1
 457 199 l 1
 457 152 l 1
 342 152 l 1
 342 123 l 2
 342 69 342 69 347 61 c 0
 353 51 370 47 410 47 c 2
 429 47 l 1
 429 0 l 1
 144 0 l 1
 144 47 l 1
 163 47 l 2
 224 47 230 52 230 95 c 2
 230 123 l 1
 230 152 l 1
 114 152 l 1
 114 199 l 1
 230 199 l 1
 230 285 l 1
 114 285 l 1
 114 332 l 1
 209 332 l 1
 72 629 l 2
 54 667 44 675 13 675 c 2
 -1 675 l 1
 -1 722 l 1
 232 722 l 1
 232 675 l 1
 208 675 l 2
 188 675 180 670 180 656 c 0
 180 649 183 638 188 628 c 2
 313 357 l 1
 404 578 l 1
 412 595 416 615 416 631 c 0
 416 662 402 675 370 675 c 2
 353 675 l 1
 353 722 l 1
 557 722 l 1
 557 675 l 1
 553 675 l 2
 529 675 505 662 490 641 c 0
 478 625 472 614 453 568 c 2
 356 332 l 1
EndSplineSet
EndChar
StartChar: florin
Encoding: 166 402 101
Width: 556
Flags: W
HStem: -205 43<103 119> 390 47<119 235 332 465> 697 40<430 442>
VStem: 3 109<-126 -110> 432 109<640 655>
DStem: 235 390 328 390 218 181 309 163
Fore
332 437 m 1
 465 437 l 1
 465 390 l 1
 328 390 l 1
 309 163 l 2
 296 9 278 -69 243 -121 c 0
 208 -175 158 -205 105 -205 c 0
 47 -205 3 -170 3 -126 c 0
 3 -90 27 -63 60 -63 c 0
 89 -63 112 -84 112 -110 c 0
 112 -122 107 -135 100 -143 c 0
 96 -148 95 -149 95 -152 c 0
 95 -158 100 -162 109 -162 c 0
 136 -162 167 -134 181 -97 c 0
 199 -47 201 -32 218 181 c 1
 235 390 l 1
 119 390 l 1
 119 437 l 1
 239 437 l 1
 245 485 l 1
 253 555 270 612 295 651 c 0
 329 706 383 737 442 737 c 0
 501 737 541 704 541 655 c 0
 541 620 519 597 485 597 c 0
 455 597 432 616 432 640 c 0
 432 652 437 665 447 681 c 0
 449 684 450 686 450 688 c 0
 450 693 442 697 432 697 c 0
 415 697 396 686 381 666 c 0
 360 639 346 585 338 500 c 2
 332 437 l 1
EndSplineSet
EndChar
StartChar: section
Encoding: 167 167 102
Width: 500
Flags: W
HStem: -148 33<240 259> 142 26<303 323> 419 27<183 200> 703 33<241 267>
VStem: 58 66<315 346> 105 69<604 633> 112 110<-39 -30> 284 110<618 628> 337 69<-46 -16> 382 66<240 282>
Fore
242 538 m 2xf5
 352 446 l 2
 376 425 401 397 419 370 c 0
 440 340 448 314 448 282 c 0xf440
 448 203 392 142 321 142 c 0
 317 142 311 142 303 143 c 1
 339 114 343 110 356 96 c 0
 387 65 406 23 406 -16 c 0
 406 -91 342 -148 255 -148 c 0
 178 -148 112 -97 112 -37 c 0
 112 -6 136 18 167 18 c 0
 199 18 222 -3 222 -32 c 0xf280
 222 -51 215 -62 195 -77 c 0
 190 -81 187 -85 187 -88 c 0
 187 -101 219 -115 250 -115 c 0
 300 -115 337 -86 337 -46 c 0
 337 -11 320 12 246 73 c 2
 168 137 l 2
 88 203 58 251 58 315 c 0xf880
 58 389 113 446 183 446 c 2
 200 446 l 1
 164 481 159 485 146 501 c 0
 119 531 105 567 105 604 c 0
 105 681 166 736 252 736 c 0
 329 736 394 685 394 626 c 0
 394 595 370 571 339 571 c 0
 307 571 284 592 284 620 c 0
 284 638 293 653 310 665 c 0
 317 670 319 672 319 676 c 0
 319 690 288 703 256 703 c 0
 209 703 174 673 174 633 c 0
 174 605 193 579 242 538 c 2xf5
196 419 m 0
 155 419 124 388 124 346 c 0xf840
 124 309 139 286 195 235 c 0
 246 188 281 168 314 168 c 0
 350 168 382 202 382 240 c 0
 382 280 354 321 289 375 c 0
 253 404 221 419 196 419 c 0
EndSplineSet
EndChar
StartChar: currency
Encoding: 168 164 103
Width: 556
Flags: W
HStem: 94 82<265 283> 514 82<265 284>
VStem: 27 82<332 350> 447 82<332 351>
DStem: 79 197 130 146 26 144 77 93 479 597 530 545 426 544 477 493
Fore
426 544 m 1
 479 597 l 1
 530 545 l 1
 477 493 l 1
 511 449 529 396 529 342 c 0
 529 288 512 238 479 195 c 1
 530 144 l 1
 479 93 l 1
 428 144 l 1
 385 111 333 94 281 94 c 0
 228 94 173 113 130 146 c 1
 77 93 l 1
 26 144 l 1
 79 197 l 1
 45 243 27 294 27 348 c 0
 27 400 45 454 77 495 c 1
 26 545 l 1
 77 597 l 1
 128 546 l 1
 172 579 222 596 275 596 c 0
 329 596 380 578 426 544 c 1
278 514 m 0
 185 514 109 438 109 345 c 0
 109 253 185 176 276 176 c 0
 372 176 447 251 447 345 c 0
 447 438 371 514 278 514 c 0
EndSplineSet
EndChar
StartChar: quotesingle
Encoding: 169 39 104
Width: 204
Flags: W
HStem: 716 20G<90 114.5>
Fore
91 498 m 1
 60 677 l 2
 59 683 59 688 59 694 c 0
 59 718 78 736 102 736 c 0
 127 736 145 718 145 693 c 0
 145 687 145 682 144 677 c 2
 113 498 l 1
 91 498 l 1
EndSplineSet
EndChar
StartChar: quotedblleft
Encoding: 170 8220 105
Width: 389
Flags: W
VStem: 26 53<543 571> 210 53<543 571>
Fore
341 736 m 1
 365 708 l 1
 295 658 263 614 263 571 c 0
 263 565 266 562 270 562 c 2
 270 562 271 562 273 563 c 2
 291 564 l 2
 330 564 357 540 357 505 c 0
 357 470 329 444 292 444 c 0
 243 444 210 483 210 543 c 0
 210 614 252 675 341 736 c 1
157 736 m 1
 181 708 l 1
 120 670 79 614 79 571 c 0
 79 565 81 562 86 562 c 2
 86 562 87 562 89 563 c 2
 107 564 l 2
 146 564 173 540 173 505 c 0
 173 470 145 444 108 444 c 0
 59 444 26 483 26 543 c 0
 26 614 68 675 157 736 c 1
EndSplineSet
KernsSLIF: 89 38 1 0 87 29 1 0 86 36 1 0 84 47 1 0 262 -65 1 0 256 -65 1 0 257 -65 1 0 225 -78 1 0 65 -65 1 0
EndChar
StartChar: guillemotleft
Encoding: 171 171 106
Width: 426
Flags: W
Fore
266 185 m 1
 225 224 l 2
 218 231 212 237 205 243 c 1
 315 349 l 2
 365 398 369 402 377 402 c 0
 383 402 388 396 388 390 c 0
 388 381 373 356 344 318 c 0
 307 268 304 263 292 243 c 1
 376 124 387 106 387 96 c 0
 387 90 381 85 375 85 c 0
 369 85 363 89 353 100 c 1
 314 138 l 1
 266 185 l 1
99 185 m 1
 58 224 l 2
 51 231 45 237 38 243 c 1
 186 387 l 1
 196 398 203 402 209 402 c 0
 215 402 220 396 220 390 c 0
 220 382 209 364 176 318 c 1
 125 243 l 1
 209 124 220 106 220 96 c 0
 220 90 214 85 208 85 c 0
 202 85 196 89 186 100 c 1
 147 138 l 1
 99 185 l 1
EndSplineSet
EndChar
StartChar: guilsinglleft
Encoding: 172 8249 107
Width: 259
Flags: W
Fore
99 185 m 1
 58 224 l 2
 51 231 45 237 38 243 c 1
 188 388 l 2
 198 398 203 402 210 402 c 0
 216 402 221 397 221 390 c 0
 221 382 210 363 177 318 c 1
 125 243 l 1
 209 123 220 106 220 96 c 0
 220 90 214 85 208 85 c 0
 202 85 196 89 186 100 c 1
 147 138 l 1
 99 185 l 1
EndSplineSet
EndChar
StartChar: guilsinglright
Encoding: 173 8250 108
Width: 259
Flags: W
Fore
160 185 m 1
 112 138 l 1
 73 100 l 1
 63 89 57 85 50 85 c 0
 44 85 39 90 39 96 c 0
 39 106 51 125 134 243 c 1
 52 361 39 381 39 390 c 0
 39 396 45 402 51 402 c 0
 57 402 63 398 73 387 c 1
 131 330 l 1
 221 243 l 1
 160 185 l 1
EndSplineSet
KernsSLIF: 89 -112 1 0 87 -73 1 0 86 -85 1 0 84 -104 1 0 262 -36 1 0 256 -36 1 0 257 -36 1 0 225 -39 1 0 65 -36 1 0
EndChar
StartChar: fi
Encoding: 174 64257 109
Width: 611
Flags: W
HStem: 0 36<31 284 335 588> 423 43<16 111 205 392> 696 40<333 372>
VStem: 111 94<66.2543 423 466 497> 381 125<629 643> 415 94<66.2543 385>
Fore
111 466 m 1xf4
 111 475 l 2
 111 567 129 622 175 667 c 0
 222 714 281 736 358 736 c 0
 449 736 506 698 506 639 c 0
 506 603 481 579 443 579 c 0
 408 579 381 602 381 631 c 0xf8
 381 643 385 658 392 667 c 0
 398 675 398 676 398 680 c 0
 398 691 382 696 351 696 c 0
 304 696 267 678 241 642 c 0
 216 609 205 560 205 487 c 2
 205 466 l 1
 356 466 l 2
 404 466 437 468 509 473 c 1
 509 123 l 1
 509 82 l 2
 509 43 520 36 584 36 c 2
 588 36 l 1
 588 0 l 1
 335 0 l 1
 335 36 l 1
 339 36 l 2
 404 36 415 43 415 83 c 2
 415 123 l 1
 415 354 l 2
 415 419 412 423 372 423 c 2
 205 423 l 1
 205 123 l 1
 205 82 l 2
 205 43 216 36 280 36 c 2
 284 36 l 1
 284 0 l 1
 31 0 l 1
 31 36 l 1
 35 36 l 2
 100 36 111 43 111 83 c 2
 111 123 l 1
 111 423 l 1
 16 423 l 1
 16 466 l 1
 111 466 l 1xf4
EndSplineSet
Ligature: 0 0 'liga' f i
EndChar
StartChar: fl
Encoding: 175 64258 110
Width: 611
Flags: W
HStem: 0 36<25 292 331 590> 423 43<16 104 198 308> 697 40<321 365>
VStem: 104 94<66.2543 423 466 529> 413 94<66.2543 584>
Fore
507 737 m 1
 507 123 l 1
 507 83 l 2
 507 43 518 36 583 36 c 2
 590 36 l 1
 590 0 l 1
 331 0 l 1
 331 36 l 1
 338 36 l 2
 402 36 413 43 413 83 c 2
 413 123 l 1
 413 584 l 1
 403 581 398 580 391 580 c 0
 364 580 344 600 344 629 c 0
 344 643 347 653 359 672 c 0
 360 674 361 677 361 678 c 0
 361 689 344 697 321 697 c 0
 272 697 231 670 211 627 c 0
 202 606 198 573 198 523 c 2
 198 466 l 1
 308 466 l 1
 308 423 l 1
 198 423 l 1
 198 123 l 1
 198 83 l 2
 198 43 209 36 274 36 c 2
 292 36 l 1
 292 0 l 1
 25 0 l 1
 25 36 l 1
 29 36 l 2
 93 36 104 43 104 83 c 2
 104 123 l 1
 104 423 l 1
 16 423 l 1
 16 466 l 1
 104 466 l 1
 104 497 l 2
 104 592 125 644 181 688 c 0
 227 725 274 737 365 737 c 2
 507 737 l 1
EndSplineSet
Ligature: 0 0 'liga' f l
EndChar
StartChar: endash
Encoding: 177 8211 111
Width: 556
Flags: W
HStem: 206 61<0 556>
Fore
0 267 m 1
 556 267 l 1
 556 206 l 1
 0 206 l 1
 0 267 l 1
EndSplineSet
EndChar
StartChar: dagger
Encoding: 178 8224 112
Width: 500
Flags: W
HStem: 441 105<91 100 404 412> 717 20G<235.5 268.5>
VStem: 235 34<-144 1 477 477 509 538.287>
Fore
235 -144 m 1
 235 -60 l 2
 235 105 223 202 190 292 c 1
 224 341 235 387 235 477 c 1
 205 477 192 474 161 461 c 0
 121 443 114 441 98 441 c 0
 67 441 44 464 44 496 c 0
 44 525 65 546 94 546 c 0
 109 546 112 545 162 525 c 0
 194 513 206 510 235 509 c 1
 235 553 230 582 213 625 c 0
 202 656 199 666 199 681 c 0
 199 715 219 737 252 737 c 0
 285 737 305 715 305 681 c 0
 305 666 303 657 291 625 c 0
 274 583 269 551 269 509 c 1
 298 510 310 513 342 525 c 0
 392 545 395 546 410 546 c 0
 439 546 460 524 460 496 c 0
 460 464 437 441 406 441 c 0
 390 441 383 443 343 461 c 0
 312 474 299 477 269 477 c 1
 269 385 280 341 314 292 c 1
 281 202 269 104 269 -60 c 2
 269 -144 l 1
 235 -144 l 1
EndSplineSet
EndChar
StartChar: daggerdbl
Encoding: 179 8225 113
Width: 500
Flags: W
HStem: 47 105<94 103 398 416> 441 105<94 103 398 416> 717 20G<238.5 270.5>
VStem: 238 33<84 84 116 158.106 477 477 509 529>
Fore
271 518 m 2
 271 509 l 1
 300 510 312 513 344 525 c 0
 393 545 397 546 412 546 c 0
 441 546 462 525 462 496 c 0
 462 464 439 441 408 441 c 0
 392 441 386 443 345 461 c 0
 314 474 302 476 271 477 c 1
 271 384 281 345 317 296 c 1
 281 249 271 207 271 116 c 1
 302 117 314 119 345 132 c 0
 386 150 392 152 408 152 c 0
 439 152 462 129 462 97 c 0
 462 68 441 47 412 47 c 0
 397 47 394 48 344 68 c 0
 312 80 300 83 271 84 c 1
 271 41 276 13 293 -32 c 0
 304 -63 307 -74 307 -88 c 0
 307 -122 286 -144 255 -144 c 0
 222 -144 202 -122 202 -88 c 0
 202 -73 205 -63 216 -32 c 0
 233 12 238 40 238 84 c 1
 209 83 197 80 165 68 c 0
 115 48 112 47 97 47 c 0
 68 47 47 68 47 97 c 0
 47 129 70 152 101 152 c 0
 117 152 123 150 164 132 c 0
 195 119 208 117 238 116 c 1
 238 207 227 249 192 296 c 1
 227 344 238 386 238 477 c 1
 208 476 195 474 164 461 c 0
 124 443 117 441 101 441 c 0
 70 441 47 464 47 496 c 0
 47 525 68 546 97 546 c 0
 112 546 115 545 165 525 c 0
 197 513 209 510 238 509 c 1
 238 553 233 582 216 625 c 0
 205 656 202 666 202 681 c 0
 202 715 222 737 255 737 c 0
 286 737 307 715 307 681 c 0
 307 667 305 657 293 625 c 0
 277 583 271 554 271 518 c 2
EndSplineSet
EndChar
StartChar: periodcentered
Encoding: 180 183 114
Width: 278
Flags: W
Fore
139 309 m 0
 173 309 201 281 201 247 c 0
 201 212 173 184 138 184 c 0
 104 184 76 212 76 247 c 0
 76 281 104 309 139 309 c 0
EndSplineSet
EndChar
StartChar: paragraph
Encoding: 182 182 115
Width: 606
Flags: W
HStem: -144 36<198 557 542.667 557> 324 33<256 277> 686 36<222 277 282 427 537.333 557>
VStem: 49 136<511 563> 277 65<-81 686> 427 65<-107 657>
Fore
277 324 m 1
 247 324 l 2
 118 324 49 393 49 523 c 0
 49 608 79 671 135 700 c 0
 157 712 189 720 222 722 c 1
 282 722 l 1
 557 722 l 1
 557 686 l 1
 498 683 492 678 492 639 c 2
 492 599 l 1
 492 -21 l 2
 492 -86 492 -86 499 -94 c 0
 506 -103 514 -105 557 -108 c 1
 557 -144 l 1
 198 -144 l 1
 198 -108 l 1
 202 -108 l 2
 240 -108 263 -103 271 -94 c 0
 277 -86 277 -86 277 -21 c 2
 277 324 l 1
277 357 m 1
 277 686 l 1
 208 686 185 655 185 563 c 2
 185 481 l 2
 185 440 195 400 209 381 c 0
 222 364 238 357 265 357 c 2
 277 357 l 1
427 686 m 1
 342 686 l 1
 342 -107 l 1
 427 -107 l 1
 427 686 l 1
EndSplineSet
EndChar
StartChar: bullet
Encoding: 183 8226 116
Width: 606
Flags: W
Fore
303 554 m 0
 396 554 471 479 471 386 c 0
 471 291 396 217 301 217 c 0
 210 217 134 294 134 386 c 0
 134 479 210 554 303 554 c 0
EndSplineSet
EndChar
StartChar: quotesinglbase
Encoding: 184 8218 117
Width: 204
Flags: W
HStem: -30 20G<115 118>
VStem: 125 53<-19 9>
Fore
47 -183 m 1
 24 -155 l 1
 89 -112 125 -64 125 -19 c 0
 125 -13 123 -10 118 -10 c 2
 115 -10 l 2
 113 -11 103 -11 99 -11 c 0
 58 -11 31 12 31 48 c 0
 31 82 59 108 96 108 c 0
 145 108 178 69 178 9 c 0
 178 -61 136 -122 47 -183 c 1
EndSplineSet
EndChar
StartChar: quotedblbase
Encoding: 185 8222 118
Width: 389
Flags: W
HStem: -30 20G<115 118 299 302>
VStem: 125 53<-19 9> 309 53<-19 9>
Fore
47 -183 m 1
 24 -155 l 1
 91 -108 125 -61 125 -19 c 0
 125 -13 123 -10 118 -10 c 2
 115 -10 l 2
 113 -11 103 -11 99 -11 c 0
 58 -11 31 12 31 48 c 0
 31 82 59 108 96 108 c 0
 145 108 178 69 178 9 c 0
 178 -61 136 -122 47 -183 c 1
231 -183 m 1
 208 -155 l 1
 275 -108 309 -61 309 -19 c 0
 309 -13 307 -10 302 -10 c 2
 299 -10 l 2
 297 -11 287 -11 283 -11 c 0
 242 -11 215 12 215 48 c 0
 215 82 243 108 280 108 c 0
 329 108 362 69 362 9 c 0
 362 -61 320 -122 231 -183 c 1
EndSplineSet
KernsSLIF: 89 -63 1 0 87 -65 1 0 86 -81 1 0 84 -49 1 0 225 38 1 0 65 36 1 0
EndChar
StartChar: quotedblright
Encoding: 186 8221 119
Width: 389
Flags: W
HStem: 716 20G<77.5 120.5 261.5 304.5>
VStem: 125 53<609 637> 309 53<609 637>
Fore
47 444 m 1
 24 473 l 1
 92 522 125 567 125 609 c 0
 125 615 123 618 118 618 c 2
 115 618 l 2
 113 617 103 617 99 617 c 0
 58 617 31 640 31 676 c 0
 31 710 59 736 96 736 c 0
 145 736 178 697 178 637 c 0
 178 567 136 506 47 444 c 1
231 444 m 1
 208 473 l 1
 276 522 309 567 309 609 c 0
 309 615 307 618 302 618 c 2
 299 618 l 2
 297 617 287 617 283 617 c 0
 242 617 215 640 215 676 c 0
 215 710 243 736 280 736 c 0
 329 736 362 697 362 637 c 0
 362 567 320 506 231 444 c 1
EndSplineSet
KernsSLIF: 89 36 1 0 87 26 1 0 86 33 1 0 84 45 1 0 262 -68 1 0 256 -68 1 0 257 -68 1 0 225 -81 1 0 65 -68 1 0
EndChar
StartChar: guillemotright
Encoding: 187 187 120
Width: 426
Flags: W
Fore
160 185 m 1
 112 138 l 1
 73 100 l 1
 63 89 57 85 50 85 c 0
 44 85 39 90 39 96 c 0
 39 106 51 125 134 243 c 1
 52 361 39 381 39 390 c 0
 39 396 45 402 51 402 c 0
 57 402 63 398 73 387 c 1
 131 330 l 1
 221 243 l 1
 160 185 l 1
327 185 m 1
 279 138 l 1
 240 100 l 1
 230 89 224 85 217 85 c 0
 211 85 206 90 206 96 c 0
 206 106 218 125 301 243 c 1
 219 361 206 381 206 390 c 0
 206 396 212 402 218 402 c 0
 224 402 230 398 240 387 c 1
 298 330 l 1
 388 243 l 1
 327 185 l 1
EndSplineSet
KernsSLIF: 89 -112 1 0 87 -73 1 0 86 -85 1 0 84 -104 1 0 262 -36 1 0 256 -36 1 0 257 -36 1 0 225 -39 1 0 65 -36 1 0
EndChar
StartChar: ellipsis
Encoding: 188 8230 121
Width: 1000
Flags: W
HStem: -14 21G<149 183.5 482 516.5 815 849.5>
VStem: 104 125<37.6709 52> 437 125<37.6709 52> 770 125<37.6709 52>
CounterMasks: 1 00
Fore
167 111 m 0
 201 111 229 83 229 49 c 0
 229 14 201 -14 166 -14 c 0
 132 -14 104 14 104 49 c 0
 104 83 132 111 167 111 c 0
500 111 m 0
 534 111 562 83 562 49 c 0
 562 14 534 -14 499 -14 c 0
 465 -14 437 14 437 49 c 0
 437 83 465 111 500 111 c 0
833 111 m 0
 867 111 895 83 895 49 c 0
 895 14 867 -14 832 -14 c 0
 798 -14 770 14 770 49 c 0
 770 83 798 111 833 111 c 0
EndSplineSet
Ligature: 0 1 'liga' period period period
EndChar
StartChar: perthousand
Encoding: 189 8240 122
Width: 1000
Flags: W
HStem: -2 36<441 456 792 807> 310 37<537 553 887 902> 325 37<120 134> 579 35<353 371> 680 20G<519 558>
VStem: 2 81<414 441> 282 34<557 579> 325 78<85 110> 605 35<221 255> 676 78<85 110> 956 35<221 242>
DStem: 454 605 558 700 107 0 157 0
Fore
558 700 m 1xbfe0
 157 0 l 1
 107 0 l 1
 454 605 l 1
 421 586 398 579 365 579 c 0
 347 579 335 581 314 588 c 1
 315 579 316 572 316 563 c 0
 316 444 218 325 121 325 c 0
 55 325 2 376 2 441 c 0
 2 553 114 677 216 677 c 0
 250 677 280 661 297 634 c 1
 322 619 339 614 366 614 c 0
 426 614 468 637 519 700 c 1
 558 700 l 1xbfe0
220 640 m 1
 192 632 175 617 153 582 c 0
 108 511 83 451 83 414 c 0
 83 382 102 362 132 362 c 0
 203 362 282 469 282 566 c 0
 282 580 281 588 276 603 c 1
 247 615 236 623 220 640 c 1
537 347 m 0xdfe0
 597 347 640 302 640 239 c 0
 640 179 613 113 569 61 c 0
 533 20 489 -2 441 -2 c 0
 375 -2 325 46 325 110 c 0
 325 181 373 269 437 314 c 0
 468 336 500 347 537 347 c 0xdfe0
551 310 m 0
 520 310 495 289 462 232 c 0
 424 167 403 115 403 85 c 0
 403 56 425 34 454 34 c 0
 525 34 605 143 605 240 c 0
 605 280 582 310 551 310 c 0
887 347 m 0
 948 347 991 302 991 239 c 0
 991 179 964 113 920 61 c 0
 884 20 840 -2 792 -2 c 0
 725 -2 676 46 676 110 c 0
 676 182 724 269 788 314 c 0
 819 336 851 347 887 347 c 0
902 310 m 0
 871 310 846 288 813 232 c 0
 775 167 754 115 754 85 c 0
 754 56 776 34 805 34 c 0
 876 34 956 143 956 240 c 0
 956 280 932 310 902 310 c 0
EndSplineSet
EndChar
StartChar: questiondown
Encoding: 191 191 123
Width: 444
Flags: W
HStem: -202 45<221 247> 424 125<237 256>
VStem: 30 105<-43 -26> 224 44<309 343> 294 122<-54 -32>
Fore
224 343 m 1
 268 343 l 1
 268 311 l 2
 268 264 264 238 254 210 c 0
 241 175 241 175 167 74 c 0
 146 45 135 7 135 -34 c 0
 135 -112 176 -157 247 -157 c 0
 295 -157 339 -133 339 -107 c 0
 339 -99 338 -97 323 -85 c 0
 304 -69 294 -52 294 -32 c 0
 294 -1 319 23 351 23 c 0
 388 23 416 -10 416 -54 c 0
 416 -140 334 -202 221 -202 c 0
 107 -202 30 -132 30 -28 c 0
 30 42 52 76 150 163 c 1
 214 218 225 245 224 343 c 1
249 549 m 0
 283 549 311 521 311 486 c 0
 311 452 283 424 248 424 c 0
 214 424 186 452 186 486 c 0
 186 521 214 549 249 549 c 0
EndSplineSet
EndChar
StartChar: grave
Encoding: 193 96 124
Width: 333
Flags: W
HStem: 686 20G<42 60>
Fore
242 535 m 1
 201 535 l 1
 42 632 l 2
 27 642 17 657 17 671 c 0
 17 691 32 706 52 706 c 0
 68 706 77 700 102 675 c 2
 242 535 l 1
EndSplineSet
EndChar
StartChar: acute
Encoding: 194 180 125
Width: 333
Flags: W
HStem: 686 20G<273.5 290.5>
Fore
91 535 m 1
 231 675 l 2
 256 700 266 706 281 706 c 0
 300 706 316 690 316 671 c 0
 316 657 306 642 291 632 c 2
 132 535 l 1
 91 535 l 1
EndSplineSet
Ligature: 0 1 'liga' space acutecomb
EndChar
StartChar: circumflex
Encoding: 195 710 126
Width: 333
Flags: W
HStem: 681 20G<135 198>
Fore
198 701 m 1
 323 535 l 1
 287 535 l 1
 167 636 l 1
 46 535 l 1
 10 535 l 1
 135 701 l 1
 198 701 l 1
EndSplineSet
EndChar
StartChar: tilde
Encoding: 196 732 127
Width: 333
Flags: W
Fore
297 659 m 1
 332 659 l 1
 325 596 281 553 224 553 c 0
 198 553 186 557 135 581 c 0
 116 590 97 595 83 595 c 0
 60 595 43 580 36 553 c 1
 1 553 l 1
 14 615 52 654 101 654 c 0
 124 654 132 652 187 627 c 0
 221 612 232 608 246 608 c 0
 269 608 291 630 297 659 c 1
EndSplineSet
Ligature: 0 1 'liga' space tildecomb
EndChar
StartChar: macron
Encoding: 197 175 128
Width: 333
Flags: W
HStem: 568 54<10 323>
Fore
10 622 m 1
 323 622 l 1
 323 568 l 1
 10 568 l 1
 10 622 l 1
EndSplineSet
Ligature: 0 1 'liga' space uni0304
EndChar
StartChar: breve
Encoding: 198 728 129
Width: 333
Flags: W
HStem: 535 62<152 169> 672 20G<25 61 272 308>
Fore
272 692 m 1
 308 692 l 1
 308 678 l 2
 308 597 247 535 166 535 c 0
 85 535 25 597 25 679 c 2
 25 692 l 1
 61 692 l 1
 66 632 104 597 167 597 c 0
 229 597 267 632 272 692 c 1
EndSplineSet
Ligature: 0 1 'liga' space uni0306
EndChar
StartChar: dotaccent
Encoding: 199 729 130
Width: 333
Flags: W
Fore
167 644 m 0
 194 644 217 621 217 594 c 0
 217 566 194 544 166 544 c 0
 140 544 117 567 117 594 c 0
 117 621 140 644 167 644 c 0
EndSplineSet
Ligature: 0 1 'liga' space uni0307
EndChar
StartChar: dieresis
Encoding: 200 168 131
Width: 333
Flags: W
VStem: 17 100<594 596> 216 100<594 596>
Fore
67 644 m 0
 94 644 117 621 117 594 c 0
 117 566 94 544 66 544 c 0
 40 544 17 567 17 594 c 0
 17 621 40 644 67 644 c 0
266 644 m 0
 293 644 316 621 316 594 c 0
 316 566 293 544 265 544 c 0
 239 544 216 567 216 594 c 0
 216 621 239 644 266 644 c 0
EndSplineSet
Ligature: 0 1 'liga' space uni0308
EndChar
StartChar: ring
Encoding: 202 730 132
Width: 333
Flags: W
HStem: 530 36<162 170> 693 36<162 169>
VStem: 67 36<630 632> 230 36<630 632>
Fore
166 729 m 0
 221 729 266 684 266 630 c 0
 266 574 221 530 165 530 c 0
 112 530 67 575 67 630 c 0
 67 684 112 729 166 729 c 0
167 693 m 0
 132 693 103 664 103 630 c 0
 103 595 132 566 166 566 c 0
 202 566 230 594 230 630 c 0
 230 664 201 693 167 693 c 0
EndSplineSet
Ligature: 0 1 'liga' space uni030A
EndChar
StartChar: cedilla
Encoding: 203 184 133
Width: 333
Flags: W
HStem: -215 38<102 119> -98 38<114 155> -20 20G<115 150>
VStem: 161 76<-139 -128>
DStem: 115 0 150 0 71 -98 126 -63
Fore
150 0 m 1
 126 -63 l 1
 140 -61 147 -60 155 -60 c 0
 204 -60 237 -88 237 -128 c 0
 237 -179 188 -215 117 -215 c 0
 85 -215 57 -209 29 -198 c 1
 43 -165 l 1
 67 -173 85 -177 104 -177 c 0
 139 -177 161 -161 161 -137 c 0
 161 -114 142 -98 114 -98 c 0
 105 -98 92 -100 80 -103 c 1
 71 -98 l 1
 115 0 l 1
 150 0 l 1
EndSplineSet
Ligature: 0 1 'liga' space uni0327
EndChar
StartChar: hungarumlaut
Encoding: 205 733 134
Width: 333
Flags: W
HStem: 681 20G<121.5 140.5 249.5 268.5>
Fore
45 544 m 1
 80 642 l 2
 95 684 110 701 133 701 c 0
 148 701 160 688 160 673 c 0
 160 660 155 648 142 633 c 2
 61 535 l 1
 45 544 l 1
173 544 m 1
 208 642 l 2
 223 684 238 701 261 701 c 0
 276 701 288 688 288 673 c 0
 288 660 283 649 270 633 c 2
 189 535 l 1
 173 544 l 1
EndSplineSet
Ligature: 0 1 'liga' space uni030B
EndChar
StartChar: ogonek
Encoding: 206 731 135
Width: 333
Flags: W
HStem: -152 41<138 158> 0 0<120 208>
VStem: 68 50<-84 -67>
Fore
120 0 m 1
 208 0 l 2
 180 0 167 -2 156 -7 c 0
 134 -17 118 -42 118 -67 c 0
 118 -91 136 -111 158 -111 c 0
 180 -111 202 -100 230 -74 c 1
 246 -95 l 1
 205 -137 176 -152 138 -152 c 0
 98 -152 68 -123 68 -84 c 0
 68 -50 84 -24 120 0 c 1
EndSplineSet
Ligature: 0 1 'liga' space uni0328
EndChar
StartChar: caron
Encoding: 207 711 136
Width: 333
Flags: W
HStem: 681 20G<10 46 287 323>
Fore
135 535 m 1
 10 701 l 1
 46 701 l 1
 166 600 l 1
 287 701 l 1
 323 701 l 1
 198 535 l 1
 135 535 l 1
EndSplineSet
EndChar
StartChar: emdash
Encoding: 208 8212 137
Width: 1000
Flags: W
HStem: 206 61<0 1000>
Fore
0 267 m 1
 1000 267 l 1
 1000 206 l 1
 0 206 l 1
 0 267 l 1
EndSplineSet
EndChar
StartChar: uniFFFD
Encoding: 209 65533 138
Width: 333
Flags: W
HStem: -152 41<156 176> 0 0<106 132.988>
VStem: 196 50<-84 -67>
Fore
194 0 m 1
 106 0 l 2
 134 0 147 -2 158 -7 c 0
 180 -17 196 -42 196 -67 c 0
 196 -91 178 -111 156 -111 c 0
 134 -111 112 -100 84 -74 c 1
 68 -95 l 1
 109 -137 138 -152 176 -152 c 0
 216 -152 246 -123 246 -84 c 0
 246 -50 230 -24 194 0 c 1
EndSplineSet
Comment: "Reversed ogonek for Bashkir glyphs" 
Colour: ffffff
EndChar
StartChar: AE
Encoding: 225 198 138
Width: 1000
Flags: W
HStem: 0 47<207 233 359 943> 269 54<258 468> 466 256<240 947> 671 51<240 460>
VStem: 468 112<79 269 323 350 323 641>
DStem: 336 576 441 653 89 132 258 323 336 576 229 269 89 132 158 139
Fore
933 722 m 1xe8
 947 466 l 1
 904 466 l 1
 889 555 865 613 833 639 c 0
 803 662 744 675 667 675 c 2
 643 675 l 2
 589 675 580 668 580 625 c 2
 580 397 l 1
 593 397 l 2
 688 397 728 436 733 534 c 1
 780 534 l 1
 780 206 l 1
 733 206 l 1
 731 265 721 297 695 323 c 0
 675 344 650 350 589 350 c 2
 580 350 l 1
 580 95 l 2
 580 74 581 68 588 62 c 0
 597 53 622 47 652 47 c 2
 687 47 l 2
 771 47 828 66 859 106 c 0
 883 136 906 197 920 267 c 1
 963 267 l 1
 943 0 l 1
 359 0 l 1
 359 47 l 1
 378 47 l 2
 459 47 468 52 468 94 c 2
 468 123 l 1
 468 269 l 1
 229 269 l 1
 158 139 l 1
 149 121 144 105 144 93 c 0
 144 62 170 47 222 47 c 2
 233 47 l 1
 233 0 l 1
 0 0 l 1
 0 47 l 1
 35 54 55 73 89 132 c 1
 336 576 l 2
 344 591 349 607 349 621 c 0
 349 643 335 661 314 668 c 0
 297 674 286 675 251 675 c 2
 240 675 l 1
 240 722 l 1
 933 722 l 1xe8
468 323 m 1
 468 648 l 2
 468 668 466 671 458 671 c 0xd8
 452 671 448 667 441 653 c 1
 258 323 l 1
 468 323 l 1
EndSplineSet
EndChar
StartChar: ordfeminine
Encoding: 227 170 139
Width: 334
Flags: W
HStem: 329 40<23 283> 433 31<99 122> 438 35<269 294> 704 26<132 151>
VStem: 5 66<501 515> 22 73<647 657> 209 61<536 657>
Fore
270 635 m 2xd6
 270 514 l 2
 270 485 277 473 294 473 c 0
 300 473 300 473 312 477 c 0
 317 479 320 480 322 480 c 0
 326 480 329 477 329 473 c 0
 329 456 298 438 269 438 c 0xb6
 239 438 223 450 213 480 c 1
 184 450 144 433 99 433 c 0
 42 433 5 460 5 503 c 0xda
 5 541 32 569 88 588 c 0
 120 599 139 604 209 615 c 1
 209 639 l 2
 209 662 205 676 196 685 c 0
 187 696 162 704 138 704 c 0
 107 704 81 694 81 681 c 0
 81 679 82 678 85 673 c 0
 92 664 95 657 95 649 c 0
 95 631 80 618 60 618 c 0
 37 618 22 633 22 655 c 0
 22 698 76 730 149 730 c 0
 190 730 222 722 244 706 c 0
 263 692 270 673 270 635 c 2xd6
209 562 m 2
 209 590 l 1
 103 573 71 555 71 511 c 0
 71 484 93 464 122 464 c 0xda
 150 464 179 479 196 501 c 0
 207 517 209 525 209 562 c 2
23 369 m 1
 283 369 l 1
 283 329 l 1
 23 329 l 1
 23 369 l 1
EndSplineSet
EndChar
StartChar: Lslash
Encoding: 232 321 140
Width: 667
Flags: W
HStem: 0 47<34 625> 675 47<34 83 34 362>
VStem: 142 112<79 268 323 332 324 641>
DStem: 142 324 142 268 34 248 34 193 441 526 441 468 254 389 254 332
Fore
142 268 m 1
 34 193 l 1
 34 248 l 1
 142 324 l 1
 142 599 l 1
 142 628 l 2
 142 670 133 675 52 675 c 2
 34 675 l 1
 34 722 l 1
 362 722 l 1
 362 675 l 1
 344 675 l 2
 263 675 254 670 254 628 c 2
 254 599 l 1
 254 389 l 1
 441 526 l 1
 441 468 l 1
 254 332 l 1
 254 95 l 2
 254 74 255 68 262 62 c 0
 271 53 296 47 326 47 c 2
 369 47 l 2
 456 47 508 64 541 105 c 0
 569 141 591 202 601 274 c 1
 645 274 l 1
 625 0 l 1
 34 0 l 1
 34 47 l 1
 52 47 l 2
 133 47 142 52 142 94 c 2
 142 123 l 1
 142 268 l 1
EndSplineSet
EndChar
StartChar: Oslash
Encoding: 233 216 141
Width: 778
Flags: W
HStem: -15 47<381 399> 690 47<365.511 399>
VStem: 44 132<339 374> 601 132<339 389>
DStem: 151 88 183 58 30 -76 84 -76 542 616 566 575 206 163 229 120 650 762 704 762 585 674 618 645
Fore
585 674 m 1
 650 762 l 1
 704 762 l 1
 618 645 l 1
 690 573 733 468 733 366 c 0
 733 256 679 133 600 62 c 0
 546 14 466 -15 387 -15 c 0
 310 -15 246 8 183 58 c 1
 84 -76 l 1
 30 -76 l 1
 151 88 l 1
 85 157 44 261 44 360 c 0
 44 471 95 586 176 657 c 0
 236 710 309 737 391 737 c 0
 463 737 524 717 585 674 c 1
206 163 m 1
 542 616 l 1
 505 666 454 690 388 690 c 0
 249 690 176 574 176 353 c 0
 176 271 186 208 206 163 c 1
566 575 m 1
 229 120 l 1
 266 62 320 32 390 32 c 0
 455 32 512 61 545 112 c 0
 585 174 601 246 601 372 c 0
 601 467 591 523 566 575 c 1
EndSplineSet
KernsSLIF: 65 -44 0 0
EndChar
StartChar: OE
Encoding: 234 338 142
Width: 1000
Flags: W
HStem: 0 47<338 373 657 961> 466 256<381 965> 675 47<347 381 381 713>
VStem: 19 132<348 385> 484 112<191 350 237 625>
Fore
951 722 m 1xd8
 965 466 l 1
 921 466 l 1xd8
 906 555 883 613 850 639 c 0
 820 662 762 675 685 675 c 2
 659 675 l 2xb8
 605 675 596 668 596 625 c 2
 596 397 l 1
 609 397 l 2
 704 397 744 436 749 534 c 1
 796 534 l 1
 796 206 l 1
 749 206 l 1
 747 265 737 297 711 323 c 0
 691 344 666 350 605 350 c 2
 596 350 l 1
 596 95 l 2
 596 74 597 68 604 62 c 0
 613 53 638 47 668 47 c 2
 705 47 l 2
 853 47 903 95 937 267 c 1
 981 267 l 1
 961 0 l 1
 373 0 l 2
 265 0 192 27 130 90 c 0
 60 162 19 264 19 366 c 0
 19 480 69 590 151 654 c 0
 208 699 285 722 381 722 c 2
 951 722 l 1xd8
484 237 m 2
 484 509 l 2
 484 583 480 603 458 630 c 0
 435 659 395 675 347 675 c 0xb8
 284 675 229 647 201 600 c 0
 168 545 151 463 151 360 c 0
 151 151 216 47 348 47 c 0
 400 47 444 68 464 102 c 0
 480 131 484 160 484 237 c 2
EndSplineSet
EndChar
StartChar: ordmasculine
Encoding: 235 186 143
Width: 300
Flags: W
HStem: 329 40<21 281> 433 26<137 154> 704 26<152 154>
VStem: 10 68<568 590> 223 68<568 589>
Fore
152 730 m 0
 230 730 291 664 291 578 c 0
 291 492 233 433 148 433 c 0
 67 433 10 494 10 581 c 0
 10 665 71 730 152 730 c 0
152 704 m 0
 102 704 78 664 78 579 c 0
 78 501 103 459 150 459 c 0
 199 459 223 501 223 587 c 0
 223 662 198 704 152 704 c 0
21 369 m 1
 281 369 l 1
 281 329 l 1
 21 329 l 1
 21 369 l 1
EndSplineSet
EndChar
StartChar: ae
Encoding: 241 230 144
Width: 796
Flags: W
HStem: -15 52<184 212 554 575> 225 43<434 758> 438 43<238 261 534.126 556>
VStem: 36 101<99 120> 63 113<343 356> 337 96<193 225 268 292> 650 108<243 305>
Fore
723 146 m 1xee
 759 127 l 1
 714 30 649 -15 554 -15 c 0
 496 -15 435 5 398 38 c 0
 389 45 383 52 363 73 c 1
 311 10 260 -15 184 -15 c 0
 94 -15 36 30 36 99 c 0xf6
 36 165 76 214 154 244 c 0
 205 264 230 270 337 289 c 1
 337 335 l 2
 337 410 311 438 240 438 c 0
 193 438 154 421 154 400 c 0
 154 396 155 393 161 386 c 0
 171 372 176 358 176 345 c 0
 176 315 153 294 122 294 c 0
 86 294 63 318 63 356 c 0
 63 426 146 481 253 481 c 0
 322 481 379 460 407 424 c 1
 447 461 498 481 552 481 c 0
 614 481 670 453 705 403 c 0
 738 358 758 297 758 243 c 2
 758 225 l 1
 433 225 l 1
 434 165 440 134 457 105 c 0
 484 61 522 39 573 39 c 0
 639 39 682 70 723 146 c 1xee
337 193 m 2
 337 246 l 1
 255 232 224 224 196 209 c 0
 157 187 137 157 137 120 c 0
 137 72 168 37 212 37 c 0
 253 37 294 59 317 92 c 0
 334 118 337 131 337 193 c 2
434 268 m 1
 609 268 l 2
 641 268 650 276 650 305 c 0
 650 384 610 437 549 437 c 0
 501 437 468 408 448 348 c 0
 438 321 434 298 434 268 c 1
EndSplineSet
KernsSLIF: 121 -29 0 0 119 -25 0 0 118 -21 0 0
EndChar
StartChar: dotlessi
Encoding: 245 305 145
Width: 315
Flags: W
HStem: 0 36<30 289>
VStem: 112 94<66.2543 369>
Fore
206 466 m 1
 206 123 l 1
 206 83 l 2
 206 43 217 36 282 36 c 2
 289 36 l 1
 289 0 l 1
 30 0 l 1
 30 36 l 1
 37 36 l 2
 101 36 112 43 112 83 c 2
 112 123 l 1
 112 362 l 2
 112 404 106 412 69 412 c 2
 18 412 l 1
 18 455 l 1
 206 466 l 1
EndSplineSet
EndChar
StartChar: lslash
Encoding: 248 322 146
Width: 315
Flags: W
HStem: 0 36<28 287>
VStem: 110 94<66.2543 309 365 365 365 737>
Fore
204 421 m 1
 282 475 l 1
 282 419 l 1
 204 365 l 1
 204 123 l 1
 204 83 l 2
 204 43 215 36 280 36 c 2
 287 36 l 1
 287 0 l 1
 28 0 l 1
 28 36 l 1
 35 36 l 2
 99 36 110 43 110 83 c 2
 110 123 l 1
 110 309 l 1
 32 255 l 1
 32 311 l 1
 110 365 l 1
 110 633 l 2
 110 676 104 683 68 683 c 2
 19 683 l 1
 19 726 l 1
 204 737 l 1
 204 421 l 1
EndSplineSet
EndChar
StartChar: oslash
Encoding: 249 248 147
Width: 500
Flags: W
HStem: -15 43<241 259> 438 43<241 259>
VStem: 34 105<212 246> 361 105<212 246>
DStem: 120 28 158 4 59 -91 109 -91 316 409 343 364 158 102 185 57 391 555 441 555 341 458 378 433
Fore
341 458 m 1
 391 555 l 1
 441 555 l 1
 378 433 l 1
 433 386 466 309 466 228 c 0
 466 85 375 -15 247 -15 c 0
 213 -15 183 -9 158 4 c 1
 109 -91 l 1
 59 -91 l 1
 120 28 l 1
 65 76 34 149 34 232 c 0
 34 371 130 481 250 481 c 0
 282 481 310 474 341 458 c 1
158 102 m 1
 316 409 l 1
 296 430 277 438 251 438 c 0
 177 438 139 367 139 229 c 0
 139 176 145 138 158 102 c 1
343 364 m 1
 185 57 l 1
 202 37 223 28 249 28 c 0
 290 28 326 56 341 98 c 0
 354 136 361 188 361 242 c 0
 361 289 355 329 343 364 c 1
EndSplineSet
EndChar
StartChar: oe
Encoding: 250 339 148
Width: 833
Flags: W
HStem: -15 43<241 259> -15 54<594 615> 225 43<473 800> 438 43<241 259 577 596>
VStem: 34 105<208 241> 366 106<208 239>
Fore
765 146 m 1x7c
 800 127 l 1
 759 32 690 -15 594 -15 c 0x7c
 522 -15 457 13 418 62 c 1
 375 10 320 -15 248 -15 c 0xbc
 123 -15 34 87 34 232 c 0
 34 371 131 481 253 481 c 0
 318 481 383 448 420 394 c 1
 465 452 523 481 592 481 c 0
 715 481 800 376 800 225 c 1
 472 225 l 1
 472 170 480 134 497 105 c 0
 524 60 562 39 613 39 c 0
 680 39 724 70 765 146 c 1x7c
254 438 m 0
 178 438 139 368 139 229 c 0
 139 100 179 28 252 28 c 0xbc
 294 28 331 55 346 98 c 0
 358 135 366 188 366 239 c 0
 366 367 326 438 254 438 c 0
473 268 m 1
 650 268 l 2
 683 268 692 276 692 305 c 0
 692 385 651 438 590 438 c 0
 542 438 508 409 487 349 c 0
 478 321 474 298 473 268 c 1
EndSplineSet
EndChar
StartChar: germandbls
Encoding: 251 223 149
Width: 574
Flags: W
HStem: -15 38<359 373> 0 36<29 202> 695 42<295 318>
VStem: 29 173<0 557> 108 94<75 557> 252 109<75 87> 403 94<544 578> 430 105<176 210>
Fore
108 123 m 1x6c
 108 493 l 2
 108 587 116 623 147 665 c 0
 181 711 238 737 306 737 c 0
 422 737 497 668 497 563 c 0x6e
 497 494 467 451 391 412 c 1
 431 397 453 384 475 362 c 0
 512 323 535 259 535 194 c 0
 535 70 468 -15 371 -15 c 0
 298 -15 252 21 252 77 c 0
 252 114 274 138 307 138 c 0
 337 138 361 115 361 85 c 0
 361 74 360 70 349 49 c 0
 348 46 347 43 347 39 c 0
 347 29 355 23 366 23 c 0
 404 23 430 93 430 195 c 0xa5
 430 299 404 360 351 384 c 0
 337 390 328 392 297 394 c 0
 276 395 269 400 269 414 c 0
 269 431 279 436 306 436 c 0
 374 436 403 472 403 559 c 0
 403 648 369 695 305 695 c 0
 240 695 202 644 202 557 c 2
 202 0 l 1
 29 0 l 1
 29 36 l 1x76
 33 36 l 2
 97 36 108 43 108 84 c 2
 108 123 l 1x6c
EndSplineSet
EndChar
StartChar: Adieresis
Encoding: 256 196 150
Width: 722
Flags: W
HStem: 0 47<-8 257 421 731> 234 54<218 463> 716 20G<336 378> 802 100<255 265 455 465>
VStem: 209 100<852 854> 408 100<852 854>
DStem: 329 572 378 736 442 288 633 111 336 736 329 572 106 153 218 288 336 736 198 234 106 153 165 146 463 234 378 736 517 100 633 111
Fore
378 736 m 1
 633 111 l 2
 656 55 667 47 717 47 c 2
 731 47 l 1
 731 0 l 1
 421 0 l 1
 421 47 l 1
 463 47 l 2
 500 47 525 57 525 73 c 0
 525 78 523 85 517 100 c 2
 463 234 l 1
 198 234 l 1
 165 146 l 2
 159 130 156 116 156 104 c 0
 156 66 183 47 237 47 c 2
 257 47 l 1
 257 0 l 1
 -8 0 l 1
 -8 47 l 1
 -4 47 l 2
 23 47 51 59 67 78 c 0
 82 94 86 101 106 153 c 1
 336 736 l 1
 378 736 l 1
329 572 m 1
 218 288 l 1
 442 288 l 1
 329 572 l 1
259 902 m 0
 286 902 309 879 309 852 c 0
 309 824 286 802 258 802 c 0
 232 802 209 825 209 852 c 0
 209 879 232 902 259 902 c 0
458 902 m 0
 485 902 508 879 508 852 c 0
 508 824 485 802 457 802 c 0
 431 802 408 825 408 852 c 0
 408 879 431 902 458 902 c 0
EndSplineSet
KernsSLIF: 121 -70 0 0 119 -61 0 0 118 -66 0 0 117 -15 0 0 116 -12 0 0 39 -66 0 0 186 -67 0 0 46 12 0 0 111 -9 0 0 45 -6 0 0 172 -36 0 0 171 -36 0 0 103 18 0 0 100 -6 0 0 44 13 0 0 99 -2 0 0 98 8 0 0 97 15 0 0 89 -45 0 0 87 -90 0 0 86 -101 0 0 85 -41 0 0 84 -31 0 0 81 -39 0 0 79 -41 0 0 71 -37 0 0 67 -38 0 0
Ligature: 0 0 'liga' A uni0308
EndChar
StartChar: Aacute
Encoding: 257 193 151
Width: 722
Flags: W
HStem: 0 47<-8 257 421 731> 234 54<218 463> 716 20G<336 378>
DStem: 329 572 378 736 442 288 633 111 336 736 329 572 106 153 218 288 336 736 198 234 106 153 165 146 463 234 378 736 517 100 633 111
Fore
378 736 m 1
 633 111 l 2
 656 55 667 47 717 47 c 2
 731 47 l 1
 731 0 l 1
 421 0 l 1
 421 47 l 1
 463 47 l 2
 500 47 525 57 525 73 c 0
 525 78 523 85 517 100 c 2
 463 234 l 1
 198 234 l 1
 165 146 l 2
 159 130 156 116 156 104 c 0
 156 66 183 47 237 47 c 2
 257 47 l 1
 257 0 l 1
 -8 0 l 1
 -8 47 l 1
 -4 47 l 2
 23 47 51 59 67 78 c 0
 82 94 86 101 106 153 c 1
 336 736 l 1
 378 736 l 1
329 572 m 1
 218 288 l 1
 442 288 l 1
 329 572 l 1
289 787 m 1
 429 928 l 2
 453 952 464 958 479 958 c 0
 498 958 514 942 514 923 c 0
 514 909 504 894 489 885 c 2
 330 787 l 1
 289 787 l 1
EndSplineSet
KernsSLIF: 121 -70 0 0 119 -61 0 0 118 -66 0 0 117 -15 0 0 116 -12 0 0 39 -66 0 0 46 12 0 0 111 -9 0 0 45 -6 0 0 172 -36 0 0 171 -36 0 0 103 18 0 0 101 -5 0 0 100 -6 0 0 44 13 0 0 99 -2 0 0 98 8 0 0 97 15 0 0 89 -45 0 0 87 -90 0 0 86 -101 0 0 85 -41 0 0 84 -31 0 0 81 -39 0 0 79 -41 0 0 71 -37 0 0 67 -38 0 0
Ligature: 0 0 'liga' A acutecomb
EndChar
StartChar: Agrave
Encoding: 258 192 152
Width: 722
Flags: W
HStem: 0 47<-8 257 421 731> 234 54<218 463> 716 20G<336 378>
DStem: 329 572 378 736 442 288 633 111 336 736 329 572 106 153 218 288 336 736 198 234 106 153 165 146 463 234 378 736 517 100 633 111
Fore
378 736 m 1
 633 111 l 2
 656 55 667 47 717 47 c 2
 731 47 l 1
 731 0 l 1
 421 0 l 1
 421 47 l 1
 463 47 l 2
 500 47 525 57 525 73 c 0
 525 78 523 85 517 100 c 2
 463 234 l 1
 198 234 l 1
 165 146 l 2
 159 130 156 116 156 104 c 0
 156 66 183 47 237 47 c 2
 257 47 l 1
 257 0 l 1
 -8 0 l 1
 -8 47 l 1
 -4 47 l 2
 23 47 51 59 67 78 c 0
 82 94 86 101 106 153 c 1
 336 736 l 1
 378 736 l 1
329 572 m 1
 218 288 l 1
 442 288 l 1
 329 572 l 1
427 787 m 1
 386 787 l 1
 227 885 l 2
 212 894 202 909 202 923 c 0
 202 943 217 958 237 958 c 0
 252 958 262 952 287 928 c 1
 427 787 l 1
EndSplineSet
KernsSLIF: 46 12 0 0 44 13 0 0 89 -45 0 0 87 -90 0 0 86 -101 0 0 85 -41 0 0 84 -31 0 0 81 -39 0 0 79 -41 0 0 71 -37 0 0 67 -38 0 0
Ligature: 0 0 'liga' A gravecomb
EndChar
StartChar: Acircumflex
Encoding: 259 194 153
Width: 722
Flags: W
HStem: 0 47<-8 257 421 731> 234 54<218 463> 716 20G<336 378>
DStem: 329 572 378 736 442 288 633 111 336 736 329 572 106 153 218 288 336 736 198 234 106 153 165 146 463 234 378 736 517 100 633 111
Fore
378 736 m 1
 633 111 l 2
 656 55 667 47 717 47 c 2
 731 47 l 1
 731 0 l 1
 421 0 l 1
 421 47 l 1
 463 47 l 2
 500 47 525 57 525 73 c 0
 525 78 523 85 517 100 c 2
 463 234 l 1
 198 234 l 1
 165 146 l 2
 159 130 156 116 156 104 c 0
 156 66 183 47 237 47 c 2
 257 47 l 1
 257 0 l 1
 -8 0 l 1
 -8 47 l 1
 -4 47 l 2
 23 47 51 59 67 78 c 0
 82 94 86 101 106 153 c 1
 336 736 l 1
 378 736 l 1
329 572 m 1
 218 288 l 1
 442 288 l 1
 329 572 l 1
390 953 m 1
 515 787 l 1
 479 787 l 1
 359 888 l 1
 238 787 l 1
 202 787 l 1
 327 953 l 1
 390 953 l 1
EndSplineSet
KernsSLIF: 46 12 0 0 44 13 0 0 89 -45 0 0 87 -90 0 0 86 -101 0 0 85 -41 0 0 84 -31 0 0 81 -39 0 0 79 -41 0 0 71 -37 0 0 67 -38 0 0
Ligature: 0 0 'liga' A uni0302
EndChar
StartChar: Abreve
Encoding: 260 258 154
Width: 722
Flags: W
HStem: 0 47<-8 257 421 731> 234 54<218 463> 716 20G<336 378> 787 62<343 377>
DStem: 329 572 378 736 442 288 633 111 336 736 329 572 106 153 218 288 336 736 198 234 106 153 165 146 463 234 378 736 517 100 633 111
Fore
378 736 m 1
 633 111 l 2
 656 55 667 47 717 47 c 2
 731 47 l 1
 731 0 l 1
 421 0 l 1
 421 47 l 1
 463 47 l 2
 500 47 525 57 525 73 c 0
 525 78 523 85 517 100 c 2
 463 234 l 1
 198 234 l 1
 165 146 l 2
 159 130 156 116 156 104 c 0
 156 66 183 47 237 47 c 2
 257 47 l 1
 257 0 l 1
 -8 0 l 1
 -8 47 l 1
 -4 47 l 2
 23 47 51 59 67 78 c 0
 82 94 86 101 106 153 c 1
 336 736 l 1
 378 736 l 1
329 572 m 1
 218 288 l 1
 442 288 l 1
 329 572 l 1
466 944 m 1
 502 944 l 1
 502 930 l 2
 502 849 441 787 360 787 c 0
 279 787 219 849 219 931 c 2
 219 944 l 1
 255 944 l 1
 260 884 298 849 361 849 c 0
 423 849 461 884 466 944 c 1
EndSplineSet
Ligature: 0 0 'liga' A uni0306
EndChar
StartChar: Atilde
Encoding: 261 195 155
Width: 722
Flags: W
HStem: 0 47<-8 257 421 731> 234 54<218 463> 716 20G<336 378> 809 55<417 439> 851 59<276 294>
DStem: 329 572 378 736 442 288 633 111 336 736 329 572 106 153 218 288 336 736 198 234 106 153 165 146 463 234 378 736 517 100 633 111
Fore
378 736 m 1xe0
 633 111 l 2
 656 55 667 47 717 47 c 2
 731 47 l 1
 731 0 l 1
 421 0 l 1
 421 47 l 1
 463 47 l 2
 500 47 525 57 525 73 c 0
 525 78 523 85 517 100 c 2
 463 234 l 1
 198 234 l 1
 165 146 l 2
 159 130 156 116 156 104 c 0
 156 66 183 47 237 47 c 2
 257 47 l 1
 257 0 l 1
 -8 0 l 1
 -8 47 l 1
 -4 47 l 2
 23 47 51 59 67 78 c 0
 82 94 86 101 106 153 c 1
 336 736 l 1
 378 736 l 1xe0
329 572 m 1
 218 288 l 1
 442 288 l 1
 329 572 l 1
490 915 m 1
 525 915 l 1
 518 852 474 809 417 809 c 0xf0
 391 809 379 813 328 837 c 0
 309 846 290 851 276 851 c 0xe8
 253 851 236 836 229 809 c 1
 194 809 l 1xf0
 207 871 245 910 294 910 c 0xe8
 317 910 325 908 380 883 c 0
 414 868 425 864 439 864 c 0xf0
 462 864 484 886 490 915 c 1
EndSplineSet
KernsSLIF: 46 12 0 0 44 13 0 0 89 -45 0 0 87 -90 0 0 86 -101 0 0 85 -41 0 0 84 -31 0 0 81 -39 0 0 79 -41 0 0 71 -37 0 0 67 -38 0 0
Ligature: 0 0 'liga' A tildecomb
EndChar
StartChar: Aring
Encoding: 262 197 156
Width: 722
Flags: W
HStem: 0 47<-8 257 421 731> 234 54<218 463> 716 20G<336 378> 780 36<355 362> 943 36<355 361>
VStem: 259 36<868.782 883> 422 36<868.349 883>
DStem: 329 572 378 736 442 288 633 111 336 736 329 572 106 153 218 288 336 736 198 234 106 153 165 146 463 234 378 736 517 100 633 111
Fore
378 736 m 1
 633 111 l 2
 656 55 667 47 717 47 c 2
 731 47 l 1
 731 0 l 1
 421 0 l 1
 421 47 l 1
 463 47 l 2
 500 47 525 57 525 73 c 0
 525 78 523 85 517 100 c 2
 463 234 l 1
 198 234 l 1
 165 146 l 2
 159 130 156 116 156 104 c 0
 156 66 183 47 237 47 c 2
 257 47 l 1
 257 0 l 1
 -8 0 l 1
 -8 47 l 1
 -4 47 l 2
 23 47 51 59 67 78 c 0
 82 94 86 101 106 153 c 1
 336 736 l 1
 378 736 l 1
329 572 m 1
 218 288 l 1
 442 288 l 1
 329 572 l 1
358 979 m 0
 413 979 458 934 458 880 c 0
 458 824 413 780 357 780 c 0
 304 780 259 825 259 880 c 0
 259 934 304 979 358 979 c 0
359 943 m 0
 324 943 295 914 295 880 c 0
 295 845 324 816 358 816 c 0
 394 816 422 844 422 880 c 0
 422 914 393 943 359 943 c 0
EndSplineSet
KernsSLIF: 121 -70 0 0 119 -61 0 0 118 -66 0 0 117 -15 0 0 116 -12 0 0 39 -66 0 0 186 -67 0 0 46 12 0 0 111 -9 0 0 45 -6 0 0 172 -36 0 0 171 -36 0 0 103 18 0 0 101 -5 0 0 100 -6 0 0 44 13 0 0 99 -2 0 0 98 8 0 0 97 15 0 0 89 -45 0 0 87 -90 0 0 86 -101 0 0 85 -41 0 0 84 -31 0 0 81 -39 0 0 79 -41 0 0 71 -37 0 0 67 -38 0 0
Ligature: 0 0 'liga' A uni030A
EndChar
StartChar: Aogonek
Encoding: 263 260 157
Width: 722
Flags: W
HStem: -152 41<661 681> 0 47<-8 257 421 643> 234 54<218 463> 716 20G<336 378>
VStem: 591 50<-84 -67>
DStem: 329 572 378 736 442 288 633 111 336 736 329 572 106 153 218 288 336 736 198 234 106 153 165 146 463 234 378 736 517 100 633 111
Fore
336 736 m 1
 378 736 l 1
 633 111 l 2
 656 55 667 47 717 47 c 2
 731 47 l 1
 731 0 l 1
 704 -1 697 -1 687 -4 c 0
 660 -12 641 -38 641 -67 c 0
 641 -91 659 -111 681 -111 c 0
 703 -111 724 -100 753 -74 c 1
 769 -95 l 1
 728 -137 698 -152 661 -152 c 0
 621 -152 591 -123 591 -84 c 0
 591 -50 607 -24 643 0 c 1
 421 0 l 1
 421 47 l 1
 463 47 l 2
 500 47 525 57 525 73 c 0
 525 78 523 85 517 100 c 2
 463 234 l 1
 198 234 l 1
 165 146 l 2
 159 130 156 116 156 104 c 0
 156 66 183 47 237 47 c 2
 257 47 l 1
 257 0 l 1
 -8 0 l 1
 -8 47 l 1
 -4 47 l 2
 23 47 51 59 67 78 c 0
 82 94 86 101 106 153 c 1
 336 736 l 1
329 572 m 1
 218 288 l 1
 442 288 l 1
 329 572 l 1
EndSplineSet
Ligature: 0 0 'liga' A uni0328
EndChar
StartChar: Ccedilla
Encoding: 264 199 158
Width: 722
Flags: W
HStem: -216 38<300 319> -99 38<315 357> -15 47<380 414> 690 47<364 397>
VStem: 45 132<327 377> 362 76<-140 -129>
DStem: 312 -8 346 -13 273 -100 327 -64
Fore
346 -13 m 1
 327 -64 l 1
 342 -62 348 -61 357 -61 c 0
 405 -61 438 -89 438 -129 c 0
 438 -180 389 -216 317 -216 c 0
 287 -216 258 -211 230 -199 c 1
 244 -166 l 1
 268 -174 287 -178 306 -178 c 0
 340 -178 362 -162 362 -138 c 0
 362 -115 343 -99 315 -99 c 0
 306 -99 294 -101 281 -105 c 1
 273 -100 l 1
 312 -8 l 1
 264 0 224 18 183 51 c 1
 93 120 45 226 45 354 c 0
 45 457 75 541 139 617 c 0
 207 698 287 737 384 737 c 0
 451 737 490 722 561 670 c 1
 601 729 l 1
 639 729 l 1
 654 440 l 1
 610 440 l 1
 587 517 572 556 553 589 c 0
 515 653 453 690 383 690 c 0
 319 690 257 655 226 599 c 0
 192 539 177 463 177 350 c 0
 177 135 247 32 395 32 c 0
 476 32 540 67 581 136 c 0
 599 166 611 202 621 255 c 1
 668 247 l 1
 645 80 543 -15 387 -15 c 0
 376 -15 366 -15 346 -13 c 1
EndSplineSet
KernsSLIF: 65 -28 0 0
Ligature: 0 0 'liga' C uni0327
EndChar
StartChar: Cacute
Encoding: 265 262 159
Width: 722
Flags: W
HStem: -15 47<380 397> 690 47<364 397>
VStem: 45 132<336 386>
Fore
639 729 m 1
 654 440 l 1
 610 440 l 1
 587 517 572 556 553 589 c 0
 515 653 453 690 383 690 c 0
 319 690 257 655 226 599 c 0
 192 539 177 463 177 350 c 0
 177 135 247 32 395 32 c 0
 476 32 540 67 581 136 c 0
 599 166 611 202 621 255 c 1
 668 247 l 1
 645 79 543 -15 383 -15 c 0
 186 -15 45 139 45 354 c 0
 45 457 75 541 139 617 c 0
 207 698 287 737 384 737 c 0
 451 737 490 722 561 670 c 1
 601 729 l 1
 639 729 l 1
306 787 m 1
 446 928 l 2
 470 952 481 958 496 958 c 0
 515 958 531 942 531 923 c 0
 531 909 521 894 506 885 c 2
 347 787 l 1
 306 787 l 1
EndSplineSet
Ligature: 0 0 'liga' C acutecomb
EndChar
StartChar: Ccaron
Encoding: 266 268 160
Width: 722
Flags: W
HStem: -15 47<379 397> 690 47<364 397>
VStem: 45 132<336 386>
Fore
639 729 m 1
 654 440 l 1
 610 440 l 1
 587 517 572 556 553 589 c 0
 515 653 453 690 383 690 c 0
 319 690 257 655 226 599 c 0
 192 539 177 463 177 350 c 0
 177 135 247 32 395 32 c 0
 476 32 540 67 581 136 c 0
 599 166 611 202 621 255 c 1
 668 247 l 1
 645 79 543 -15 383 -15 c 0
 186 -15 45 139 45 354 c 0
 45 457 75 541 139 617 c 0
 207 698 287 737 384 737 c 0
 451 737 490 722 561 670 c 1
 601 729 l 1
 639 729 l 1
350 787 m 1
 225 953 l 1
 261 953 l 1
 381 852 l 1
 502 953 l 1
 538 953 l 1
 413 787 l 1
 350 787 l 1
EndSplineSet
Ligature: 0 0 'liga' C uni030C
EndChar
StartChar: Dcaron
Encoding: 267 270 161
Width: 778
Flags: W
HStem: 0 47<29 403> 675 47<29 78 29 382>
VStem: 137 112<79 641> 600 132<335 385>
Fore
137 123 m 1
 137 599 l 1
 137 628 l 2
 137 670 128 675 48 675 c 2
 29 675 l 1
 29 722 l 1
 347 722 l 2
 461 722 535 706 590 671 c 0
 682 611 732 502 732 365 c 0
 732 215 676 101 575 44 c 0
 522 14 454 0 365 0 c 2
 29 0 l 1
 29 47 l 1
 48 47 l 2
 128 47 137 52 137 94 c 2
 137 123 l 1
306 47 m 2
 374 47 l 2
 535 47 600 137 600 361 c 0
 600 582 529 675 358 675 c 2
 306 675 l 2
 256 675 249 668 249 619 c 2
 249 102 l 2
 249 53 256 47 306 47 c 2
338 787 m 1
 213 953 l 1
 249 953 l 1
 369 852 l 1
 490 953 l 1
 526 953 l 1
 401 787 l 1
 338 787 l 1
EndSplineSet
Ligature: 0 0 'liga' D uni030C
EndChar
StartChar: Edieresis
Encoding: 268 203 162
Width: 722
Flags: W
HStem: 0 47<29 643> 466 256<29 644> 675 47<29 409> 802 100<252 269 456 463>
VStem: 137 112<79 350 123 640> 210 100<852 854> 409 100<852 854>
Fore
630 722 m 1xda
 644 466 l 1
 601 466 l 1xda
 586 556 562 612 529 638 c 0
 495 666 452 675 364 675 c 2
 312 675 l 2
 258 675 249 668 249 625 c 2
 249 397 l 1
 273 397 l 2
 368 397 408 436 413 534 c 1
 460 534 l 1
 460 206 l 1
 413 206 l 1
 411 265 401 297 375 323 c 0
 355 344 330 350 269 350 c 2
 249 350 l 1
 249 95 l 2
 249 74 250 68 257 62 c 0
 266 53 291 47 321 47 c 2
 387 47 l 2
 471 47 528 66 559 106 c 0
 583 135 606 197 619 267 c 1
 663 267 l 1
 643 0 l 1
 29 0 l 1
 29 47 l 1
 47 47 l 2
 128 47 137 52 137 94 c 2
 137 123 l 1
 137 599 l 1
 137 628 l 2
 137 670 128 675 47 675 c 2
 29 675 l 1xba
 29 722 l 1
 630 722 l 1xda
260 902 m 0
 287 902 310 879 310 852 c 0
 310 824 287 802 259 802 c 0
 233 802 210 825 210 852 c 0x96
 210 879 233 902 260 902 c 0
459 902 m 0
 486 902 509 879 509 852 c 0
 509 824 486 802 458 802 c 0
 432 802 409 825 409 852 c 0
 409 879 432 902 459 902 c 0
EndSplineSet
Ligature: 0 0 'liga' E uni0308
EndChar
StartChar: Eacute
Encoding: 269 201 163
Width: 722
Flags: W
HStem: 0 47<29 643> 466 256<29 644> 675 47<29 78 29 398>
VStem: 137 112<79 350 123 640>
Fore
630 722 m 1xd0
 644 466 l 1
 601 466 l 1xd0
 586 556 562 612 529 638 c 0
 495 666 452 675 364 675 c 2
 312 675 l 2
 258 675 249 668 249 625 c 2
 249 397 l 1
 273 397 l 2
 368 397 408 436 413 534 c 1
 460 534 l 1
 460 206 l 1
 413 206 l 1
 411 265 401 297 375 323 c 0
 355 344 330 350 269 350 c 2
 249 350 l 1
 249 95 l 2
 249 74 250 68 257 62 c 0
 266 53 291 47 321 47 c 2
 387 47 l 2
 471 47 528 66 559 106 c 0
 583 135 606 197 619 267 c 1
 663 267 l 1
 643 0 l 1
 29 0 l 1
 29 47 l 1
 47 47 l 2
 128 47 137 52 137 94 c 2
 137 123 l 1
 137 599 l 1
 137 628 l 2
 137 670 128 675 47 675 c 2
 29 675 l 1xb0
 29 722 l 1
 630 722 l 1xd0
287 787 m 1
 427 928 l 2
 451 952 462 958 477 958 c 0
 496 958 512 942 512 923 c 0
 512 909 502 894 487 885 c 2
 328 787 l 1
 287 787 l 1
EndSplineSet
Ligature: 0 0 'liga' E acutecomb
EndChar
StartChar: Egrave
Encoding: 270 200 164
Width: 722
Flags: W
HStem: 0 47<29 643> 466 256<29 644> 675 47<29 398>
VStem: 137 112<79 350 123 640>
Fore
630 722 m 1xd0
 644 466 l 1
 601 466 l 1xd0
 586 556 562 612 529 638 c 0
 495 666 452 675 364 675 c 2
 312 675 l 2
 258 675 249 668 249 625 c 2
 249 397 l 1
 273 397 l 2
 368 397 408 436 413 534 c 1
 460 534 l 1
 460 206 l 1
 413 206 l 1
 411 265 401 297 375 323 c 0
 355 344 330 350 269 350 c 2
 249 350 l 1
 249 95 l 2
 249 74 250 68 257 62 c 0
 266 53 291 47 321 47 c 2
 387 47 l 2
 471 47 528 66 559 106 c 0
 583 135 606 197 619 267 c 1
 663 267 l 1
 643 0 l 1
 29 0 l 1
 29 47 l 1
 47 47 l 2
 128 47 137 52 137 94 c 2
 137 123 l 1
 137 599 l 1
 137 628 l 2
 137 670 128 675 47 675 c 2
 29 675 l 1xb0
 29 722 l 1
 630 722 l 1xd0
459 787 m 1
 418 787 l 1
 259 885 l 2
 244 894 234 909 234 923 c 0
 234 943 249 958 269 958 c 0
 284 958 294 952 319 928 c 1
 459 787 l 1
EndSplineSet
Ligature: 0 0 'liga' E gravecomb
EndChar
StartChar: Ecircumflex
Encoding: 271 202 165
Width: 722
Flags: W
HStem: 0 47<29 643> 466 256<29 644> 675 47<29 398>
VStem: 137 112<79 350 123 640>
Fore
630 722 m 1xd0
 644 466 l 1
 601 466 l 1xd0
 586 556 562 612 529 638 c 0
 495 666 452 675 364 675 c 2
 312 675 l 2
 258 675 249 668 249 625 c 2
 249 397 l 1
 273 397 l 2
 368 397 408 436 413 534 c 1
 460 534 l 1
 460 206 l 1
 413 206 l 1
 411 265 401 297 375 323 c 0
 355 344 330 350 269 350 c 2
 249 350 l 1
 249 95 l 2
 249 74 250 68 257 62 c 0
 266 53 291 47 321 47 c 2
 387 47 l 2
 471 47 528 66 559 106 c 0
 583 135 606 197 619 267 c 1
 663 267 l 1
 643 0 l 1
 29 0 l 1
 29 47 l 1
 47 47 l 2
 128 47 137 52 137 94 c 2
 137 123 l 1
 137 599 l 1
 137 628 l 2
 137 670 128 675 47 675 c 2
 29 675 l 1xb0
 29 722 l 1
 630 722 l 1xd0
391 953 m 1
 516 787 l 1
 480 787 l 1
 360 888 l 1
 239 787 l 1
 203 787 l 1
 328 953 l 1
 391 953 l 1
EndSplineSet
Ligature: 0 0 'liga' E uni0302
EndChar
StartChar: Ecaron
Encoding: 272 282 166
Width: 722
Flags: W
HStem: 0 47<29 643> 466 256<29 644> 675 47<29 398>
VStem: 137 112<79 350 123 640>
Fore
630 722 m 1xd0
 644 466 l 1
 601 466 l 1xd0
 586 556 562 612 529 638 c 0
 495 666 452 675 364 675 c 2
 312 675 l 2
 258 675 249 668 249 625 c 2
 249 397 l 1
 273 397 l 2
 368 397 408 436 413 534 c 1
 460 534 l 1
 460 206 l 1
 413 206 l 1
 411 265 401 297 375 323 c 0
 355 344 330 350 269 350 c 2
 249 350 l 1
 249 95 l 2
 249 74 250 68 257 62 c 0
 266 53 291 47 321 47 c 2
 387 47 l 2
 471 47 528 66 559 106 c 0
 583 135 606 197 619 267 c 1
 663 267 l 1
 643 0 l 1
 29 0 l 1
 29 47 l 1
 47 47 l 2
 128 47 137 52 137 94 c 2
 137 123 l 1
 137 599 l 1
 137 628 l 2
 137 670 128 675 47 675 c 2
 29 675 l 1xb0
 29 722 l 1
 630 722 l 1xd0
330 787 m 1
 205 953 l 1
 241 953 l 1
 361 852 l 1
 482 953 l 1
 518 953 l 1
 393 787 l 1
 330 787 l 1
EndSplineSet
Ligature: 0 0 'liga' E uni030C
EndChar
StartChar: Edotaccent
Encoding: 273 278 167
Width: 722
Flags: W
HStem: 0 47<29 643> 466 256<29 644> 675 47<29 398> 796 100<358 367>
VStem: 137 112<79 350 123 640> 311 100<836.27 849>
Fore
630 722 m 1xdc
 644 466 l 1
 601 466 l 1xdc
 586 556 562 612 529 638 c 0
 495 666 452 675 364 675 c 2
 312 675 l 2
 258 675 249 668 249 625 c 2
 249 397 l 1
 273 397 l 2
 368 397 408 436 413 534 c 1
 460 534 l 1
 460 206 l 1
 413 206 l 1
 411 265 401 297 375 323 c 0
 355 344 330 350 269 350 c 2
 249 350 l 1
 249 95 l 2
 249 74 250 68 257 62 c 0
 266 53 291 47 321 47 c 2
 387 47 l 2
 471 47 528 66 559 106 c 0
 583 135 606 197 619 267 c 1
 663 267 l 1
 643 0 l 1
 29 0 l 1
 29 47 l 1
 47 47 l 2
 128 47 137 52 137 94 c 2
 137 123 l 1
 137 599 l 1
 137 628 l 2
 137 670 128 675 47 675 c 2
 29 675 l 1xbc
 29 722 l 1
 630 722 l 1xdc
361 896 m 0
 388 896 411 873 411 846 c 0
 411 818 388 796 360 796 c 0
 334 796 311 819 311 846 c 0
 311 873 334 896 361 896 c 0
EndSplineSet
Ligature: 0 0 'liga' E uni0307
EndChar
StartChar: Eogonek
Encoding: 274 280 168
Width: 722
Flags: W
HStem: -152 41<572 592> 0 47<29 555> 466 256<29 644> 675 47<29 398>
VStem: 137 112<74.4537 350 123 640> 502 50<-84 -67>
Fore
460 534 m 1xdc
 460 206 l 1
 413 206 l 1
 411 265 401 297 375 323 c 0
 355 344 330 350 269 350 c 2
 249 350 l 1
 249 95 l 2
 249 74 250 68 257 62 c 0
 266 53 291 47 321 47 c 2
 387 47 l 2
 471 47 528 66 559 106 c 0
 583 135 606 197 619 267 c 1
 663 267 l 1
 643 0 l 1
 616 -1 609 -1 599 -4 c 0
 572 -12 552 -38 552 -67 c 0
 552 -91 570 -111 592 -111 c 0
 614 -111 636 -100 664 -74 c 1
 680 -95 l 1
 640 -136 610 -152 572 -152 c 0
 532 -152 502 -123 502 -84 c 0
 502 -50 518 -24 555 0 c 1
 29 0 l 1
 29 47 l 1
 47 47 l 2
 100 47 122 51 131 61 c 0
 137 69 137 69 137 123 c 2
 137 599 l 1
 137 628 l 2
 137 670 128 675 47 675 c 2
 29 675 l 1xdc
 29 722 l 1
 630 722 l 1
 644 466 l 1
 601 466 l 1xec
 586 556 562 612 529 638 c 0
 495 666 452 675 364 675 c 2
 312 675 l 2
 258 675 249 668 249 625 c 2
 249 397 l 1
 273 397 l 2
 368 397 408 436 413 534 c 1
 460 534 l 1xdc
EndSplineSet
Ligature: 0 0 'liga' E uni0328
EndChar
StartChar: Gbreve
Encoding: 275 286 169
Width: 778
Flags: W
HStem: -15 47<377 394> 282 47<454 507 454 772> 690 47<377 395> 787 62<377 395>
VStem: 42 132<348 370> 564 103<204 242>
Fore
650 729 m 1
 664 448 l 1
 621 448 l 1
 580 608 501 690 387 690 c 0
 248 690 174 571 174 348 c 0
 174 241 190 170 227 115 c 0
 261 65 326 32 390 32 c 0
 455 32 519 66 544 115 c 0
 556 139 564 179 564 222 c 0
 564 277 557 282 473 282 c 2
 454 282 l 1
 454 329 l 1
 772 329 l 1
 772 282 l 1
 757 282 l 2
 703 282 682 278 673 268 c 0
 667 261 667 260 667 206 c 2
 667 -14 l 1
 625 -14 l 1
 588 76 l 1
 523 11 464 -15 380 -15 c 0
 284 -15 192 26 130 96 c 0
 72 161 42 246 42 348 c 0
 42 483 88 584 187 664 c 0
 250 715 312 737 391 737 c 0
 464 737 508 720 573 668 c 1
 612 729 l 1
 650 729 l 1
494 944 m 1
 530 944 l 1
 530 930 l 2
 530 849 469 787 388 787 c 0
 307 787 247 849 247 931 c 2
 247 944 l 1
 283 944 l 1
 288 884 326 849 389 849 c 0
 451 849 489 884 494 944 c 1
EndSplineSet
Ligature: 0 0 'liga' G uni0306
EndChar
StartChar: Idieresis
Encoding: 276 207 170
Width: 407
Flags: W
HStem: 0 47<38 369> 675 47<38 87 38 369> 802 100<101 106 293 311>
VStem: 54 100<852 854> 148 112<94 641> 253 100<852 854>
Fore
260 599 m 1xe8
 260 123 l 1
 260 94 l 2
 260 52 269 47 349 47 c 2
 369 47 l 1
 369 0 l 1
 38 0 l 1
 38 47 l 1
 58 47 l 2
 139 47 148 52 148 94 c 2
 148 123 l 1
 148 599 l 1
 148 628 l 2
 148 670 139 675 58 675 c 2
 38 675 l 1
 38 722 l 1
 369 722 l 1
 369 675 l 1
 349 675 l 2
 269 675 260 670 260 628 c 2
 260 599 l 1xe8
104 902 m 0
 131 902 154 879 154 852 c 0
 154 824 131 802 103 802 c 0
 77 802 54 825 54 852 c 0xf0
 54 879 77 902 104 902 c 0
303 902 m 0
 330 902 353 879 353 852 c 0
 353 824 330 802 302 802 c 0
 276 802 253 825 253 852 c 0xe4
 253 879 276 902 303 902 c 0
EndSplineSet
Ligature: 0 0 'liga' I uni0308
EndChar
StartChar: Iacute
Encoding: 277 205 171
Width: 407
Flags: W
HStem: 0 47<38 369> 675 47<38 87 38 369>
VStem: 148 112<94 641>
Fore
260 599 m 1
 260 123 l 1
 260 94 l 2
 260 52 269 47 349 47 c 2
 369 47 l 1
 369 0 l 1
 38 0 l 1
 38 47 l 1
 58 47 l 2
 139 47 148 52 148 94 c 2
 148 123 l 1
 148 599 l 1
 148 628 l 2
 148 670 139 675 58 675 c 2
 38 675 l 1
 38 722 l 1
 369 722 l 1
 369 675 l 1
 349 675 l 2
 269 675 260 670 260 628 c 2
 260 599 l 1
128 787 m 1
 268 928 l 2
 292 952 303 958 318 958 c 0
 337 958 353 942 353 923 c 0
 353 909 343 894 328 885 c 2
 169 787 l 1
 128 787 l 1
EndSplineSet
Ligature: 0 0 'liga' I acutecomb
EndChar
StartChar: Igrave
Encoding: 278 204 172
Width: 407
Flags: W
HStem: 0 47<38 369> 675 47<38 87 38 369>
VStem: 148 112<94 641>
Fore
260 599 m 1
 260 123 l 1
 260 94 l 2
 260 52 269 47 349 47 c 2
 369 47 l 1
 369 0 l 1
 38 0 l 1
 38 47 l 1
 58 47 l 2
 139 47 148 52 148 94 c 2
 148 123 l 1
 148 599 l 1
 148 628 l 2
 148 670 139 675 58 675 c 2
 38 675 l 1
 38 722 l 1
 369 722 l 1
 369 675 l 1
 349 675 l 2
 269 675 260 670 260 628 c 2
 260 599 l 1
269 787 m 1
 228 787 l 1
 69 885 l 2
 54 894 44 909 44 923 c 0
 44 943 59 958 79 958 c 0
 94 958 104 952 129 928 c 1
 269 787 l 1
EndSplineSet
Ligature: 0 0 'liga' I gravecomb
EndChar
StartChar: Icircumflex
Encoding: 279 206 173
Width: 407
Flags: W
HStem: 0 47<38 369> 675 47<38 87 38 369>
VStem: 148 112<94 641>
Fore
260 599 m 1
 260 123 l 1
 260 94 l 2
 260 52 269 47 349 47 c 2
 369 47 l 1
 369 0 l 1
 38 0 l 1
 38 47 l 1
 58 47 l 2
 139 47 148 52 148 94 c 2
 148 123 l 1
 148 599 l 1
 148 628 l 2
 148 670 139 675 58 675 c 2
 38 675 l 1
 38 722 l 1
 369 722 l 1
 369 675 l 1
 349 675 l 2
 269 675 260 670 260 628 c 2
 260 599 l 1
235 953 m 1
 360 787 l 1
 324 787 l 1
 204 888 l 1
 83 787 l 1
 47 787 l 1
 172 953 l 1
 235 953 l 1
EndSplineSet
Ligature: 0 0 'liga' I uni0302
EndChar
StartChar: Idotaccent
Encoding: 280 304 174
Width: 407
Flags: W
HStem: 0 47<38 369> 675 47<38 87 38 369> 796 100<197 206>
VStem: 148 112<94 641>
Fore
260 599 m 1
 260 123 l 1
 260 94 l 2
 260 52 269 47 349 47 c 2
 369 47 l 1
 369 0 l 1
 38 0 l 1
 38 47 l 1
 58 47 l 2
 139 47 148 52 148 94 c 2
 148 123 l 1
 148 599 l 1
 148 628 l 2
 148 670 139 675 58 675 c 2
 38 675 l 1
 38 722 l 1
 369 722 l 1
 369 675 l 1
 349 675 l 2
 269 675 260 670 260 628 c 2
 260 599 l 1
204 896 m 0
 231 896 254 873 254 846 c 0
 254 818 231 796 203 796 c 0
 177 796 154 819 154 846 c 0
 154 873 177 896 204 896 c 0
EndSplineSet
Ligature: 0 0 'liga' I uni0307
EndChar
StartChar: Lacute
Encoding: 281 313 175
Width: 667
Flags: W
HStem: 0 47<35 625> 675 47<35 84 35 363>
VStem: 143 112<79 641>
Fore
646 274 m 1
 625 0 l 1
 35 0 l 1
 35 47 l 1
 53 47 l 2
 134 47 143 52 143 94 c 2
 143 123 l 1
 143 599 l 1
 143 628 l 2
 143 670 134 675 53 675 c 2
 35 675 l 1
 35 722 l 1
 363 722 l 1
 363 675 l 1
 345 675 l 2
 264 675 255 670 255 628 c 2
 255 599 l 1
 255 95 l 2
 255 74 256 68 263 62 c 0
 272 53 297 47 327 47 c 2
 369 47 l 2
 453 47 511 66 542 105 c 0
 568 138 592 206 602 274 c 1
 646 274 l 1
258 787 m 1
 398 928 l 2
 422 952 433 958 448 958 c 0
 467 958 483 942 483 923 c 0
 483 909 473 894 458 885 c 2
 299 787 l 1
 258 787 l 1
EndSplineSet
Ligature: 0 0 'liga' L acutecomb
EndChar
StartChar: Lcaron
Encoding: 282 317 176
Width: 667
Flags: W
HStem: 0 47<35 625> 633 107<526 535> 675 47<35 84 35 363>
VStem: 143 112<79 641> 469 133<654 686> 554 48<626 654>
Fore
646 274 m 1xb4
 625 0 l 1
 35 0 l 1
 35 47 l 1
 53 47 l 2
 134 47 143 52 143 94 c 2
 143 123 l 1
 143 599 l 1
 143 628 l 2
 143 670 134 675 53 675 c 2
 35 675 l 1
 35 722 l 1
 363 722 l 1
 363 675 l 1
 345 675 l 2
 264 675 255 670 255 628 c 2
 255 599 l 1
 255 95 l 2
 255 74 256 68 263 62 c 0
 272 53 297 47 327 47 c 2
 369 47 l 2
 453 47 511 66 542 105 c 0
 568 138 592 206 602 274 c 1
 646 274 l 1xb4
483 478 m 1
 463 503 l 1
 522 540 554 583 554 626 c 0xd4
 554 631 552 634 548 634 c 2
 545 634 l 2
 541 633 538 633 533 633 c 0
 493 633 469 653 469 686 c 0
 469 717 494 740 528 740 c 0
 571 740 602 705 602 654 c 0xd8
 602 617 588 577 564 545 c 0
 551 528 536 516 498 488 c 0
 494 485 488 481 483 478 c 1
EndSplineSet
Ligature: 0 0 'liga' L uni030C
EndChar
StartChar: Nacute
Encoding: 283 323 177
Width: 815
Flags: W
HStem: -14 21G<636 678> 675 47<19 68>
VStem: 136 54<217 588> 624 54<191 547>
DStem: 190 588 225 722 636 -14 624 191
Fore
225 722 m 1
 624 191 l 1
 624 505 l 2
 624 642 604 671 509 675 c 1
 509 722 l 1
 794 722 l 1
 794 675 l 1
 698 671 678 642 678 505 c 2
 678 -14 l 1
 636 -14 l 1
 190 588 l 1
 190 217 l 2
 190 80 210 51 305 47 c 1
 305 0 l 1
 20 0 l 1
 20 47 l 1
 116 51 136 80 136 217 c 2
 136 642 l 1
 118 667 95 675 44 675 c 2
 19 675 l 1
 19 722 l 1
 225 722 l 1
332 787 m 1
 472 928 l 2
 496 952 507 958 522 958 c 0
 541 958 557 942 557 923 c 0
 557 909 547 894 532 885 c 2
 373 787 l 1
 332 787 l 1
EndSplineSet
Ligature: 0 0 'liga' N acutecomb
EndChar
StartChar: Ncaron
Encoding: 284 327 178
Width: 815
Flags: W
HStem: -14 21G<636 678> 675 47<19 68>
VStem: 136 54<217 588> 624 54<191 547>
DStem: 190 588 225 722 636 -14 624 191
Fore
225 722 m 1
 624 191 l 1
 624 505 l 2
 624 642 604 671 509 675 c 1
 509 722 l 1
 794 722 l 1
 794 675 l 1
 698 671 678 642 678 505 c 2
 678 -14 l 1
 636 -14 l 1
 190 588 l 1
 190 217 l 2
 190 80 210 51 305 47 c 1
 305 0 l 1
 20 0 l 1
 20 47 l 1
 116 51 136 80 136 217 c 2
 136 642 l 1
 118 667 95 675 44 675 c 2
 19 675 l 1
 19 722 l 1
 225 722 l 1
376 787 m 1
 251 953 l 1
 287 953 l 1
 407 852 l 1
 528 953 l 1
 564 953 l 1
 439 787 l 1
 376 787 l 1
EndSplineSet
Ligature: 0 0 'liga' N uni030C
EndChar
StartChar: Ntilde
Encoding: 285 209 179
Width: 815
Flags: W
HStem: -14 21G<636 678> 675 47<19 68> 809 55<464 486> 851 59<323 341>
VStem: 136 54<217 588> 624 54<191 547>
DStem: 190 588 225 722 636 -14 624 191
Fore
225 722 m 1xcc
 624 191 l 1
 624 505 l 2
 624 642 604 671 509 675 c 1
 509 722 l 1
 794 722 l 1
 794 675 l 1
 698 671 678 642 678 505 c 2
 678 -14 l 1
 636 -14 l 1
 190 588 l 1
 190 217 l 2
 190 80 210 51 305 47 c 1
 305 0 l 1
 20 0 l 1
 20 47 l 1
 116 51 136 80 136 217 c 2
 136 642 l 1
 118 667 95 675 44 675 c 2
 19 675 l 1
 19 722 l 1
 225 722 l 1xcc
537 915 m 1
 572 915 l 1
 565 852 521 809 464 809 c 0xec
 438 809 426 813 375 837 c 0
 356 846 337 851 323 851 c 0xdc
 300 851 283 836 276 809 c 1
 241 809 l 1xec
 254 871 292 910 341 910 c 0xdc
 364 910 372 908 427 883 c 0
 461 868 472 864 486 864 c 0xec
 509 864 531 886 537 915 c 1
EndSplineSet
Ligature: 0 0 'liga' N tildecomb
EndChar
StartChar: Odieresis
Encoding: 286 214 180
Width: 778
Flags: W
HStem: -15 47<389 398> 690 47<380 398> 802 100<284 292 486 494>
VStem: 45 132<336 386> 240 100<852 854> 439 100<852 854> 601 132<361 386>
Fore
393 737 m 0
 585 737 733 573 733 361 c 0
 733 147 585 -15 389 -15 c 0
 194 -15 45 147 45 360 c 0
 45 474 90 582 167 653 c 0
 228 709 304 737 393 737 c 0
392 690 m 0
 317 690 264 662 227 604 c 0
 190 544 177 483 177 363 c 0
 177 239 189 179 227 118 c 0
 263 62 318 32 389 32 c 0
 460 32 515 62 551 118 c 0
 588 178 601 239 601 361 c 0
 601 483 588 545 551 604 c 0
 515 659 459 690 392 690 c 0
290 902 m 0
 317 902 340 879 340 852 c 0
 340 824 317 802 289 802 c 0
 263 802 240 825 240 852 c 0
 240 879 263 902 290 902 c 0
489 902 m 0
 516 902 539 879 539 852 c 0
 539 824 516 802 488 802 c 0
 462 802 439 825 439 852 c 0
 439 879 462 902 489 902 c 0
EndSplineSet
KernsSLIF: 89 -31 0 0 88 -34 0 0 87 -45 0 0 86 -38 0 0 84 10 0 0 65 -41 0 0
Ligature: 0 0 'liga' O uni0308
EndChar
StartChar: Oacute
Encoding: 287 211 181
Width: 778
Flags: W
HStem: -15 47<389 398> 690 47<380 398>
VStem: 45 132<336 386> 601 132<361 386>
Fore
393 737 m 0
 585 737 733 573 733 361 c 0
 733 147 585 -15 389 -15 c 0
 194 -15 45 147 45 360 c 0
 45 474 90 582 167 653 c 0
 228 709 304 737 393 737 c 0
392 690 m 0
 317 690 264 662 227 604 c 0
 190 544 177 483 177 363 c 0
 177 239 189 179 227 118 c 0
 263 62 318 32 389 32 c 0
 460 32 515 62 551 118 c 0
 588 178 601 239 601 361 c 0
 601 483 588 545 551 604 c 0
 515 659 459 690 392 690 c 0
317 787 m 1
 457 928 l 2
 481 952 492 958 507 958 c 0
 526 958 542 942 542 923 c 0
 542 909 532 894 517 885 c 2
 358 787 l 1
 317 787 l 1
EndSplineSet
KernsSLIF: 89 -31 0 0 87 -45 0 0 86 -38 0 0 84 10 0 0 65 -41 0 0
Ligature: 0 0 'liga' O acutecomb
EndChar
StartChar: Ograve
Encoding: 288 210 182
Width: 778
Flags: W
HStem: -15 47<389 398> 690 47<380 398>
VStem: 45 132<336 386> 601 132<361 386>
Fore
393 737 m 0
 585 737 733 573 733 361 c 0
 733 147 585 -15 389 -15 c 0
 194 -15 45 147 45 360 c 0
 45 474 90 582 167 653 c 0
 228 709 304 737 393 737 c 0
392 690 m 0
 317 690 264 662 227 604 c 0
 190 544 177 483 177 363 c 0
 177 239 189 179 227 118 c 0
 263 62 318 32 389 32 c 0
 460 32 515 62 551 118 c 0
 588 178 601 239 601 361 c 0
 601 483 588 545 551 604 c 0
 515 659 459 690 392 690 c 0
469 787 m 1
 428 787 l 1
 269 885 l 2
 254 894 244 909 244 923 c 0
 244 943 259 958 279 958 c 0
 294 958 304 952 329 928 c 1
 469 787 l 1
EndSplineSet
KernsSLIF: 89 -31 0 0 86 -38 0 0 84 10 0 0
Ligature: 0 0 'liga' O gravecomb
EndChar
StartChar: Ocircumflex
Encoding: 289 212 183
Width: 778
Flags: W
HStem: -15 47<389 398> 690 47<380 398>
VStem: 45 132<336 386> 601 132<361 386>
Fore
393 737 m 0
 585 737 733 573 733 361 c 0
 733 147 585 -15 389 -15 c 0
 194 -15 45 147 45 360 c 0
 45 474 90 582 167 653 c 0
 228 709 304 737 393 737 c 0
392 690 m 0
 317 690 264 662 227 604 c 0
 190 544 177 483 177 363 c 0
 177 239 189 179 227 118 c 0
 263 62 318 32 389 32 c 0
 460 32 515 62 551 118 c 0
 588 178 601 239 601 361 c 0
 601 483 588 545 551 604 c 0
 515 659 459 690 392 690 c 0
421 953 m 1
 546 787 l 1
 510 787 l 1
 390 888 l 1
 269 787 l 1
 233 787 l 1
 358 953 l 1
 421 953 l 1
EndSplineSet
KernsSLIF: 89 -31 0 0 86 -38 0 0 84 10 0 0
Ligature: 0 0 'liga' O uni0302
EndChar
StartChar: Otilde
Encoding: 290 213 184
Width: 778
Flags: W
HStem: -15 47<389 398> 690 47<380 398> 809 55<453 475> 851 59<312 330>
VStem: 45 132<336 386> 601 132<361 386>
Fore
393 737 m 0xcc
 585 737 733 573 733 361 c 0
 733 147 585 -15 389 -15 c 0
 194 -15 45 147 45 360 c 0
 45 474 90 582 167 653 c 0
 228 709 304 737 393 737 c 0xcc
392 690 m 0
 317 690 264 662 227 604 c 0
 190 544 177 483 177 363 c 0
 177 239 189 179 227 118 c 0
 263 62 318 32 389 32 c 0
 460 32 515 62 551 118 c 0
 588 178 601 239 601 361 c 0
 601 483 588 545 551 604 c 0
 515 659 459 690 392 690 c 0
526 915 m 1
 561 915 l 1
 554 852 510 809 453 809 c 0xec
 427 809 415 813 364 837 c 0
 345 846 326 851 312 851 c 0xdc
 289 851 272 836 265 809 c 1
 230 809 l 1xec
 243 871 281 910 330 910 c 0xdc
 353 910 361 908 416 883 c 0
 450 868 461 864 475 864 c 0xec
 498 864 520 886 526 915 c 1
EndSplineSet
KernsSLIF: 89 -31 0 0 86 -38 0 0 84 10 0 0
Ligature: 0 0 'liga' O tildecomb
EndChar
StartChar: Ohungarumlaut
Encoding: 291 336 185
Width: 778
Flags: W
HStem: -15 47<389 397> 690 47<380 412>
VStem: 45 132<336 386> 601 132<361 386>
Fore
393 737 m 0
 585 737 733 573 733 361 c 0
 733 147 585 -15 389 -15 c 0
 194 -15 45 147 45 360 c 0
 45 474 90 582 167 653 c 0
 228 709 304 737 393 737 c 0
392 690 m 0
 317 690 264 662 227 604 c 0
 190 544 177 483 177 363 c 0
 177 239 189 179 227 118 c 0
 263 62 318 32 389 32 c 0
 460 32 515 62 551 118 c 0
 588 178 601 239 601 361 c 0
 601 483 588 545 551 604 c 0
 515 659 459 690 392 690 c 0
268 796 m 1
 303 895 l 1
 318 936 333 953 356 953 c 0
 371 953 383 940 383 925 c 0
 383 912 378 900 365 885 c 2
 284 787 l 1
 268 796 l 1
396 796 m 1
 431 895 l 1
 446 936 462 953 484 953 c 0
 499 953 511 940 511 925 c 0
 511 912 506 901 493 885 c 2
 412 787 l 1
 396 796 l 1
EndSplineSet
Ligature: 0 0 'liga' O uni030B
EndChar
StartChar: Racute
Encoding: 292 340 186
Width: 722
Flags: W
HStem: 0 47<26 354> 350 47<246 317> 675 47<26 75 26 395>
VStem: 134 112<94 350 122 642> 513 123<528 562>
Fore
246 350 m 1
 246 122 l 1
 246 94 l 2
 246 52 255 47 336 47 c 2
 354 47 l 1
 354 0 l 1
 26 0 l 1
 26 47 l 1
 44 47 l 2
 125 47 134 52 134 94 c 2
 134 122 l 1
 134 599 l 1
 134 628 l 2
 134 670 125 675 44 675 c 2
 26 675 l 1
 26 722 l 1
 372 722 l 2
 540 722 636 657 636 543 c 0
 636 442 567 384 423 364 c 1
 501 344 540 302 562 210 c 1
 578 147 l 1
 595 78 605 61 628 61 c 0
 655 61 667 91 671 160 c 1
 713 160 l 1
 710 40 671 -15 589 -15 c 0
 510 -15 473 31 461 144 c 1
 456 195 l 1
 449 261 434 297 405 320 c 0
 383 338 343 350 304 350 c 2
 246 350 l 1
246 397 m 1
 356 397 l 2
 404 397 449 410 474 431 c 0
 500 452 513 491 513 542 c 0
 513 633 468 675 369 675 c 2
 315 675 l 2
 272 675 265 674 257 668 c 0
 247 660 246 657 246 617 c 2
 246 397 l 1
286 787 m 1
 426 928 l 2
 450 952 461 958 476 958 c 0
 495 958 511 942 511 923 c 0
 511 909 501 894 486 885 c 2
 327 787 l 1
 286 787 l 1
EndSplineSet
Ligature: 0 0 'liga' R acutecomb
EndChar
StartChar: Rcaron
Encoding: 293 344 187
Width: 722
Flags: W
HStem: 0 47<26 354> 350 47<246 317> 675 47<26 75 26 395>
VStem: 134 112<94 350 122 642> 513 123<528 562>
Fore
246 350 m 1
 246 122 l 1
 246 94 l 2
 246 52 255 47 336 47 c 2
 354 47 l 1
 354 0 l 1
 26 0 l 1
 26 47 l 1
 44 47 l 2
 125 47 134 52 134 94 c 2
 134 122 l 1
 134 599 l 1
 134 628 l 2
 134 670 125 675 44 675 c 2
 26 675 l 1
 26 722 l 1
 372 722 l 2
 540 722 636 657 636 543 c 0
 636 442 567 384 423 364 c 1
 501 344 540 302 562 210 c 1
 578 147 l 1
 595 78 605 61 628 61 c 0
 655 61 667 91 671 160 c 1
 713 160 l 1
 710 40 671 -15 589 -15 c 0
 510 -15 473 31 461 144 c 1
 456 195 l 1
 449 261 434 297 405 320 c 0
 383 338 343 350 304 350 c 2
 246 350 l 1
246 397 m 1
 356 397 l 2
 404 397 449 410 474 431 c 0
 500 452 513 491 513 542 c 0
 513 633 468 675 369 675 c 2
 315 675 l 2
 272 675 265 674 257 668 c 0
 247 660 246 657 246 617 c 2
 246 397 l 1
330 787 m 1
 205 953 l 1
 241 953 l 1
 361 852 l 1
 482 953 l 1
 518 953 l 1
 393 787 l 1
 330 787 l 1
EndSplineSet
Ligature: 0 0 'liga' R uni030C
EndChar
StartChar: Sacute
Encoding: 294 346 188
Width: 630
Flags: W
HStem: -15 46<322 372> 468 21G<515 558> 689 48<267 308>
VStem: 68 78<528 571> 512 78<171 205>
Fore
546 728 m 1
 558 468 l 1
 515 468 l 1
 502 519 484 561 455 602 c 0
 415 659 358 689 288 689 c 0
 203 689 146 641 146 571 c 0
 146 510 188 471 277 448 c 2
 384 421 l 2
 464 401 503 384 530 358 c 0
 569 320 590 267 590 205 c 0
 590 71 496 -15 349 -15 c 0
 262 -15 206 5 139 60 c 1
 94 -8 l 1
 55 -8 l 1
 51 277 l 1
 94 277 l 1
 109 200 130 153 172 106 c 0
 219 54 272 31 346 31 c 0
 401 31 434 42 467 71 c 0
 497 98 512 131 512 171 c 0
 512 210 496 243 466 266 c 0
 445 282 438 284 364 303 c 2
 269 327 l 2
 122 365 68 419 68 528 c 0
 68 653 156 737 287 737 c 0
 358 737 422 713 469 668 c 1
 509 728 l 1
 546 728 l 1
240 787 m 1
 380 928 l 2
 404 952 415 958 430 958 c 0
 449 958 465 942 465 923 c 0
 465 909 455 894 440 885 c 2
 281 787 l 1
 240 787 l 1
EndSplineSet
Ligature: 0 0 'liga' S acutecomb
EndChar
StartChar: Scaron
Encoding: 295 352 189
Width: 630
Flags: W
HStem: -15 46<322 372> 468 21G<515 558> 689 48<267 308>
VStem: 68 78<528 571> 512 78<171 205>
Fore
546 728 m 1
 558 468 l 1
 515 468 l 1
 502 519 484 561 455 602 c 0
 415 659 358 689 288 689 c 0
 203 689 146 641 146 571 c 0
 146 510 188 471 277 448 c 2
 384 421 l 2
 464 401 503 384 530 358 c 0
 569 320 590 267 590 205 c 0
 590 71 496 -15 349 -15 c 0
 262 -15 206 5 139 60 c 1
 94 -8 l 1
 55 -8 l 1
 51 277 l 1
 94 277 l 1
 109 200 130 153 172 106 c 0
 219 54 272 31 346 31 c 0
 401 31 434 42 467 71 c 0
 497 98 512 131 512 171 c 0
 512 210 496 243 466 266 c 0
 445 282 438 284 364 303 c 2
 269 327 l 2
 122 365 68 419 68 528 c 0
 68 653 156 737 287 737 c 0
 358 737 422 713 469 668 c 1
 509 728 l 1
 546 728 l 1
284 787 m 1
 159 953 l 1
 195 953 l 1
 315 852 l 1
 436 953 l 1
 472 953 l 1
 347 787 l 1
 284 787 l 1
EndSplineSet
Ligature: 0 0 'liga' S uni030C
EndChar
StartChar: Scedilla
Encoding: 296 350 190
Width: 630
Flags: W
HStem: -215 38<276 300> -98 38<296 337> -15 46<326 372> 468 21G<515 558> 689 48<267 310>
VStem: 68 78<528 571> 343 76<-139 -128> 512 78<171 205>
DStem: 292 -11 326 -14 253 -98 308 -63
Fore
546 728 m 1
 558 468 l 1
 515 468 l 1
 502 519 484 561 455 602 c 0
 415 659 358 689 288 689 c 0
 203 689 146 641 146 571 c 0
 146 510 188 471 277 448 c 2
 384 421 l 2
 464 401 503 384 530 358 c 0
 569 320 590 267 590 205 c 0
 590 72 496 -15 352 -15 c 0
 347 -15 337 -15 326 -14 c 1
 308 -63 l 1
 322 -61 328 -60 337 -60 c 0
 386 -60 419 -88 419 -128 c 0
 419 -179 370 -215 298 -215 c 0
 267 -215 239 -209 211 -198 c 1
 225 -165 l 1
 249 -173 267 -177 286 -177 c 0
 321 -177 343 -161 343 -137 c 0
 343 -114 324 -98 296 -98 c 0
 287 -98 274 -100 262 -103 c 1
 253 -98 l 1
 292 -11 l 1
 228 -1 191 16 139 60 c 1
 94 -8 l 1
 55 -8 l 1
 51 277 l 1
 94 277 l 1
 109 200 130 153 172 106 c 0
 219 54 272 31 346 31 c 0
 401 31 434 42 467 71 c 0
 497 98 512 131 512 171 c 0
 512 210 496 243 466 266 c 0
 445 282 438 284 364 303 c 2
 269 327 l 2
 122 365 68 419 68 528 c 0
 68 653 156 737 287 737 c 0
 358 737 422 713 469 668 c 1
 509 728 l 1
 546 728 l 1
EndSplineSet
Ligature: 0 0 'liga' S uni0327
EndChar
StartChar: Tcaron
Encoding: 297 356 191
Width: 667
Flags: W
HStem: 0 47<162 505> 444 278<33 62 34 648> 675 47<34 454>
VStem: 278 112<94 641>
Fore
633 722 m 1xd0
 648 444 l 1
 605 444 l 1xd0
 597 501 587 544 572 581 c 0
 547 641 498 675 437 675 c 0
 404 675 390 664 390 639 c 2
 390 123 l 1
 390 94 l 2
 390 52 399 47 479 47 c 2
 505 47 l 1
 505 0 l 1
 162 0 l 1
 162 47 l 1
 188 47 l 2
 269 47 278 52 278 94 c 2
 278 123 l 1
 278 639 l 2
 278 664 264 675 231 675 c 0xb0
 163 675 115 637 89 564 c 0
 78 532 69 494 62 444 c 1
 19 444 l 1
 34 722 l 1
 633 722 l 1xd0
302 787 m 1
 177 953 l 1
 213 953 l 1
 333 852 l 1
 454 953 l 1
 490 953 l 1
 365 787 l 1
 302 787 l 1
EndSplineSet
Ligature: 0 0 'liga' T uni030C
EndChar
StartChar: Udieresis
Encoding: 298 220 192
Width: 815
Flags: W
HStem: -15 54<400 429> 675 47<17 66 17 344> 802 100<319 328 512 530>
VStem: 123 112<201 642> 272 100<852 854> 471 100<852 854> 629 54<240 546>
Fore
683 505 m 2
 683 278 l 2
 683 189 671 136 639 90 c 0
 591 19 513 -15 400 -15 c 0
 287 -15 199 22 153 88 c 0
 134 116 126 148 123 201 c 1
 123 270 l 1
 123 599 l 1
 123 628 l 2
 123 670 114 675 34 675 c 2
 17 675 l 1
 17 722 l 1
 344 722 l 1
 344 675 l 1
 325 675 l 2
 244 675 235 670 235 628 c 2
 235 599 l 1
 235 264 l 2
 235 171 240 147 267 110 c 0
 300 65 359 39 427 39 c 0
 508 39 573 75 605 137 c 0
 624 172 629 204 629 284 c 2
 629 505 l 2
 629 642 609 671 514 675 c 1
 514 722 l 1
 799 722 l 1
 799 675 l 1
 703 671 683 642 683 505 c 2
322 902 m 0
 349 902 372 879 372 852 c 0
 372 824 349 802 321 802 c 0
 295 802 272 825 272 852 c 0
 272 879 295 902 322 902 c 0
521 902 m 0
 548 902 571 879 571 852 c 0
 571 824 548 802 520 802 c 0
 494 802 471 825 471 852 c 0
 471 879 494 902 521 902 c 0
EndSplineSet
KernsSLIF: 114 -37 0 0 46 -44 0 0 112 -40 0 0 110 -40 0 0 109 -38 0 0 44 -43 0 0 98 27 0 0 65 -54 0 0
Ligature: 0 0 'liga' U uni0308
EndChar
StartChar: Uacute
Encoding: 299 218 193
Width: 815
Flags: W
HStem: -15 54<400 429> 675 47<17 66 17 344>
VStem: 123 112<201 642> 629 54<240 546>
Fore
683 505 m 2
 683 278 l 2
 683 189 671 136 639 90 c 0
 591 19 513 -15 400 -15 c 0
 287 -15 199 22 153 88 c 0
 134 116 126 148 123 201 c 1
 123 270 l 1
 123 599 l 1
 123 628 l 2
 123 670 114 675 34 675 c 2
 17 675 l 1
 17 722 l 1
 344 722 l 1
 344 675 l 1
 325 675 l 2
 244 675 235 670 235 628 c 2
 235 599 l 1
 235 264 l 2
 235 171 240 147 267 110 c 0
 300 65 359 39 427 39 c 0
 508 39 573 75 605 137 c 0
 624 172 629 204 629 284 c 2
 629 505 l 2
 629 642 609 671 514 675 c 1
 514 722 l 1
 799 722 l 1
 799 675 l 1
 703 671 683 642 683 505 c 2
346 787 m 1
 486 928 l 2
 510 952 521 958 536 958 c 0
 555 958 571 942 571 923 c 0
 571 909 561 894 546 885 c 2
 387 787 l 1
 346 787 l 1
EndSplineSet
KernsSLIF: 114 -37 0 0 46 -44 0 0 112 -40 0 0 110 -40 0 0 109 -38 0 0 44 -43 0 0 65 -54 0 0
Ligature: 0 0 'liga' U acutecomb
EndChar
StartChar: Ugrave
Encoding: 300 217 194
Width: 815
Flags: W
HStem: -15 54<400 429> 675 47<17 66 17 344>
VStem: 123 112<201 642> 629 54<240 546>
Fore
683 505 m 2
 683 278 l 2
 683 189 671 136 639 90 c 0
 591 19 513 -15 400 -15 c 0
 287 -15 199 22 153 88 c 0
 134 116 126 148 123 201 c 1
 123 270 l 1
 123 599 l 1
 123 628 l 2
 123 670 114 675 34 675 c 2
 17 675 l 1
 17 722 l 1
 344 722 l 1
 344 675 l 1
 325 675 l 2
 244 675 235 670 235 628 c 2
 235 599 l 1
 235 264 l 2
 235 171 240 147 267 110 c 0
 300 65 359 39 427 39 c 0
 508 39 573 75 605 137 c 0
 624 172 629 204 629 284 c 2
 629 505 l 2
 629 642 609 671 514 675 c 1
 514 722 l 1
 799 722 l 1
 799 675 l 1
 703 671 683 642 683 505 c 2
501 787 m 1
 460 787 l 1
 301 885 l 2
 286 894 276 909 276 923 c 0
 276 943 291 958 311 958 c 0
 326 958 336 952 361 928 c 1
 501 787 l 1
EndSplineSet
KernsSLIF: 65 -54 0 0
Ligature: 0 0 'liga' U gravecomb
EndChar
StartChar: Ucircumflex
Encoding: 301 219 195
Width: 815
Flags: W
HStem: -15 54<400 429> 675 47<17 66 17 344>
VStem: 123 112<201 642> 629 54<240 546>
Fore
683 505 m 2
 683 278 l 2
 683 189 671 136 639 90 c 0
 591 19 513 -15 400 -15 c 0
 287 -15 199 22 153 88 c 0
 134 116 126 148 123 201 c 1
 123 270 l 1
 123 599 l 1
 123 628 l 2
 123 670 114 675 34 675 c 2
 17 675 l 1
 17 722 l 1
 344 722 l 1
 344 675 l 1
 325 675 l 2
 244 675 235 670 235 628 c 2
 235 599 l 1
 235 264 l 2
 235 171 240 147 267 110 c 0
 300 65 359 39 427 39 c 0
 508 39 573 75 605 137 c 0
 624 172 629 204 629 284 c 2
 629 505 l 2
 629 642 609 671 514 675 c 1
 514 722 l 1
 799 722 l 1
 799 675 l 1
 703 671 683 642 683 505 c 2
453 953 m 1
 578 787 l 1
 542 787 l 1
 422 888 l 1
 301 787 l 1
 265 787 l 1
 390 953 l 1
 453 953 l 1
EndSplineSet
KernsSLIF: 65 -54 0 0
Ligature: 0 0 'liga' U uni0302
EndChar
StartChar: Uring
Encoding: 302 366 196
Width: 815
Flags: W
HStem: -15 54<400 429> 675 47<17 66 17 344> 782 36<398 418> 945 36<398 418>
VStem: 123 112<201 642> 308 36<870.782 885> 471 36<870.349 885> 629 54<240 546>
Fore
683 505 m 2
 683 278 l 2
 683 189 671 136 639 90 c 0
 591 19 513 -15 400 -15 c 0
 287 -15 199 22 153 88 c 0
 134 116 126 148 123 201 c 1
 123 270 l 1
 123 599 l 1
 123 628 l 2
 123 670 114 675 34 675 c 2
 17 675 l 1
 17 722 l 1
 344 722 l 1
 344 675 l 1
 325 675 l 2
 244 675 235 670 235 628 c 2
 235 599 l 1
 235 264 l 2
 235 171 240 147 267 110 c 0
 300 65 359 39 427 39 c 0
 508 39 573 75 605 137 c 0
 624 172 629 204 629 284 c 2
 629 505 l 2
 629 642 609 671 514 675 c 1
 514 722 l 1
 799 722 l 1
 799 675 l 1
 703 671 683 642 683 505 c 2
407 981 m 0
 462 981 507 936 507 882 c 0
 507 826 462 782 406 782 c 0
 353 782 308 827 308 882 c 0
 308 936 353 981 407 981 c 0
408 945 m 0
 373 945 344 916 344 882 c 0
 344 847 373 818 407 818 c 0
 443 818 471 846 471 882 c 0
 471 916 442 945 408 945 c 0
EndSplineSet
Ligature: 0 0 'liga' U uni030A
EndChar
StartChar: Uhungarumlaut
Encoding: 303 368 197
Width: 815
Flags: W
HStem: -15 54<400 433> 675 47<17 66 17 344>
VStem: 123 112<201 642> 629 54<240 546>
Fore
683 505 m 2
 683 278 l 2
 683 189 671 136 639 90 c 0
 591 19 513 -15 400 -15 c 0
 287 -15 199 22 153 88 c 0
 134 116 126 148 123 201 c 1
 123 270 l 1
 123 599 l 1
 123 628 l 2
 123 670 114 675 34 675 c 2
 17 675 l 1
 17 722 l 1
 344 722 l 1
 344 675 l 1
 325 675 l 2
 244 675 235 670 235 628 c 2
 235 599 l 1
 235 264 l 2
 235 171 240 147 267 110 c 0
 300 65 359 39 427 39 c 0
 508 39 573 75 605 137 c 0
 624 172 629 204 629 284 c 2
 629 505 l 2
 629 642 609 671 514 675 c 1
 514 722 l 1
 799 722 l 1
 799 675 l 1
 703 671 683 642 683 505 c 2
286 796 m 1
 321 895 l 1
 336 936 351 953 374 953 c 0
 389 953 401 940 401 925 c 0
 401 912 396 900 383 885 c 2
 302 787 l 1
 286 796 l 1
414 796 m 1
 449 895 l 1
 464 936 480 953 502 953 c 0
 517 953 529 940 529 925 c 0
 529 912 524 901 511 885 c 2
 430 787 l 1
 414 796 l 1
EndSplineSet
Ligature: 0 0 'liga' U uni030B
EndChar
StartChar: Yacute
Encoding: 304 221 198
Width: 704
Flags: W
HStem: 0 47<190 533> 675 47<-13 20 -13 308 429 476 429 713>
VStem: 306 112<94 287>
DStem: 90 629 221 628 306 287 389 357 513 578 567 568 389 357 418 299
Fore
389 357 m 1
 513 578 l 2
 524 598 530 615 530 630 c 0
 530 662 507 675 452 675 c 2
 429 675 l 1
 429 722 l 1
 713 722 l 1
 713 675 l 1
 705 675 l 2
 672 675 640 662 617 641 c 0
 602 626 589 607 567 568 c 2
 418 299 l 1
 418 123 l 1
 418 94 l 2
 418 51 426 47 507 47 c 2
 533 47 l 1
 533 0 l 1
 190 0 l 1
 190 47 l 1
 216 47 l 2
 297 47 306 52 306 94 c 2
 306 123 l 1
 306 287 l 1
 90 629 l 2
 67 666 52 675 9 675 c 2
 -13 675 l 1
 -13 722 l 1
 308 722 l 1
 308 675 l 1
 249 675 l 2
 222 675 210 669 210 656 c 0
 210 649 213 640 221 628 c 2
 389 357 l 1
284 787 m 1
 424 928 l 2
 448 952 459 958 474 958 c 0
 493 958 509 942 509 923 c 0
 509 909 499 894 484 885 c 2
 325 787 l 1
 284 787 l 1
EndSplineSet
Ligature: 0 0 'liga' Y acutecomb
EndChar
StartChar: Zacute
Encoding: 305 377 199
Width: 611
Flags: W
HStem: 0 47<158 557> 469 21G<53 98> 675 47<73 432>
DStem: 433 675 569 686 24 36 158 47
Fore
569 722 m 1
 569 686 l 1
 158 47 l 1
 324 47 l 2
 389 47 443 66 468 99 c 0
 497 135 514 185 528 278 c 1
 575 278 l 1
 557 0 l 1
 24 0 l 1
 24 36 l 1
 433 675 l 1
 303 675 l 2
 169 675 130 636 98 469 c 1
 53 469 l 1
 73 722 l 1
 569 722 l 1
230 787 m 1
 370 928 l 2
 394 952 405 958 420 958 c 0
 439 958 455 942 455 923 c 0
 455 909 445 894 430 885 c 2
 271 787 l 1
 230 787 l 1
EndSplineSet
Ligature: 0 0 'liga' Z acutecomb
EndChar
StartChar: Zcaron
Encoding: 306 381 200
Width: 611
Flags: W
HStem: 0 47<158 557> 469 21G<53 98> 675 47<73 433>
DStem: 433 675 569 686 24 36 158 47
Fore
569 722 m 1
 569 686 l 1
 158 47 l 1
 324 47 l 2
 389 47 443 66 468 99 c 0
 497 135 514 185 528 278 c 1
 575 278 l 1
 557 0 l 1
 24 0 l 1
 24 36 l 1
 433 675 l 1
 303 675 l 2
 169 675 130 636 98 469 c 1
 53 469 l 1
 73 722 l 1
 569 722 l 1
291 787 m 1
 166 953 l 1
 202 953 l 1
 322 852 l 1
 443 953 l 1
 479 953 l 1
 354 787 l 1
 291 787 l 1
EndSplineSet
Ligature: 0 0 'liga' Z uni030C
EndChar
StartChar: Zdotaccent
Encoding: 307 379 201
Width: 611
Flags: W
HStem: 0 47<158 557> 469 21G<53 98> 675 47<73 433> 796 100<301 313>
VStem: 256 100<836.27 849>
DStem: 433 675 569 686 24 36 158 47
Fore
569 722 m 1
 569 686 l 1
 158 47 l 1
 324 47 l 2
 389 47 443 66 468 99 c 0
 497 135 514 185 528 278 c 1
 575 278 l 1
 557 0 l 1
 24 0 l 1
 24 36 l 1
 433 675 l 1
 303 675 l 2
 169 675 130 636 98 469 c 1
 53 469 l 1
 73 722 l 1
 569 722 l 1
306 896 m 0
 333 896 356 873 356 846 c 0
 356 818 333 796 305 796 c 0
 279 796 256 819 256 846 c 0
 256 873 279 896 306 896 c 0
EndSplineSet
Ligature: 0 0 'liga' Z uni0307
EndChar
StartChar: Amacron
Encoding: 308 256 202
Width: 722
Flags: W
HStem: 0 47<-8 257 421 731> 234 54<218 463> 716 20G<336 378> 820 54<205 518>
DStem: 329 572 378 736 442 288 633 111 336 736 329 572 106 153 218 288 336 736 198 234 106 153 165 146 463 234 378 736 517 100 633 111
Fore
378 736 m 1
 633 111 l 2
 656 55 667 47 717 47 c 2
 731 47 l 1
 731 0 l 1
 421 0 l 1
 421 47 l 1
 463 47 l 2
 500 47 525 57 525 73 c 0
 525 78 523 85 517 100 c 2
 463 234 l 1
 198 234 l 1
 165 146 l 2
 159 130 156 116 156 104 c 0
 156 66 183 47 237 47 c 2
 257 47 l 1
 257 0 l 1
 -8 0 l 1
 -8 47 l 1
 -4 47 l 2
 23 47 51 59 67 78 c 0
 82 94 86 101 106 153 c 1
 336 736 l 1
 378 736 l 1
329 572 m 1
 218 288 l 1
 442 288 l 1
 329 572 l 1
205 874 m 1
 518 874 l 1
 518 820 l 1
 205 820 l 1
 205 874 l 1
EndSplineSet
Ligature: 0 0 'liga' A uni0304
EndChar
StartChar: Tcommaaccent
Encoding: 309 354 203
Width: 667
Flags: W
HStem: -147 107<322 340> 0 47<162 505> 444 278<33 62 34 648> 675 47<34 452>
VStem: 278 112<94 643> 354 48<-154 -126>
Fore
633 722 m 1xe8
 648 444 l 1
 605 444 l 1xe8
 597 501 587 544 572 581 c 0
 547 641 498 675 437 675 c 0
 404 675 390 664 390 639 c 2
 390 123 l 1
 390 94 l 2
 390 52 399 47 479 47 c 2
 505 47 l 1
 505 0 l 1
 162 0 l 1
 162 47 l 1
 188 47 l 2
 269 47 278 52 278 94 c 2
 278 123 l 1
 278 639 l 2
 278 664 264 675 231 675 c 0xd8
 163 675 115 637 89 564 c 0
 78 532 69 494 62 444 c 1
 19 444 l 1
 34 722 l 1
 633 722 l 1xe8
283 -302 m 1
 263 -277 l 1
 322 -240 354 -197 354 -154 c 0
 354 -149 352 -146 348 -146 c 2
 345 -146 l 2
 341 -147 338 -147 333 -147 c 0
 293 -147 269 -127 269 -94 c 0
 269 -63 294 -40 328 -40 c 0
 371 -40 402 -75 402 -126 c 0xc4
 402 -163 388 -203 364 -235 c 0
 351 -252 336 -264 298 -292 c 0
 293 -296 288 -299 283 -302 c 1
EndSplineSet
Ligature: 0 0 'liga' T uni0327
EndChar
StartChar: Ydieresis
Encoding: 310 376 204
Width: 704
Flags: W
HStem: 0 47<190 533> 675 47<-13 20 -13 308 429 468 429 713> 802 100<248 260 450 459>
VStem: 208 100<852 854> 306 112<94 287> 407 100<852 854>
DStem: 90 629 221 628 306 287 389 357 513 578 567 568 389 357 418 299
Fore
389 357 m 1xf0
 513 578 l 2
 524 598 530 615 530 630 c 0
 530 662 507 675 452 675 c 2
 429 675 l 1
 429 722 l 1
 713 722 l 1
 713 675 l 1
 705 675 l 2
 672 675 640 662 617 641 c 0
 602 626 589 607 567 568 c 2
 418 299 l 1
 418 123 l 1
 418 94 l 2xe8
 418 51 426 47 507 47 c 2xe4
 533 47 l 1
 533 0 l 1
 190 0 l 1
 190 47 l 1
 216 47 l 2
 297 47 306 52 306 94 c 2
 306 123 l 1
 306 287 l 1xe8
 90 629 l 2
 67 666 52 675 9 675 c 2
 -13 675 l 1
 -13 722 l 1
 308 722 l 1
 308 675 l 1
 249 675 l 2
 222 675 210 669 210 656 c 0
 210 649 213 640 221 628 c 2
 389 357 l 1xf0
258 902 m 0
 285 902 308 879 308 852 c 0
 308 824 285 802 257 802 c 0
 231 802 208 825 208 852 c 0xf0
 208 879 231 902 258 902 c 0
457 902 m 0
 484 902 507 879 507 852 c 0
 507 824 484 802 456 802 c 0
 430 802 407 825 407 852 c 0xe4
 407 879 430 902 457 902 c 0
EndSplineSet
Ligature: 0 0 'liga' Y uni0308
EndChar
StartChar: Emacron
Encoding: 311 274 205
Width: 722
Flags: W
HStem: 0 47<29 643> 466 256<29 644> 675 47<29 398> 820 54<205 518>
VStem: 137 112<79 350 123 640>
Fore
630 722 m 1xd8
 644 466 l 1
 601 466 l 1xd8
 586 556 562 612 529 638 c 0
 495 666 452 675 364 675 c 2
 312 675 l 2
 258 675 249 668 249 625 c 2
 249 397 l 1
 273 397 l 2
 368 397 408 436 413 534 c 1
 460 534 l 1
 460 206 l 1
 413 206 l 1
 411 265 401 297 375 323 c 0
 355 344 330 350 269 350 c 2
 249 350 l 1
 249 95 l 2
 249 74 250 68 257 62 c 0
 266 53 291 47 321 47 c 2
 387 47 l 2
 471 47 528 66 559 106 c 0
 583 135 606 197 619 267 c 1
 663 267 l 1
 643 0 l 1
 29 0 l 1
 29 47 l 1
 47 47 l 2
 128 47 137 52 137 94 c 2
 137 123 l 1
 137 599 l 1
 137 628 l 2
 137 670 128 675 47 675 c 2
 29 675 l 1xb8
 29 722 l 1
 630 722 l 1xd8
205 874 m 1
 518 874 l 1
 518 820 l 1
 205 820 l 1
 205 874 l 1
EndSplineSet
Ligature: 0 0 'liga' E uni0304
EndChar
StartChar: Imacron
Encoding: 312 298 206
Width: 407
Flags: W
HStem: 0 47<38 369> 675 47<38 87 38 369> 820 54<47 360>
VStem: 148 112<94 641>
Fore
260 599 m 1
 260 123 l 1
 260 94 l 2
 260 52 269 47 349 47 c 2
 369 47 l 1
 369 0 l 1
 38 0 l 1
 38 47 l 1
 58 47 l 2
 139 47 148 52 148 94 c 2
 148 123 l 1
 148 599 l 1
 148 628 l 2
 148 670 139 675 58 675 c 2
 38 675 l 1
 38 722 l 1
 369 722 l 1
 369 675 l 1
 349 675 l 2
 269 675 260 670 260 628 c 2
 260 599 l 1
47 874 m 1
 360 874 l 1
 360 820 l 1
 47 820 l 1
 47 874 l 1
EndSplineSet
Ligature: 0 0 'liga' I uni0304
EndChar
StartChar: Iogonek
Encoding: 313 302 207
Width: 407
Flags: W
HStem: -152 41<299 319> 0 47<38 281> 675 47<38 87 38 369>
VStem: 148 112<72.815 633> 229 50<-84 -67>
Fore
369 47 m 1xf0
 369 0 l 1
 342 -1 335 -1 325 -4 c 0
 298 -12 279 -38 279 -67 c 0
 279 -91 297 -111 319 -111 c 0
 341 -111 362 -100 391 -74 c 1
 407 -95 l 1
 366 -137 336 -152 299 -152 c 0
 259 -152 229 -123 229 -84 c 0xe8
 229 -50 245 -24 281 0 c 1
 38 0 l 1
 38 47 l 1
 58 47 l 2
 111 47 133 51 141 61 c 0
 148 69 148 70 148 123 c 2
 148 599 l 1
 148 628 l 2
 148 670 139 675 58 675 c 2
 38 675 l 1
 38 722 l 1
 369 722 l 1
 369 675 l 1
 349 675 l 2
 269 675 260 670 260 628 c 2
 260 599 l 1
 260 123 l 2
 260 69 260 69 266 61 c 0
 275 51 297 47 349 47 c 2
 369 47 l 1xf0
EndSplineSet
Ligature: 0 0 'liga' I uni0328
EndChar
StartChar: Kcommaaccent
Encoding: 314 310 208
Width: 778
Flags: W
HStem: -147 107<381 391> 0 47<30 359 461 803> 675 47<30 79 30 359 454 498 454 762>
VStem: 138 112<94 250 123 645> 325 133<-126 -94> 410 48<-154 -126>
DStem: 366 367 444 446 540 112 686 97 495 573 593 595 250 327 444 446 495 573 366 367 250 327 250 250
Fore
250 327 m 1xf0
 495 573 l 2
 524 602 544 631 544 645 c 0
 544 666 525 675 479 675 c 2
 454 675 l 1
 454 722 l 1
 762 722 l 1
 762 675 l 1
 702 675 641 646 593 595 c 1
 444 446 l 1
 686 97 l 1
 715 54 729 47 784 47 c 2
 803 47 l 1
 803 0 l 1
 461 0 l 1
 461 47 l 1
 492 47 l 2
 541 47 560 54 560 70 c 0
 560 80 556 88 540 112 c 2
 366 367 l 1
 250 250 l 1
 250 123 l 1
 250 94 l 2
 250 52 259 47 340 47 c 2
 359 47 l 1
 359 0 l 1
 30 0 l 1
 30 47 l 1
 48 47 l 2
 129 47 138 52 138 94 c 2
 138 123 l 1
 138 599 l 1
 138 628 l 2
 138 670 129 675 48 675 c 2
 30 675 l 1
 30 722 l 1
 359 722 l 1
 359 675 l 1
 340 675 l 2
 259 675 250 670 250 628 c 2
 250 599 l 1
 250 327 l 1xf0
339 -302 m 1
 319 -277 l 1
 378 -240 410 -197 410 -154 c 0xf4
 410 -149 408 -146 404 -146 c 2
 401 -146 l 2
 397 -147 394 -147 389 -147 c 0
 349 -147 325 -127 325 -94 c 0
 325 -63 350 -40 384 -40 c 0
 427 -40 458 -75 458 -126 c 0xf8
 458 -163 444 -203 420 -235 c 0
 407 -252 392 -264 354 -292 c 0
 349 -296 344 -299 339 -302 c 1
EndSplineSet
Ligature: 0 0 'liga' K uni0327
EndChar
StartChar: Lcommaaccent
Encoding: 315 315 209
Width: 667
Flags: W
HStem: -147 107<322 340> 0 47<35 625> 675 47<35 84 35 363>
VStem: 143 112<81 643> 269 133<-126 -94> 354 48<-154 -126>
Fore
646 274 m 1xf0
 625 0 l 1
 35 0 l 1
 35 47 l 1
 53 47 l 2
 134 47 143 52 143 94 c 2
 143 123 l 1
 143 599 l 1
 143 628 l 2
 143 670 134 675 53 675 c 2
 35 675 l 1
 35 722 l 1
 363 722 l 1
 363 675 l 1
 345 675 l 2
 264 675 255 670 255 628 c 2
 255 599 l 1
 255 95 l 2
 255 74 256 68 263 62 c 0
 272 53 297 47 327 47 c 2
 369 47 l 2
 453 47 511 66 542 105 c 0
 568 138 592 206 602 274 c 1
 646 274 l 1xf0
283 -302 m 1
 263 -277 l 1
 322 -240 354 -197 354 -154 c 0xf4
 354 -149 352 -146 348 -146 c 2
 345 -146 l 2
 341 -147 338 -147 333 -147 c 0
 293 -147 269 -127 269 -94 c 0
 269 -63 294 -40 328 -40 c 0
 371 -40 402 -75 402 -126 c 0xf8
 402 -163 388 -203 364 -235 c 0
 351 -252 336 -264 298 -292 c 0
 293 -296 288 -299 283 -302 c 1
EndSplineSet
Ligature: 0 0 'liga' L uni0327
EndChar
StartChar: Ncommaaccent
Encoding: 316 325 210
Width: 815
Flags: W
HStem: -147 107<400 409> -14 21G<636 678> 675 47<19 68>
VStem: 136 54<217 588> 343 133<-126 -94> 428 48<-154 -126> 624 54<191 547>
DStem: 190 588 225 722 636 -14 624 191
Fore
225 722 m 1xf2
 624 191 l 1
 624 505 l 2
 624 642 604 671 509 675 c 1
 509 722 l 1
 794 722 l 1
 794 675 l 1
 698 671 678 642 678 505 c 2
 678 -14 l 1
 636 -14 l 1
 190 588 l 1
 190 217 l 2
 190 80 210 51 305 47 c 1
 305 0 l 1
 20 0 l 1
 20 47 l 1
 116 51 136 80 136 217 c 2
 136 642 l 1
 118 667 95 675 44 675 c 2
 19 675 l 1
 19 722 l 1
 225 722 l 1xf2
357 -302 m 1
 337 -277 l 1
 396 -240 428 -197 428 -154 c 0xf6
 428 -149 426 -146 422 -146 c 2
 419 -146 l 2
 415 -147 412 -147 407 -147 c 0
 367 -147 343 -127 343 -94 c 0
 343 -63 368 -40 402 -40 c 0
 445 -40 476 -75 476 -126 c 0xfa
 476 -163 462 -203 438 -235 c 0
 425 -252 410 -264 372 -292 c 0
 367 -296 362 -299 357 -302 c 1
EndSplineSet
Ligature: 0 0 'liga' N uni0327
EndChar
StartChar: Omacron
Encoding: 317 332 211
Width: 778
Flags: W
HStem: -15 47<389 398> 690 47<380 398> 820 54<233 546>
VStem: 45 132<336 386> 601 132<361 386>
Fore
393 737 m 0
 585 737 733 573 733 361 c 0
 733 147 585 -15 389 -15 c 0
 194 -15 45 147 45 360 c 0
 45 474 90 582 167 653 c 0
 228 709 304 737 393 737 c 0
392 690 m 0
 317 690 264 662 227 604 c 0
 190 544 177 483 177 363 c 0
 177 239 189 179 227 118 c 0
 263 62 318 32 389 32 c 0
 460 32 515 62 551 118 c 0
 588 178 601 239 601 361 c 0
 601 483 588 545 551 604 c 0
 515 659 459 690 392 690 c 0
233 874 m 1
 546 874 l 1
 546 820 l 1
 233 820 l 1
 233 874 l 1
EndSplineSet
Ligature: 0 0 'liga' O uni0304
EndChar
StartChar: Rcommaaccent
Encoding: 318 342 212
Width: 722
Flags: W
HStem: -147 107<352 369> 0 47<26 354> 350 47<246 317> 675 47<26 75 26 394>
VStem: 134 112<94 350 122 643> 297 133<-126 -94> 382 48<-154 -126> 513 123<529 563>
Fore
246 350 m 1xf9
 246 122 l 1
 246 94 l 2
 246 52 255 47 336 47 c 2
 354 47 l 1
 354 0 l 1
 26 0 l 1
 26 47 l 1
 44 47 l 2
 125 47 134 52 134 94 c 2
 134 122 l 1
 134 599 l 1
 134 628 l 2
 134 670 125 675 44 675 c 2
 26 675 l 1
 26 722 l 1
 372 722 l 2
 540 722 636 657 636 543 c 0
 636 442 567 384 423 364 c 1
 501 344 540 302 562 210 c 1
 578 147 l 1
 595 78 605 61 628 61 c 0
 655 61 667 91 671 160 c 1
 713 160 l 1
 710 40 671 -15 589 -15 c 0
 510 -15 473 31 461 144 c 1
 456 195 l 1
 449 261 434 297 405 320 c 0
 383 338 343 350 304 350 c 2
 246 350 l 1xf9
246 397 m 1
 356 397 l 2
 404 397 449 410 474 431 c 0
 500 452 513 491 513 542 c 0
 513 633 468 675 369 675 c 2
 315 675 l 2
 272 675 265 674 257 668 c 0
 247 660 246 657 246 617 c 2
 246 397 l 1
311 -302 m 1
 291 -277 l 1
 350 -240 382 -197 382 -154 c 0xfb
 382 -149 380 -146 376 -146 c 2
 373 -146 l 2
 369 -147 366 -147 361 -147 c 0
 321 -147 297 -127 297 -94 c 0
 297 -63 322 -40 356 -40 c 0
 399 -40 430 -75 430 -126 c 0xfd
 430 -163 416 -203 392 -235 c 0
 379 -252 364 -264 326 -292 c 0
 321 -296 316 -299 311 -302 c 1
EndSplineSet
Ligature: 0 0 'liga' R uni0327
EndChar
StartChar: Gcommaaccent
Encoding: 319 290 213
Width: 778
Flags: W
HStem: -147 107<377 395> -15 47<377 407> 282 47<454 507 454 772> 690 47<377 407>
VStem: 42 132<348 371> 325 133<-126 -94> 410 48<-154 -126> 564 103<204 243>
Fore
650 729 m 1xf9
 664 448 l 1
 621 448 l 1
 580 608 501 690 387 690 c 0
 248 690 174 571 174 348 c 0
 174 241 190 170 227 115 c 0
 261 65 326 32 390 32 c 0
 455 32 519 66 544 115 c 0
 556 139 564 179 564 222 c 0
 564 277 557 282 473 282 c 2
 454 282 l 1
 454 329 l 1
 772 329 l 1
 772 282 l 1
 757 282 l 2
 703 282 682 278 673 268 c 0
 667 261 667 260 667 206 c 2
 667 -14 l 1
 625 -14 l 1
 588 76 l 1
 523 11 464 -15 380 -15 c 0
 284 -15 192 26 130 96 c 0
 72 161 42 246 42 348 c 0
 42 483 88 584 187 664 c 0
 250 715 312 737 391 737 c 0
 464 737 508 720 573 668 c 1
 612 729 l 1
 650 729 l 1xf9
339 -302 m 1
 319 -277 l 1
 378 -240 410 -197 410 -154 c 0xfb
 410 -149 408 -146 404 -146 c 2
 401 -146 l 2
 397 -147 394 -147 389 -147 c 0
 349 -147 325 -127 325 -94 c 0
 325 -63 350 -40 384 -40 c 0
 427 -40 458 -75 458 -126 c 0xfd
 458 -163 444 -203 420 -235 c 0
 407 -252 392 -264 354 -292 c 0
 349 -296 344 -299 339 -302 c 1
EndSplineSet
Ligature: 0 0 'liga' G uni0327
EndChar
StartChar: Umacron
Encoding: 320 362 214
Width: 815
Flags: W
HStem: -15 54<400 429> 675 47<17 66 17 344> 820 54<251 564>
VStem: 123 112<201 642> 629 54<240 546>
Fore
683 505 m 2
 683 278 l 2
 683 189 671 136 639 90 c 0
 591 19 513 -15 400 -15 c 0
 287 -15 199 22 153 88 c 0
 134 116 126 148 123 201 c 1
 123 270 l 1
 123 599 l 1
 123 628 l 2
 123 670 114 675 34 675 c 2
 17 675 l 1
 17 722 l 1
 344 722 l 1
 344 675 l 1
 325 675 l 2
 244 675 235 670 235 628 c 2
 235 599 l 1
 235 264 l 2
 235 171 240 147 267 110 c 0
 300 65 359 39 427 39 c 0
 508 39 573 75 605 137 c 0
 624 172 629 204 629 284 c 2
 629 505 l 2
 629 642 609 671 514 675 c 1
 514 722 l 1
 799 722 l 1
 799 675 l 1
 703 671 683 642 683 505 c 2
251 874 m 1
 564 874 l 1
 564 820 l 1
 251 820 l 1
 251 874 l 1
EndSplineSet
Ligature: 0 0 'liga' U uni0304
EndChar
StartChar: Uogonek
Encoding: 321 370 215
Width: 815
Flags: W
HStem: -152 41<529 549> -15 54<399 429> 675 47<17 66 17 344>
VStem: 123 112<201 633> 459 50<-84 -65> 629 54<247 537>
Fore
621 -74 m 1
 637 -95 l 1
 596 -137 567 -152 529 -152 c 0
 489 -152 459 -123 459 -84 c 0
 459 -51 475 -24 509 -2 c 1
 472 -11 440 -15 399 -15 c 0
 287 -15 198 22 153 88 c 0
 134 116 126 148 123 201 c 1
 123 270 l 1
 123 599 l 1
 123 628 l 2
 123 670 114 675 34 675 c 2
 17 675 l 1
 17 722 l 1
 344 722 l 1
 344 675 l 1
 325 675 l 2
 244 675 235 670 235 628 c 2
 235 599 l 1
 235 264 l 2
 235 171 240 147 267 110 c 0
 300 65 359 39 427 39 c 0
 508 39 573 75 605 137 c 0
 624 172 629 204 629 284 c 2
 629 505 l 2
 629 642 609 671 514 675 c 1
 514 722 l 1
 799 722 l 1
 799 675 l 1
 703 671 683 642 683 505 c 2
 683 278 l 2
 683 187 672 143 638 91 c 0
 610 48 595 33 541 -10 c 0
 519 -28 509 -45 509 -65 c 0
 509 -91 526 -111 549 -111 c 0
 571 -111 593 -100 621 -74 c 1
EndSplineSet
Ligature: 0 0 'liga' U uni0328
EndChar
StartChar: adieresis
Encoding: 322 228 216
Width: 556
Flags: W
HStem: -15 53<189 224> -7 59<451 490> 438 43<248 268> 544 100<166 183 363 381>
VStem: 44 101<102 118> 71 112<343 356> 124 100<584.27 597> 323 100<584.27 597> 358 94<160 347>
Fore
452 322 m 2xb480
 452 121 l 2
 452 71 462 52 490 52 c 0
 498 52 502 53 518 59 c 0
 525 62 529 63 533 63 c 0
 538 63 543 58 543 51 c 0
 543 22 496 -7 451 -7 c 0x7480
 404 -7 379 13 363 64 c 1
 320 13 258 -15 189 -15 c 0
 101 -15 44 31 44 102 c 0xb880
 44 165 86 212 172 244 c 0
 221 263 253 271 358 289 c 1
 358 328 l 2
 358 373 351 397 332 413 c 0
 316 428 281 438 250 438 c 0
 202 438 161 420 161 399 c 0
 161 396 162 393 168 386 c 0
 178 372 183 358 183 345 c 0
 183 315 160 294 129 294 c 0
 94 294 71 318 71 356 c 0
 71 428 154 481 266 481 c 0
 330 481 379 467 412 441 c 0
 441 417 452 385 452 322 c 2xb480
358 200 m 2
 358 246 l 1
 280 233 241 223 210 209 c 0
 166 188 145 158 145 116 c 0xb880
 145 71 179 38 224 38 c 0xb2
 267 38 313 63 338 100 c 0
 355 126 358 140 358 200 c 2
174 644 m 0
 201 644 224 621 224 594 c 0
 224 566 201 544 173 544 c 0
 147 544 124 567 124 594 c 0x32
 124 621 147 644 174 644 c 0
373 644 m 0
 400 644 423 621 423 594 c 0
 423 566 400 544 372 544 c 0
 346 544 323 567 323 594 c 0x31
 323 621 346 644 373 644 c 0
EndSplineSet
KernsSLIF: 121 -39 0 0 119 -37 0 0 118 -33 0 0
Ligature: 0 0 'liga' a uni0308
EndChar
StartChar: aacute
Encoding: 323 225 217
Width: 556
Flags: W
HStem: -15 53<189 224> -7 59<451 490> 438 43<240 268> 686 20G<383.5 400.5>
VStem: 44 101<102 118> 71 112<343 356> 358 94<160 347>
Fore
452 322 m 2xb6
 452 121 l 2
 452 71 462 52 490 52 c 0
 498 52 502 53 518 59 c 0
 525 62 529 63 533 63 c 0
 538 63 543 58 543 51 c 0
 543 22 496 -7 451 -7 c 0x76
 404 -7 379 13 363 64 c 1
 320 13 258 -15 189 -15 c 0
 101 -15 44 31 44 102 c 0xba
 44 165 86 212 172 244 c 0
 221 263 253 271 358 289 c 1
 358 328 l 2
 358 373 351 397 332 413 c 0
 316 428 281 438 250 438 c 0
 202 438 161 420 161 399 c 0
 161 396 162 393 168 386 c 0
 178 372 183 358 183 345 c 0
 183 315 160 294 129 294 c 0
 94 294 71 318 71 356 c 0
 71 428 154 481 266 481 c 0
 330 481 379 467 412 441 c 0
 441 417 452 385 452 322 c 2xb6
358 200 m 2
 358 246 l 1
 280 233 241 223 210 209 c 0
 166 188 145 158 145 116 c 0
 145 71 179 38 224 38 c 0xba
 267 38 313 63 338 100 c 0
 355 126 358 140 358 200 c 2
201 535 m 1
 341 675 l 2
 366 700 376 706 391 706 c 0
 410 706 426 690 426 671 c 0
 426 657 416 642 401 632 c 2
 242 535 l 1
 201 535 l 1
EndSplineSet
KernsSLIF: 121 -39 0 0 119 -37 0 0 118 -33 0 0
Ligature: 0 0 'liga' a acutecomb
EndChar
StartChar: agrave
Encoding: 324 224 218
Width: 556
Flags: W
HStem: -15 53<189 224> -7 59<451 490> 438 43<248 268> 686 20G<146 164>
VStem: 44 101<102 118> 71 112<343 356> 358 94<160 347>
Fore
452 322 m 2xb6
 452 121 l 2
 452 71 462 52 490 52 c 0
 498 52 502 53 518 59 c 0
 525 62 529 63 533 63 c 0
 538 63 543 58 543 51 c 0
 543 22 496 -7 451 -7 c 0x76
 404 -7 379 13 363 64 c 1
 320 13 258 -15 189 -15 c 0
 101 -15 44 31 44 102 c 0xba
 44 165 86 212 172 244 c 0
 221 263 253 271 358 289 c 1
 358 328 l 2
 358 373 351 397 332 413 c 0
 316 428 281 438 250 438 c 0
 202 438 161 420 161 399 c 0
 161 396 162 393 168 386 c 0
 178 372 183 358 183 345 c 0
 183 315 160 294 129 294 c 0
 94 294 71 318 71 356 c 0
 71 428 154 481 266 481 c 0
 330 481 379 467 412 441 c 0
 441 417 452 385 452 322 c 2xb6
358 200 m 2
 358 246 l 1
 280 233 241 223 210 209 c 0
 166 188 145 158 145 116 c 0
 145 71 179 38 224 38 c 0xba
 267 38 313 63 338 100 c 0
 355 126 358 140 358 200 c 2
346 535 m 1
 305 535 l 1
 146 632 l 2
 131 642 121 657 121 671 c 0
 121 691 136 706 156 706 c 0
 172 706 181 700 206 675 c 2
 346 535 l 1
EndSplineSet
KernsSLIF: 121 -39 0 0 119 -37 0 0 118 -33 0 0
Ligature: 0 0 'liga' a gravecomb
EndChar
StartChar: acircumflex
Encoding: 325 226 219
Width: 556
Flags: W
HStem: -15 53<189 224> -7 59<451 490> 438 43<240 268> 681 20G<242 305>
VStem: 44 101<102 118> 71 112<343 356> 358 94<160 347>
Fore
452 322 m 2xb6
 452 121 l 2
 452 71 462 52 490 52 c 0
 498 52 502 53 518 59 c 0
 525 62 529 63 533 63 c 0
 538 63 543 58 543 51 c 0
 543 22 496 -7 451 -7 c 0x76
 404 -7 379 13 363 64 c 1
 320 13 258 -15 189 -15 c 0
 101 -15 44 31 44 102 c 0xba
 44 165 86 212 172 244 c 0
 221 263 253 271 358 289 c 1
 358 328 l 2
 358 373 351 397 332 413 c 0
 316 428 281 438 250 438 c 0
 202 438 161 420 161 399 c 0
 161 396 162 393 168 386 c 0
 178 372 183 358 183 345 c 0
 183 315 160 294 129 294 c 0
 94 294 71 318 71 356 c 0
 71 428 154 481 266 481 c 0
 330 481 379 467 412 441 c 0
 441 417 452 385 452 322 c 2xb6
358 200 m 2
 358 246 l 1
 280 233 241 223 210 209 c 0
 166 188 145 158 145 116 c 0
 145 71 179 38 224 38 c 0xba
 267 38 313 63 338 100 c 0
 355 126 358 140 358 200 c 2
305 701 m 1
 430 535 l 1
 394 535 l 1
 274 636 l 1
 153 535 l 1
 117 535 l 1
 242 701 l 1
 305 701 l 1
EndSplineSet
Ligature: 0 0 'liga' a uni0302
EndChar
StartChar: abreve
Encoding: 326 259 220
Width: 556
Flags: W
HStem: -15 53<189 224> -7 59<451 490> 438 43<248 268> 535 62<264 285> 672 20G<136 172 383 419>
VStem: 44 101<102 118> 71 112<343 356> 358 94<160 347>
Fore
452 322 m 2xbb
 452 121 l 2
 452 71 462 52 490 52 c 0
 498 52 502 53 518 59 c 0
 525 62 529 63 533 63 c 0
 538 63 543 58 543 51 c 0
 543 22 496 -7 451 -7 c 0x7b
 404 -7 379 13 363 64 c 1
 320 13 258 -15 189 -15 c 0
 101 -15 44 31 44 102 c 0xbd
 44 165 86 212 172 244 c 0
 221 263 253 271 358 289 c 1
 358 328 l 2
 358 373 351 397 332 413 c 0
 316 428 281 438 250 438 c 0
 202 438 161 420 161 399 c 0
 161 396 162 393 168 386 c 0
 178 372 183 358 183 345 c 0
 183 315 160 294 129 294 c 0
 94 294 71 318 71 356 c 0
 71 428 154 481 266 481 c 0
 330 481 379 467 412 441 c 0
 441 417 452 385 452 322 c 2xbb
358 200 m 2
 358 246 l 1
 280 233 241 223 210 209 c 0
 166 188 145 158 145 116 c 0
 145 71 179 38 224 38 c 0xbd
 267 38 313 63 338 100 c 0
 355 126 358 140 358 200 c 2
383 692 m 1
 419 692 l 1
 419 678 l 2
 419 597 358 535 277 535 c 0
 196 535 136 597 136 679 c 2
 136 692 l 1
 172 692 l 1
 177 632 215 597 278 597 c 0
 340 597 378 632 383 692 c 1
EndSplineSet
Ligature: 0 0 'liga' a uni0306
EndChar
StartChar: atilde
Encoding: 327 227 221
Width: 556
Flags: W
HStem: -15 53<189 224> -7 59<451 490> 438 43<240 268> 553 55<331 353> 595 59<190 208>
VStem: 44 101<102 118> 71 112<343 356> 358 94<160 347>
Fore
452 322 m 2xa3
 452 121 l 2
 452 71 462 52 490 52 c 0
 498 52 502 53 518 59 c 0
 525 62 529 63 533 63 c 0
 538 63 543 58 543 51 c 0
 543 22 496 -7 451 -7 c 0x63
 404 -7 379 13 363 64 c 1
 320 13 258 -15 189 -15 c 0
 101 -15 44 31 44 102 c 0xa5
 44 165 86 212 172 244 c 0
 221 263 253 271 358 289 c 1
 358 328 l 2
 358 373 351 397 332 413 c 0
 316 428 281 438 250 438 c 0
 202 438 161 420 161 399 c 0
 161 396 162 393 168 386 c 0
 178 372 183 358 183 345 c 0
 183 315 160 294 129 294 c 0
 94 294 71 318 71 356 c 0
 71 428 154 481 266 481 c 0
 330 481 379 467 412 441 c 0
 441 417 452 385 452 322 c 2xa3
358 200 m 2
 358 246 l 1
 280 233 241 223 210 209 c 0
 166 188 145 158 145 116 c 0
 145 71 179 38 224 38 c 0xa5
 267 38 313 63 338 100 c 0
 355 126 358 140 358 200 c 2
404 659 m 1
 439 659 l 1
 432 596 388 553 331 553 c 0x31
 305 553 293 557 242 581 c 0
 223 590 204 595 190 595 c 0x29
 167 595 150 580 143 553 c 1
 108 553 l 1x31
 121 615 159 654 208 654 c 0x29
 231 654 239 652 294 627 c 0
 328 612 339 608 353 608 c 0x31
 376 608 398 630 404 659 c 1
EndSplineSet
Ligature: 0 0 'liga' a tildecomb
EndChar
StartChar: aring
Encoding: 328 229 222
Width: 556
Flags: W
HStem: -15 53<189 224> -7 59<451 490> 438 43<248 268> 530 36<264 285> 693 36<264 285>
VStem: 44 101<102 118> 71 112<343 356> 174 36<630 632> 337 36<630 632> 358 94<160 347>
Fore
452 322 m 2xba40
 452 121 l 2
 452 71 462 52 490 52 c 0
 498 52 502 53 518 59 c 0
 525 62 529 63 533 63 c 0
 538 63 543 58 543 51 c 0
 543 22 496 -7 451 -7 c 0x7a40
 404 -7 379 13 363 64 c 1
 320 13 258 -15 189 -15 c 0
 101 -15 44 31 44 102 c 0xbc40
 44 165 86 212 172 244 c 0
 221 263 253 271 358 289 c 1
 358 328 l 2
 358 373 351 397 332 413 c 0
 316 428 281 438 250 438 c 0
 202 438 161 420 161 399 c 0
 161 396 162 393 168 386 c 0
 178 372 183 358 183 345 c 0
 183 315 160 294 129 294 c 0
 94 294 71 318 71 356 c 0
 71 428 154 481 266 481 c 0
 330 481 379 467 412 441 c 0
 441 417 452 385 452 322 c 2xba40
358 200 m 2
 358 246 l 1
 280 233 241 223 210 209 c 0
 166 188 145 158 145 116 c 0
 145 71 179 38 224 38 c 0xbd40
 267 38 313 63 338 100 c 0
 355 126 358 140 358 200 c 2
273 729 m 0
 328 729 373 684 373 630 c 0x3980
 373 574 328 530 272 530 c 0
 219 530 174 575 174 630 c 0
 174 684 219 729 273 729 c 0
274 693 m 0
 239 693 210 664 210 630 c 0
 210 595 239 566 273 566 c 0
 309 566 337 594 337 630 c 0
 337 664 308 693 274 693 c 0
EndSplineSet
KernsSLIF: 121 -39 0 0 119 -37 0 0 118 -33 0 0
Ligature: 0 0 'liga' a uni030A
EndChar
StartChar: aogonek
Encoding: 329 261 223
Width: 556
Flags: W
HStem: -152 41<456 476> -15 53<189 224> 438 43<248 268>
VStem: 44 101<102 118> 71 112<343 356> 358 94<167 347> 386 50<-84 -67>
Fore
548 -74 m 1xe2
 564 -95 l 1
 523 -137 493 -152 456 -152 c 0
 416 -152 386 -123 386 -84 c 0
 386 -52 400 -27 430 -5 c 1
 396 1 376 21 363 64 c 1
 320 13 258 -15 189 -15 c 0
 101 -15 44 31 44 102 c 0xf2
 44 165 86 212 172 244 c 0
 221 263 253 271 358 289 c 1
 358 328 l 2
 358 373 351 397 332 413 c 0
 316 428 281 438 250 438 c 0
 202 438 161 420 161 399 c 0
 161 396 162 393 168 386 c 0
 178 372 183 358 183 345 c 0
 183 315 160 294 129 294 c 0
 94 294 71 318 71 356 c 0
 71 428 154 481 266 481 c 0
 330 481 379 467 412 441 c 0
 441 417 452 385 452 322 c 2
 452 121 l 2xec
 452 71 462 52 490 52 c 0
 498 52 502 53 518 59 c 0
 525 62 529 63 533 63 c 0
 538 63 543 58 543 51 c 0
 543 41 535 28 523 18 c 0
 513 9 513 9 468 -10 c 0
 451 -17 436 -45 436 -67 c 0
 436 -91 454 -111 476 -111 c 0
 498 -111 519 -100 548 -74 c 1xe2
358 200 m 2xf4
 358 246 l 1
 280 233 241 223 210 209 c 0
 166 188 145 158 145 116 c 0
 145 71 179 38 224 38 c 0
 267 38 313 63 338 100 c 0
 355 126 358 140 358 200 c 2xf4
EndSplineSet
Ligature: 0 0 'liga' a uni0328
EndChar
StartChar: cacute
Encoding: 330 263 224
Width: 444
Flags: W
HStem: -15 61<243 269> 438 43<255 275> 686 20G<369.5 386.5>
VStem: 34 105<208 242> 292 121<348 362>
Fore
387 147 m 1
 426 132 l 1
 383 26 332 -15 243 -15 c 0
 119 -15 34 83 34 225 c 0
 34 374 127 481 257 481 c 0
 346 481 413 429 413 362 c 0
 413 322 387 294 352 294 c 0
 317 294 292 317 292 350 c 0
 292 367 296 377 312 396 c 0
 316 402 318 405 318 408 c 0
 318 424 292 438 262 438 c 0
 188 438 139 357 139 236 c 0
 139 119 189 46 269 46 c 0
 321 46 355 75 387 147 c 1
187 535 m 1
 327 675 l 2
 352 700 362 706 377 706 c 0
 396 706 412 690 412 671 c 0
 412 657 402 642 387 632 c 2
 228 535 l 1
 187 535 l 1
EndSplineSet
Ligature: 0 0 'liga' c acutecomb
EndChar
StartChar: ccaron
Encoding: 331 269 225
Width: 444
Flags: W
HStem: -15 61<243 269> 438 43<255 275> 681 20G<106 142 383 419>
VStem: 34 105<208 242> 292 121<348 362>
Fore
387 147 m 1
 426 132 l 1
 383 26 332 -15 243 -15 c 0
 119 -15 34 83 34 225 c 0
 34 374 127 481 257 481 c 0
 346 481 413 429 413 362 c 0
 413 322 387 294 352 294 c 0
 317 294 292 317 292 350 c 0
 292 367 296 377 312 396 c 0
 316 402 318 405 318 408 c 0
 318 424 292 438 262 438 c 0
 188 438 139 357 139 236 c 0
 139 119 189 46 269 46 c 0
 321 46 355 75 387 147 c 1
231 535 m 1
 106 701 l 1
 142 701 l 1
 262 600 l 1
 383 701 l 1
 419 701 l 1
 294 535 l 1
 231 535 l 1
EndSplineSet
Ligature: 0 0 'liga' c uni030C
EndChar
StartChar: ccedilla
Encoding: 332 231 226
Width: 444
Flags: W
HStem: -215 38<193 216> -98 38<211 252> -15 61<242 269> 438 43<250 275>
VStem: 34 105<216 250> 258 76<-139 -128> 292 121<348 362>
DStem: 206 -12 242 -15 169 -98 223 -63
Fore
242 -15 m 1xfa
 223 -63 l 1
 237 -61 244 -60 252 -60 c 0
 301 -60 334 -88 334 -128 c 0
 334 -179 285 -215 214 -215 c 0
 183 -215 154 -209 126 -198 c 1
 141 -165 l 1
 164 -173 183 -177 202 -177 c 0
 235 -177 258 -161 258 -137 c 0xfc
 258 -114 239 -98 211 -98 c 0
 202 -98 191 -100 177 -103 c 1
 169 -98 l 1
 206 -12 l 1
 102 5 34 99 34 225 c 0
 34 374 127 481 257 481 c 0
 346 481 413 429 413 362 c 0
 413 322 387 294 352 294 c 0
 317 294 292 317 292 350 c 0
 292 367 296 377 312 396 c 0
 316 402 318 405 318 408 c 0
 318 424 292 438 262 438 c 0
 188 438 139 357 139 236 c 0
 139 119 189 46 269 46 c 0
 321 46 355 75 387 147 c 1
 426 132 l 1
 386 29 330 -15 242 -15 c 1xfa
EndSplineSet
Ligature: 0 0 'liga' c uni0327
EndChar
StartChar: dcaron
Encoding: 333 271 227
Width: 606
Flags: W
HStem: -15 54<242 263> 427 54<242 262> 633 107<551 560>
VStem: 43 105<208 242> 379 95<208 737> 494 133<654 686> 579 48<626 654>
Fore
380 -7 m 1xf8
 380 72 l 1
 348 12 305 -15 242 -15 c 0
 126 -15 43 86 43 228 c 0
 43 372 129 481 242 481 c 0
 300 481 343 458 380 407 c 1
 380 633 l 2
 380 676 373 683 337 683 c 2
 278 683 l 1
 278 726 l 1
 474 737 l 1
 474 116 l 2
 474 53 482 43 536 43 c 2
 554 43 l 1
 554 0 l 1
 380 -7 l 1xf8
262 427 m 0
 221 427 184 398 167 354 c 0
 154 320 148 275 148 216 c 0
 148 105 191 39 261 39 c 0
 333 39 379 115 379 231 c 0
 379 279 372 321 360 351 c 0
 342 397 303 427 262 427 c 0
508 478 m 1
 488 503 l 1
 547 540 579 583 579 626 c 0xfa
 579 631 577 634 573 634 c 2
 570 634 l 2
 566 633 563 633 558 633 c 0
 518 633 494 653 494 686 c 0
 494 717 519 740 553 740 c 0
 596 740 627 705 627 654 c 0xfc
 627 617 613 577 589 545 c 0
 576 528 561 516 523 488 c 0
 519 485 513 481 508 478 c 1
EndSplineSet
Ligature: 0 0 'liga' d uni030C
EndChar
StartChar: edieresis
Encoding: 334 235 228
Width: 500
Flags: W
HStem: -15 54<261 282> 225 43<142 465> 438 43<242 263> 544 100<154 168 354 361>
VStem: 35 106<208 225> 108 100<584.27 597> 307 100<584.27 597> 358 107<225 305>
Fore
465 225 m 1xf9
 141 225 l 1
 140 170 148 135 166 105 c 0
 192 61 229 39 280 39 c 0
 347 39 389 69 430 146 c 1
 465 127 l 1
 424 32 356 -15 261 -15 c 0
 126 -15 35 80 35 220 c 0
 35 370 131 481 259 481 c 0
 381 481 466 375 465 225 c 1xf9
142 268 m 1
 317 268 l 2
 349 268 358 276 358 305 c 0
 358 385 318 438 257 438 c 0
 209 438 177 409 156 349 c 0
 146 321 142 299 142 268 c 1
158 644 m 0
 185 644 208 621 208 594 c 0
 208 566 185 544 157 544 c 0
 131 544 108 567 108 594 c 0xf4
 108 621 131 644 158 644 c 0
357 644 m 0
 384 644 407 621 407 594 c 0
 407 566 384 544 356 544 c 0
 330 544 307 567 307 594 c 0xf2
 307 621 330 644 357 644 c 0
EndSplineSet
Ligature: 0 0 'liga' e uni0308
EndChar
StartChar: eacute
Encoding: 335 233 229
Width: 500
Flags: W
HStem: -15 54<261 282> 225 43<142 465> 438 43<242 263> 686 20G<366.5 383.5>
VStem: 35 106<208 225> 358 107<225 305>
Fore
465 225 m 1
 141 225 l 1
 140 170 148 135 166 105 c 0
 192 61 229 39 280 39 c 0
 347 39 389 69 430 146 c 1
 465 127 l 1
 424 32 356 -15 261 -15 c 0
 126 -15 35 80 35 220 c 0
 35 370 131 481 259 481 c 0
 381 481 466 375 465 225 c 1
142 268 m 1
 317 268 l 2
 349 268 358 276 358 305 c 0
 358 385 318 438 257 438 c 0
 209 438 177 409 156 349 c 0
 146 321 142 299 142 268 c 1
184 535 m 1
 324 675 l 2
 349 700 359 706 374 706 c 0
 393 706 409 690 409 671 c 0
 409 657 399 642 384 632 c 2
 225 535 l 1
 184 535 l 1
EndSplineSet
KernsSLIF: 121 -25 0 0 119 -22 0 0 118 -19 0 0
Ligature: 0 0 'liga' e acutecomb
EndChar
StartChar: egrave
Encoding: 336 232 230
Width: 500
Flags: W
HStem: -15 54<261 282> 225 43<142 465> 438 43<242 263> 686 20G<136 154>
VStem: 35 106<208 225> 358 107<225 305>
Fore
465 225 m 1
 141 225 l 1
 140 170 148 135 166 105 c 0
 192 61 229 39 280 39 c 0
 347 39 389 69 430 146 c 1
 465 127 l 1
 424 32 356 -15 261 -15 c 0
 126 -15 35 80 35 220 c 0
 35 370 131 481 259 481 c 0
 381 481 466 375 465 225 c 1
142 268 m 1
 317 268 l 2
 349 268 358 276 358 305 c 0
 358 385 318 438 257 438 c 0
 209 438 177 409 156 349 c 0
 146 321 142 299 142 268 c 1
336 535 m 1
 295 535 l 1
 136 632 l 2
 121 642 111 657 111 671 c 0
 111 691 126 706 146 706 c 0
 162 706 171 700 196 675 c 2
 336 535 l 1
EndSplineSet
Ligature: 0 0 'liga' e gravecomb
EndChar
StartChar: ecircumflex
Encoding: 337 234 231
Width: 500
Flags: W
HStem: -15 54<261 282> 225 43<142 465> 438 43<242 263> 681 20G<225 288>
VStem: 35 106<208 225> 358 107<225 305>
Fore
465 225 m 1
 141 225 l 1
 140 170 148 135 166 105 c 0
 192 61 229 39 280 39 c 0
 347 39 389 69 430 146 c 1
 465 127 l 1
 424 32 356 -15 261 -15 c 0
 126 -15 35 80 35 220 c 0
 35 370 131 481 259 481 c 0
 381 481 466 375 465 225 c 1
142 268 m 1
 317 268 l 2
 349 268 358 276 358 305 c 0
 358 385 318 438 257 438 c 0
 209 438 177 409 156 349 c 0
 146 321 142 299 142 268 c 1
288 701 m 1
 413 535 l 1
 377 535 l 1
 257 636 l 1
 136 535 l 1
 100 535 l 1
 225 701 l 1
 288 701 l 1
EndSplineSet
KernsSLIF: 121 -25 0 0 119 -22 0 0 118 -19 0 0
Ligature: 0 0 'liga' e uni0302
EndChar
StartChar: ecaron
Encoding: 338 283 232
Width: 500
Flags: W
HStem: -15 54<261 284> 225 43<142 465> 438 43<242 263> 681 20G<94 130 371 407>
VStem: 35 106<208 225> 358 107<225 305>
Fore
465 225 m 1
 141 225 l 1
 140 170 148 135 166 105 c 0
 192 61 229 39 280 39 c 0
 347 39 389 69 430 146 c 1
 465 127 l 1
 424 32 356 -15 261 -15 c 0
 126 -15 35 80 35 220 c 0
 35 370 131 481 259 481 c 0
 381 481 466 375 465 225 c 1
142 268 m 1
 317 268 l 2
 349 268 358 276 358 305 c 0
 358 385 318 438 257 438 c 0
 209 438 177 409 156 349 c 0
 146 321 142 299 142 268 c 1
219 535 m 1
 94 701 l 1
 130 701 l 1
 250 600 l 1
 371 701 l 1
 407 701 l 1
 282 535 l 1
 219 535 l 1
EndSplineSet
Ligature: 0 0 'liga' e uni030C
EndChar
StartChar: edotaccent
Encoding: 339 279 233
Width: 500
Flags: W
HStem: -15 54<261 282> 225 43<142 465> 438 43<242 263> 544 100<242 259>
VStem: 35 106<208 225> 200 100<584.27 597> 358 107<225 305>
Fore
465 225 m 1
 141 225 l 1
 140 170 148 135 166 105 c 0
 192 61 229 39 280 39 c 0
 347 39 389 69 430 146 c 1
 465 127 l 1
 424 32 356 -15 261 -15 c 0
 126 -15 35 80 35 220 c 0
 35 370 131 481 259 481 c 0
 381 481 466 375 465 225 c 1
142 268 m 1
 317 268 l 2
 349 268 358 276 358 305 c 0
 358 385 318 438 257 438 c 0
 209 438 177 409 156 349 c 0
 146 321 142 299 142 268 c 1
250 644 m 0
 277 644 300 621 300 594 c 0
 300 566 277 544 249 544 c 0
 223 544 200 567 200 594 c 0
 200 621 223 644 250 644 c 0
EndSplineSet
Ligature: 0 0 'liga' e uni0307
EndChar
StartChar: eogonek
Encoding: 340 281 234
Width: 500
Flags: W
HStem: -152 41<355 375> -15 54<261 287> 225 43<142 465> 438 43<242 265>
VStem: 35 106<199 225> 285 50<-84 -65>
Fore
430 146 m 1
 465 127 l 1
 450 88 412 36 359 -17 c 0
 341 -35 335 -47 335 -65 c 0
 335 -91 352 -111 375 -111 c 0
 397 -111 418 -100 447 -74 c 1
 463 -95 l 1
 422 -137 392 -152 355 -152 c 0
 315 -152 285 -123 285 -84 c 0
 285 -52 298 -28 329 -6 c 1
 303 -13 286 -15 262 -15 c 0
 126 -15 35 79 35 220 c 0
 35 370 131 481 259 481 c 0
 381 481 466 375 465 225 c 1
 141 225 l 1
 140 170 148 135 166 105 c 0
 192 61 229 39 280 39 c 0
 347 39 389 69 430 146 c 1
142 268 m 1
 317 268 l 2
 349 268 358 276 358 305 c 0
 358 385 318 438 257 438 c 0
 209 438 177 409 156 349 c 0
 146 321 142 299 142 268 c 1
EndSplineSet
Ligature: 0 0 'liga' e uni0328
EndChar
StartChar: gbreve
Encoding: 341 287 235
Width: 537
Flags: W
HStem: -203 41<214 270> -12 86<171 328> 154 38<208 251> 389 106<476 497> 438 43<238 270> 535 62<251 280> 672 20G<127 163 374 410>
VStem: 23 83<-102 -90> 59 91<308 326> 353 92<308 326> 415 70<-72 -45>
Fore
196 74 m 2xf6c0
 298 74 l 2
 367 74 399 70 425 60 c 0
 462 45 485 5 485 -45 c 0
 485 -150 401 -203 234 -203 c 0
 100 -203 23 -166 23 -100 c 0xf720
 23 -59 53 -27 115 -5 c 1
 68 11 48 37 48 81 c 0
 48 136 76 166 143 181 c 1
 91 205 59 256 59 315 c 0
 59 415 137 481 256 481 c 0xee80
 306 481 338 471 380 443 c 1
 426 485 444 495 476 495 c 0
 515 495 542 471 542 437 c 0
 542 410 522 389 497 389 c 0
 472 389 456 402 452 426 c 0
 450 437 447 440 442 440 c 0
 434 440 425 434 408 416 c 1
 436 383 445 358 445 318 c 0
 445 252 411 200 351 173 c 0
 318 158 303 156 208 154 c 0
 141 152 114 139 114 109 c 0
 114 98 119 87 126 83 c 0
 138 76 141 75 196 74 c 2xf6c0
255 438 m 0xeec0
 188 438 150 393 150 314 c 0
 150 239 189 192 251 192 c 0
 315 192 353 239 353 317 c 0
 353 394 318 438 255 438 c 0xeec0
246 -12 m 2
 172 -12 l 1
 124 -37 106 -59 106 -92 c 0
 106 -137 154 -162 238 -162 c 0
 350 -162 415 -129 415 -72 c 0xe720
 415 -40 390 -18 350 -14 c 0
 335 -12 329 -12 246 -12 c 2
374 692 m 1
 410 692 l 1
 410 678 l 2
 410 597 349 535 268 535 c 0
 187 535 127 597 127 679 c 2
 127 692 l 1
 163 692 l 1
 168 632 206 597 269 597 c 0
 331 597 369 632 374 692 c 1
EndSplineSet
Ligature: 0 0 'liga' g uni0306
EndChar
StartChar: idieresis
Encoding: 342 239 236
Width: 315
Flags: W
HStem: 0 36<34 293> 544 100<55 60 247 265>
VStem: 8 100<594 596> 116 94<66.2543 385> 207 100<594 596>
Fore
210 466 m 1xf0
 210 123 l 1
 210 83 l 2
 210 43 221 36 286 36 c 2
 293 36 l 1
 293 0 l 1
 34 0 l 1
 34 36 l 1
 41 36 l 2
 105 36 116 43 116 83 c 2
 116 123 l 1
 116 362 l 2
 116 405 110 412 73 412 c 2
 22 412 l 1
 22 455 l 1
 210 466 l 1xf0
58 644 m 0
 85 644 108 621 108 594 c 0
 108 566 85 544 57 544 c 0
 31 544 8 567 8 594 c 0
 8 621 31 644 58 644 c 0
257 644 m 0
 284 644 307 621 307 594 c 0
 307 566 284 544 256 544 c 0
 230 544 207 567 207 594 c 0xe8
 207 621 230 644 257 644 c 0
EndSplineSet
Ligature: 0 0 'liga' i uni0308
EndChar
StartChar: iacute
Encoding: 343 237 237
Width: 315
Flags: W
HStem: 0 36<30 289> 686 20G<264.5 281.5>
VStem: 112 94<66.2543 369>
Fore
206 466 m 1
 206 123 l 1
 206 83 l 2
 206 43 217 36 282 36 c 2
 289 36 l 1
 289 0 l 1
 30 0 l 1
 30 36 l 1
 37 36 l 2
 101 36 112 43 112 83 c 2
 112 123 l 1
 112 362 l 2
 112 404 106 412 69 412 c 2
 18 412 l 1
 18 455 l 1
 206 466 l 1
82 535 m 1
 222 675 l 2
 247 700 257 706 272 706 c 0
 291 706 307 690 307 671 c 0
 307 657 297 642 282 632 c 2
 123 535 l 1
 82 535 l 1
EndSplineSet
Ligature: 0 0 'liga' i acutecomb
EndChar
StartChar: igrave
Encoding: 344 236 238
Width: 315
Flags: W
HStem: 0 36<30 289> 686 20G<33 51>
VStem: 112 94<66.2543 369>
Fore
206 466 m 1
 206 123 l 1
 206 83 l 2
 206 43 217 36 282 36 c 2
 289 36 l 1
 289 0 l 1
 30 0 l 1
 30 36 l 1
 37 36 l 2
 101 36 112 43 112 83 c 2
 112 123 l 1
 112 362 l 2
 112 404 106 412 69 412 c 2
 18 412 l 1
 18 455 l 1
 206 466 l 1
233 535 m 1
 192 535 l 1
 33 632 l 2
 18 642 8 657 8 671 c 0
 8 691 23 706 43 706 c 0
 59 706 68 700 93 675 c 2
 233 535 l 1
EndSplineSet
Ligature: 0 0 'liga' i gravecomb
EndChar
StartChar: icircumflex
Encoding: 345 238 239
Width: 315
Flags: W
HStem: 0 36<34 293> 681 20G<126 189>
VStem: 116 94<66.2543 369>
Fore
210 466 m 1
 210 123 l 1
 210 83 l 2
 210 43 221 36 286 36 c 2
 293 36 l 1
 293 0 l 1
 34 0 l 1
 34 36 l 1
 41 36 l 2
 105 36 116 43 116 83 c 2
 116 123 l 1
 116 362 l 2
 116 404 110 412 73 412 c 2
 22 412 l 1
 22 455 l 1
 210 466 l 1
189 701 m 1
 314 535 l 1
 278 535 l 1
 158 636 l 1
 37 535 l 1
 1 535 l 1
 126 701 l 1
 189 701 l 1
EndSplineSet
Ligature: 0 0 'liga' i uni0302
EndChar
StartChar: lacute
Encoding: 346 314 240
Width: 315
Flags: W
HStem: 0 36<28 287>
VStem: 110 94<66.2543 641>
Fore
204 737 m 5
 204 83 l 6
 204 43 215 36 280 36 c 6
 287 36 l 5
 287 0 l 5
 28 0 l 5
 28 36 l 5
 35 36 l 6
 99 36 110 43 110 83 c 6
 110 633 l 6
 110 676 104 683 68 683 c 2
 19 683 l 1
 19 726 l 1
 204 737 l 5
82 787 m 1
 222 927 l 2
 247 952 257 958 272 958 c 0
 291 958 307 942 307 923 c 0
 307 909 297 894 282 884 c 2
 123 787 l 1
 82 787 l 1
EndSplineSet
LCarets: 0 65535 '    ' 1 0 
Ligature: 0 0 'liga' l acutecomb
EndChar
StartChar: lcaron
Encoding: 347 318 241
Width: 339
Flags: W
HStem: 0 36<28 287> 633 107<278 292>
VStem: 110 94<66.2543 656> 226 133<654 686> 311 48<626 654>
Fore
204 737 m 1xe0
 204 123 l 1
 204 83 l 2
 204 43 215 36 280 36 c 2
 287 36 l 1
 287 0 l 1
 28 0 l 1
 28 36 l 1
 35 36 l 2
 99 36 110 43 110 83 c 2
 110 123 l 1
 110 633 l 2
 110 676 104 683 68 683 c 2
 19 683 l 1
 19 726 l 1
 204 737 l 1xe0
240 478 m 1
 220 503 l 1
 279 540 311 583 311 626 c 0xe8
 311 631 309 634 305 634 c 2
 302 634 l 2
 298 633 295 633 290 633 c 0
 250 633 226 653 226 686 c 0
 226 717 251 740 285 740 c 0
 328 740 359 705 359 654 c 0xf0
 359 617 345 577 321 545 c 0
 308 528 293 516 255 488 c 0
 251 485 245 481 240 478 c 1
EndSplineSet
Ligature: 0 0 'liga' l uni030C
EndChar
StartChar: nacute
Encoding: 348 324 242
Width: 611
Flags: W
HStem: 0 36<27 280 340 593> 420 61<327 358> 686 20G<412.5 429.5>
VStem: 106 94<66.2543 257> 420 94<66.2543 305>
Fore
200 466 m 1
 200 385 l 1
 244 451 294 481 358 481 c 0
 417 481 468 452 493 404 c 0
 511 370 514 352 514 280 c 2
 514 123 l 1
 514 83 l 2
 514 43 525 36 589 36 c 2
 593 36 l 1
 593 0 l 1
 340 0 l 1
 340 36 l 1
 344 36 l 2
 409 36 420 43 420 83 c 2
 420 123 l 1
 420 285 l 2
 420 333 413 364 398 385 c 0
 383 405 353 420 327 420 c 0
 284 420 239 389 218 344 c 0
 207 321 200 276 200 227 c 2
 200 123 l 1
 200 83 l 2
 200 43 211 36 276 36 c 2
 280 36 l 1
 280 0 l 1
 27 0 l 1
 27 36 l 1
 31 36 l 2
 95 36 106 43 106 83 c 2
 106 123 l 1
 106 362 l 2
 106 405 100 412 63 412 c 2
 27 412 l 1
 27 455 l 1
 200 466 l 1
230 535 m 1
 370 675 l 2
 395 700 405 706 420 706 c 0
 439 706 455 690 455 671 c 0
 455 657 445 642 430 632 c 2
 271 535 l 1
 230 535 l 1
EndSplineSet
Ligature: 0 0 'liga' n acutecomb
EndChar
StartChar: ncaron
Encoding: 349 328 243
Width: 611
Flags: W
HStem: 0 36<27 280 340 593> 420 61<327 358> 681 20G<149 185 426 462>
VStem: 106 94<66.2543 257> 420 94<66.2543 305>
Fore
200 466 m 1
 200 385 l 1
 244 451 294 481 358 481 c 0
 417 481 468 452 493 404 c 0
 511 370 514 352 514 280 c 2
 514 123 l 1
 514 83 l 2
 514 43 525 36 589 36 c 2
 593 36 l 1
 593 0 l 1
 340 0 l 1
 340 36 l 1
 344 36 l 2
 409 36 420 43 420 83 c 2
 420 123 l 1
 420 285 l 2
 420 333 413 364 398 385 c 0
 383 405 353 420 327 420 c 0
 284 420 239 389 218 344 c 0
 207 321 200 276 200 227 c 2
 200 123 l 1
 200 83 l 2
 200 43 211 36 276 36 c 2
 280 36 l 1
 280 0 l 1
 27 0 l 1
 27 36 l 1
 31 36 l 2
 95 36 106 43 106 83 c 2
 106 123 l 1
 106 362 l 2
 106 405 100 412 63 412 c 2
 27 412 l 1
 27 455 l 1
 200 466 l 1
274 535 m 1
 149 701 l 1
 185 701 l 1
 305 600 l 1
 426 701 l 1
 462 701 l 1
 337 535 l 1
 274 535 l 1
EndSplineSet
Ligature: 0 0 'liga' n uni030C
EndChar
StartChar: ntilde
Encoding: 350 241 244
Width: 611
Flags: W
HStem: 0 36<27 280 340 593> 420 61<327 358> 553 55<364 386> 595 59<223 241>
VStem: 106 94<66.2543 257> 420 94<66.2543 305>
Fore
200 466 m 1xcc
 200 385 l 1
 244 451 294 481 358 481 c 0
 417 481 468 452 493 404 c 0
 511 370 514 352 514 280 c 2
 514 123 l 1
 514 83 l 2
 514 43 525 36 589 36 c 2
 593 36 l 1
 593 0 l 1
 340 0 l 1
 340 36 l 1
 344 36 l 2
 409 36 420 43 420 83 c 2
 420 123 l 1
 420 285 l 2
 420 333 413 364 398 385 c 0
 383 405 353 420 327 420 c 0
 284 420 239 389 218 344 c 0
 207 321 200 276 200 227 c 2
 200 123 l 1
 200 83 l 2
 200 43 211 36 276 36 c 2
 280 36 l 1
 280 0 l 1
 27 0 l 1
 27 36 l 1
 31 36 l 2
 95 36 106 43 106 83 c 2
 106 123 l 1
 106 362 l 2
 106 405 100 412 63 412 c 2
 27 412 l 1
 27 455 l 1
 200 466 l 1xcc
437 659 m 1
 472 659 l 1
 465 596 421 553 364 553 c 0xec
 338 553 326 557 275 581 c 0
 256 590 237 595 223 595 c 0xdc
 200 595 183 580 176 553 c 1
 141 553 l 1xec
 154 615 192 654 241 654 c 0xdc
 264 654 272 652 327 627 c 0
 361 612 372 608 386 608 c 0xec
 409 608 431 630 437 659 c 1
EndSplineSet
Ligature: 0 0 'liga' n tildecomb
EndChar
StartChar: odieresis
Encoding: 351 246 245
Width: 500
Flags: W
HStem: -15 43<250 259> 438 43<252 259> 544 100<145 153 347 355>
VStem: 34 105<232 242> 101 100<584.27 597> 300 100<584.27 597> 361 105<233 258>
Fore
252 481 m 0xf2
 370 481 466 370 466 233 c 0
 466 95 370 -15 250 -15 c 0
 130 -15 34 95 34 232 c 0
 34 372 130 481 252 481 c 0xf2
252 438 m 0
 177 438 139 368 139 232 c 0
 139 100 178 28 250 28 c 0
 322 28 361 100 361 233 c 0
 361 365 322 438 252 438 c 0
151 644 m 0
 178 644 201 621 201 594 c 0
 201 566 178 544 150 544 c 0
 124 544 101 567 101 594 c 0xe8
 101 621 124 644 151 644 c 0
350 644 m 0
 377 644 400 621 400 594 c 0
 400 566 377 544 349 544 c 0
 323 544 300 567 300 594 c 0xe4
 300 621 323 644 350 644 c 0
EndSplineSet
KernsSLIF: 121 -30 0 0 120 -22 0 0 119 -26 0 0 118 -22 0 0 116 -21 0 0
Ligature: 0 0 'liga' o uni0308
EndChar
StartChar: oacute
Encoding: 352 243 246
Width: 500
Flags: W
HStem: -15 43<250 259> 438 43<252 259> 686 20G<366.5 383.5>
VStem: 34 105<232 242> 361 105<233 258>
Fore
252 481 m 0
 370 481 466 370 466 233 c 0
 466 95 370 -15 250 -15 c 0
 130 -15 34 95 34 232 c 0
 34 372 130 481 252 481 c 0
252 438 m 0
 177 438 139 368 139 232 c 0
 139 100 178 28 250 28 c 0
 322 28 361 100 361 233 c 0
 361 365 322 438 252 438 c 0
184 535 m 1
 324 675 l 2
 349 700 359 706 374 706 c 0
 393 706 409 690 409 671 c 0
 409 657 399 642 384 632 c 2
 225 535 l 1
 184 535 l 1
EndSplineSet
KernsSLIF: 121 -30 0 0 119 -26 0 0 118 -22 0 0
Ligature: 0 0 'liga' o acutecomb
EndChar
StartChar: ograve
Encoding: 353 242 247
Width: 500
Flags: W
HStem: -15 43<250 259> 438 43<252 259> 686 20G<126 144>
VStem: 34 105<232 242> 361 105<233 258>
Fore
252 481 m 0
 370 481 466 370 466 233 c 0
 466 95 370 -15 250 -15 c 0
 130 -15 34 95 34 232 c 0
 34 372 130 481 252 481 c 0
252 438 m 0
 177 438 139 368 139 232 c 0
 139 100 178 28 250 28 c 0
 322 28 361 100 361 233 c 0
 361 365 322 438 252 438 c 0
326 535 m 1
 285 535 l 1
 126 632 l 2
 111 642 101 657 101 671 c 0
 101 691 116 706 136 706 c 0
 152 706 161 700 186 675 c 2
 326 535 l 1
EndSplineSet
KernsSLIF: 121 -30 0 0 119 -26 0 0 118 -22 0 0
Ligature: 0 0 'liga' o gravecomb
EndChar
StartChar: ocircumflex
Encoding: 354 244 248
Width: 500
Flags: W
HStem: -15 43<250 259> 438 43<252 259> 681 20G<219 282>
VStem: 34 105<232 242> 361 105<233 258>
Fore
252 481 m 0
 370 481 466 370 466 233 c 0
 466 95 370 -15 250 -15 c 0
 130 -15 34 95 34 232 c 0
 34 372 130 481 252 481 c 0
252 438 m 0
 177 438 139 368 139 232 c 0
 139 100 178 28 250 28 c 0
 322 28 361 100 361 233 c 0
 361 365 322 438 252 438 c 0
282 701 m 1
 407 535 l 1
 371 535 l 1
 251 636 l 1
 130 535 l 1
 94 535 l 1
 219 701 l 1
 282 701 l 1
EndSplineSet
KernsSLIF: 116 -21 0 0
Ligature: 0 0 'liga' o uni0302
EndChar
StartChar: otilde
Encoding: 355 245 249
Width: 500
Flags: W
HStem: -15 43<250 259> 438 43<252 259> 553 55<314 336> 595 59<173 191>
VStem: 34 105<232 242> 361 105<233 258>
Fore
252 481 m 0xcc
 370 481 466 370 466 233 c 0
 466 95 370 -15 250 -15 c 0
 130 -15 34 95 34 232 c 0
 34 372 130 481 252 481 c 0xcc
252 438 m 0
 177 438 139 368 139 232 c 0
 139 100 178 28 250 28 c 0
 322 28 361 100 361 233 c 0
 361 365 322 438 252 438 c 0
387 659 m 1
 422 659 l 1
 415 596 371 553 314 553 c 0xec
 288 553 276 557 225 581 c 0
 206 590 187 595 173 595 c 0xdc
 150 595 133 580 126 553 c 1
 91 553 l 1xec
 104 615 142 654 191 654 c 0xdc
 214 654 222 652 277 627 c 0
 311 612 322 608 336 608 c 0xec
 359 608 381 630 387 659 c 1
EndSplineSet
Ligature: 0 0 'liga' o tildecomb
EndChar
StartChar: ohungarumlaut
Encoding: 356 337 250
Width: 500
Flags: W
HStem: -15 43<250 259> 438 43<252 259> 681 20G<205.5 224.5 333.5 352.5>
VStem: 34 105<232 242> 361 105<233 258>
Fore
252 481 m 0
 370 481 466 370 466 233 c 0
 466 95 370 -15 250 -15 c 0
 130 -15 34 95 34 232 c 0
 34 372 130 481 252 481 c 0
252 438 m 0
 177 438 139 368 139 232 c 0
 139 100 178 28 250 28 c 0
 322 28 361 100 361 233 c 0
 361 365 322 438 252 438 c 0
129 544 m 1
 164 642 l 2
 179 684 194 701 217 701 c 0
 232 701 244 688 244 673 c 0
 244 660 239 648 226 633 c 2
 145 535 l 1
 129 544 l 1
257 544 m 1
 292 642 l 2
 307 684 322 701 345 701 c 0
 360 701 372 688 372 673 c 0
 372 660 367 649 354 633 c 2
 273 535 l 1
 257 544 l 1
EndSplineSet
Ligature: 0 0 'liga' o uni030B
EndChar
StartChar: racute
Encoding: 357 341 251
Width: 444
Flags: W
HStem: 0 36<25 292> 333 148<348 374> 686 20G<329.5 346.5>
VStem: 105 93<66.2543 161 123 466> 319 116<387 401>
Fore
198 466 m 1
 198 342 l 1
 230 430 285 481 348 481 c 0
 401 481 435 449 435 401 c 0
 435 360 410 333 374 333 c 0
 342 333 319 356 319 388 c 0
 319 407 323 417 337 433 c 1
 295 428 261 397 237 341 c 0
 212 284 198 208 198 133 c 2
 198 123 l 1
 198 83 l 2
 198 43 209 36 273 36 c 2
 292 36 l 1
 292 0 l 1
 25 0 l 1
 25 36 l 1
 29 36 l 2
 94 36 105 43 105 83 c 2
 105 123 l 1
 105 362 l 2
 105 405 99 412 62 412 c 2
 21 412 l 1
 21 455 l 1
 198 466 l 1
147 535 m 1
 287 675 l 2
 312 700 322 706 337 706 c 0
 356 706 372 690 372 671 c 0
 372 657 362 642 347 632 c 2
 188 535 l 1
 147 535 l 1
EndSplineSet
Ligature: 0 0 'liga' r acutecomb
EndChar
StartChar: sacute
Encoding: 358 347 252
Width: 463
Flags: W
HStem: -15 43<242 276> 437 44<194 226> 686 20G<338.5 355.5>
VStem: 58 58<336 368> 359 62<108 139>
Fore
390 477 m 1
 390 309 l 1
 355 309 l 1
 339 355 328 375 306 397 c 0
 278 424 247 437 209 437 c 0
 154 437 116 408 116 368 c 0
 116 346 129 325 151 315 c 1
 169 305 169 305 224 293 c 2
 274 282 l 2
 335 269 355 261 379 240 c 0
 407 217 421 183 421 139 c 0
 421 46 356 -15 258 -15 c 0
 208 -15 162 1 121 34 c 1
 86 -7 l 1
 51 -7 l 1
 51 182 l 1
 91 182 l 1
 115 82 175 28 259 28 c 0
 318 28 359 61 359 108 c 0
 359 148 331 168 252 187 c 2
 199 199 l 2
 139 213 116 223 93 244 c 0
 71 264 58 297 58 336 c 0
 58 423 116 481 204 481 c 0
 254 481 290 469 326 441 c 1
 355 477 l 1
 390 477 l 1
156 535 m 1
 296 675 l 2
 321 700 331 706 346 706 c 0
 365 706 381 690 381 671 c 0
 381 657 371 642 356 632 c 2
 197 535 l 1
 156 535 l 1
EndSplineSet
Ligature: 0 0 'liga' s acutecomb
EndChar
